<mxfile host="65bd71144e">
    <diagram id="xeuN-YM46rZjUQC9Zck7" name="video_streaming">
        <mxGraphModel dx="866" dy="1119" grid="1" gridSize="10" guides="1" tooltips="1" connect="1" arrows="1" fold="1" page="1" pageScale="1" pageWidth="827" pageHeight="1169" math="0" shadow="0">
            <root>
                <mxCell id="0"/>
                <mxCell id="1" parent="0"/>
                <mxCell id="2" value="" style="shape=image;verticalLabelPosition=bottom;labelBackgroundColor=default;verticalAlign=top;aspect=fixed;imageAspect=0;image=data:image/png,iVBORw0KGgoAAAANSUhEUgAABHgAAABjCAYAAADgrLcIAAAABHNCSVQICAgIfAhkiAAAABl0RVh0U29mdHdhcmUAZ25vbWUtc2NyZWVuc2hvdO8Dvz4AAAApdEVYdENyZWF0aW9uIFRpbWUATW9uIDAzIEZlYiAyMDI1IDA0OjQ5OjAyIFBND1a4RgAAIABJREFUeJzs3Xd8FOW6wPHfJpsesumkB5IQEmoSkC5FUEBpgqiXqgewgIoF6zl4PKiH61VBFAX0cBRULIBgAKkG6UZa6AkhQEgC6b1ny/0jyZpld0mFiD7fzycfyMwzM+++M7PZefYtioKCAh1CCCGEEEIIIYQQ4rZl0doFEEIIIYQQQgghhBDNIwkeIYQQQgghhBBCiNucJHiEEEIIIYQQQgghbnOS4BFCCCGEEEIIIYS4zUmCRwghhBBCCCGEEOI2JwkeIYQQQgghhBBCiNucJHiEEEIIIYQQQgghbnOS4BFCCCGEEEIIIYS4zUmCRwghhBBCCCGEEOI2Jwke0Siv7znNqO/2U67WtHZRGu3IM88QHRJCcVJSo7e9tmMH0SEhJCxZchNKdvPkxcVxYPJktvboQXRICNEhIeQdP97axQJatk51wLQfY5m5+Qi65hdNCCGEEEIIIW47LZbg0eqgtOr2e+j/M1hxLIl+X8SwPyX7ph7nZEYBuy5l8mj3dtgqLW8Yqy4pITokhCPPPNOkYx2cPJlNoaGUJCc3aXsBVYWFxM6aRf6pU/iNHUv4Cy8Q/sIL2Pv6tnbRGuz0v//doKScAngsKpiz2YVsv5hxawonhBBCCCGEEH8gyuZsXK7W8N3ZVHZeSudyfglaHbSxVnJPUFue7BGCvdWNkwDi9rLsWBJONlaM6eBzU4+Td+wY2bGx+I4ahUNgYIvtN+zZZ2k/bRp2Pje3/H8UecePU5mXR4cnniB83rzWLs5NN8DfnSBnB5YfvcDd7T2xVChau0hCCCGEEEIIccs0OcGTXlLOM9uPk1VSwb0dvJnerR3Wlpaczsznu7MpnM0uYvnIKKwspRfYn0FibhEnMvJ5INzvpp/ThKVLAejw5JMtul/HoCAcg4JadJ9/ZBVZWQDYenq2cklunXtDvFl65AL7r2QzKNCjtYsjhBBCCCGEELdMkxI8ZWoNc7fHodbqWD22F/5O9vp1gwLc6eXjytwdcUQnXmNCWHV3kFNZhWy7cI0TmflkFJdTpdXh5WDLoEAPpnQNpI21YVHe2n+Ony5c4+ORUexISmd3chYVag0d3dowKzKIHt4uzYpvqm/PpvDhb4m83C+Mzh4qlh+9wMmMAjQ6HQEqe+b16UhnDyd9/M6LGXx/NoWk/GJ0Ogh0dmB0B2/Gh/lxffuCyRtjSS4oYf/0uwyWn8jI58mtxxgb6sPL/cIAWHPmCksPXzCIe+nnkwa/v9i3I/d3NOyOU6nV8e3pZHZczCCtqAyFAjq4OjK5SyADA8w/EEefvwrA3UFeDaqnpso/fZrMvXvxvucenDp2NFgXM3w4JVeuMCI2FisnJ4N1Oq2WHf36oS0vZ3hsLBY2NgCc//hj4hcvNoi9a/t2HIODzZYh7aefuLB8OUVJSVg5OeE7ejSu3bubjddWVJD03/+SumkTpVeugIUFTuHhhMyciffddxvFV2RmEr9kCRm//EJFTg7Wzs649+1L2Ny5OLRrV18V3dC1rVs5/PTTBstOLVjAqQUL9L/fuXYtLpGRBjH5p06RuHw5OYcPU1VYiI2HB15DhxL2zDNYu7oaHaex8Y2t06Ya1r4tS49cYHPiNUnwCCGEEEIIIf5SmpTg+epUMleLyvh8jGFyp6iyCkuFgjt8XOnq6cSBlGx9gmf9uRQOpGQT5eVCTy8XrJUWXMgt4ctTyexPyWblqJ4mx3X59/5zAIwN9aG4Us3WpGs8uyOORXd35w4f4wfJxsY31dWiMpYeuYCzjRW9fV0pqlRzJquA5IJSfYLni5OX+fTYRVztrBkT6otSoWDPlSze//U8F/NLeLFPx3qOYl5fX3ecbawB2H05gwOpOTwY7keo2++Jj7qJJoBytZantx/jTFYhPbxd6O/vTmmVhgOp2bwSc4pne3XgwU7+Jo8XezUXpYWCMFfHJpe5Ic7XtN4JnT3baJ3f2LHEL1pE+s6d+E+YYLAuJzaWiuxs/CdM0Cd3ALyGDsXOqzopdenrr8k/aZgEu17KunUcf+UVrFxdCXz4YSwsLUndtImMXbtMxmtKSzk4bRp5cXG49+2L15AhqEtLyYiJ4fCTT9Jl/nyCpk/Xx1dmZ7Pn/vspz8jAc9AgnLt0ofjSJdI2byZzzx7uXLv2hsmn+jh360bkO+8AkP3bb6SsX4/vmDF49u+vj3EICDDY5uqWLRx9/nmsVCq8774baxcXii5c4PLXX5O1bx8D16/Hytm5yfGNrdPm8HSwwdPBhmPpeai1OpQW0k1LCCGEEEII8dfQ6ASPWqtjQ3wq9wS1JcTFAYDLBaW8ve8sZ7ILUQADA9zxtLflUkGJfrspXQN5bUAnrK974KpNgmy/mMHYUOOxUbQ6HV+O7YW9VXVRR4R48/iWIyyOPc+a+/s0O76pvj+bwqQuAcyICKL2JRVVqikorwQgs6SClccv0cZayRej78Ddvjrp8LeIdjyy6TAb4tO4N9jbKAnTUO2d7WnvXJ1cSyks4UBqDj19XBng7252m4+PXOBMViH/HNiJ4XVa4sxRB/PYliMsO5rEPUFeONtaGWyXV15FamEZYW5tGtw9y9LWljs++ghbb+8Gv6bixETSd+3Cc+BAVF26GK33Gz2a+EWLSN20ySjBk7Z5c3XMmDEGy53CwnAKq271lLFnzw0TPJrSUk6/9RYWNjYM3rABu5rBiIP+9jdi7rnH5DZn332XvLg4ot5/H7+xY/XLO730EvsmTuTcu+/iN3q0vlXLucWLKc/IIOTxx+n04ov6+ORvvuHE/Pmc/ve/6bNypdky1sfO11dfN1q1mpT163GNiDCqr1rl6ekcf/llnDp2pP8336B0cNCvS9u0iaPPPcf55cvp/MorTYpvSp3WFTB+PG6Rkdh6NbzlWCc3J365kkVCTlGT7y8hhBBCCCGEuN00ejCVC3nF5Feouat99bgeRZVqntl2jJSiMub26sDfB4STWVpJzOVM1JrfJywOcXHUJ3fK1BpyyyvJKaukq4cKgLNZBSaPd39HP32yBqCrhxOdPZy4XFBKUl5xs+ObysvR1iC5A9UDTPvVtGj6JTkTjU7HfSHe+uQOgL2VkgfDq1vJ/Hzp1s32U67WsCnxKoEqe3p6u5JTVqn/KanScGeABxUaLccz8o22TS8uA8DNzrrBx1NYWuI9ciQuEREN3ib+Bq13AOz9/XGNiiL74EEqsn+fMUxbVcXVbduw9fTEvW/fBh/vehl791JVXIz3PffoExEAdl5e+I0ebRSvKSsj+fvvcQwOxr1fP8qzsvQ/VcXFeA0bhqa8nJzYWP02V7dtQ6FUEjJzpsG+AiZOxMbDg8y9e1EXt9x1Wp/k775DU15O+2nTUJeWGrwGt969sbS3J3PPnibHN7ZOr+cUFob3yJEGiaT6uNXcb5mlFQ3eRgghhBBCCCFud41uwXMhtwiAjq5tANhy4RrZZZUsGxlF97bV3TLuateWB9YfNNiupErD53GX2HU5g8wS4wcvc1Osh7gaP9gFuzhyJquQywWlBLs4Niu+qQb4u3Oj3h+X8qtbL4W6G7cgCK2pu7otnG62pLwSKjVakgtKGf3dfrNx2SYeivPLqwBwsrEyWtdSSi5f5trWrbj37o1rz55m43zHjCH32DGubt1K+6lTAcjat4+qggL8//Y3FBZNHwC6dipuVU2Ln7qcwsONlhUmJKCtqKA4KYkdN0gsldcMdlyelUVVQQEOAQFYuxiOCaVQKmnToQMVWVkUXbjQqMRYc+SdOAFAXE2LG1PKMzObHN/YOm0JTjbVb2v5Na3phBBCCCGEEOKvoNEJnsIKNQDOttWtOc5lF+Jso9QndwBslRb08XXjdGZ1qxyNTsfc7cc5m11Ib19XHu3eHjc7a5QWCjJLKvjfg/FotDrjg2E6qaCqWVZSqW52fFN5OdrdcH2Zujph5WRtXMWqmi5QZWaSWjdDcc1r7+ntwqQuAWbj2jkbJ8hsasZGqtBob07hgPPLlqHTaulgpvVOLd/77uP0W2+RunmzPsFT2z3Lf9y4ZpVBU1oKYDB+TC0bEwMHVxUWAuDerx8hM2aY3W+bkBDD/atUJuNqkz7qkluX+Kt9DZHvvIONu+nufQqlssnxja3TllChrr5ObWQGPyGEEEIIIcRfSJOnSa+l0+mwtTLejW2dh6vDV3M5m13IkEAP3h7S1SDu6LW8G+6/sKLKaFlBzTJ7E8dtbHxT1Td4q11NUsRUK4KCmhYxdlaGg0orFKAzkecy17qpMRxrEk1anY4+vm6N2ta1JiFVYKJuW0JZWhqpP/6IS0QEHnUGAzbF2sUFzzvvJGP3bkrT0rBxdeXarl04Bgej6tSpWeWwrOkGVJmba7TO1LLambx0Gg2egwbVv3/76u57FXmmr/nKmuWN6Y7UXLWvwd7fH7devVo8vrF12hIKa5KZLrYN71IohBBCCCGEELe7Rn/FfX33hxAXRzJLyo26XZ2uM6bOteJyACK9jKcqjzMx5ktd53OKjJbVjqXTztneaF1j42+W9jUtYUyVJz6nuhVEe5Xhg7yd0hIdxkmqK4WlNzyWhaI62WSuFRRAsIsD1pYWnM0uJLeRXVf8nOyxU1qSnH9zWpYkrliBTq02O/aOUXlqBjO+umULGbt3oyktNRjguKnadOgAQOH580brCs6dM1rm1LEjFjY25J86ZTAmkDm2Hh5YqVSUp6dTmZNjsE5bVUXR+fOgUOhb/NwKzt26AZAeE3NT4htbpy3hUs393uEmz/gmhBBCCCGEEH8kjU7whNSMHxOfU/0QNTrUFwcrJQv2nSG1sIzCiiqWHU3ifO7vA8X6tqnuznTsutY6qYVlfHvmyg2PtzHhqkELlqPX8jiTVYi/kz0hJsbTaWx87TYjvtnHiG/2Ua5umW5IgwM9sVQo+OlCOtllvydUSqs0rD2XCsDQ9m0NtglU1Q7QnKVfVlSpZl1NvDmudtWDyl4uMJ8IslVacl+IN+VqLR/Enkd9XTKoXK3lmzNXMJUjUloo6OqpIrusssUHrq3IzCR57VqcwsNpe9ddDdrGa+hQLO3tSdu8mdToaAD8r5s9qyk8+/dH6ehI+s6dFF+8qF9efu0aqZs2GcVb2tkRMGECmtJSTr35Jjq1YRdATWkpSStXotP+fk35jBiBTq0m8T//MYhN/u47KrKz8bzzTpSOty4xETBxIgorKy5/9ZXJGcYKTp8mo04yp7Hxja3T5qrSaEnILSLAyd5gcHMhhBBCCCGE+LNrdJ+lDq6OONso2ZZ0jQH+brjYWrHo7gj+te8MD/5wCKBmpiYXfaueKC8XQt3a8MuVLJ7adpyunk7kllWy61ImPbxd2J9ivvWDpYWCqT/GMijAg9yySvZcycJSoeC53h1aJB6gXKPRt5rR6rQ0Ie9lxNPBhhmR7fn02EWmbfyVoe29sLK04JfLmaSXlHN/mK/RFM73hfjw04V03j2UwJFruThYKfk1LZdAlT1pRWVmj9XbxwVLhYJVJy9RVFmFt6MdFgqIaOusb0kEMKdnMPE5Rey6lMm57CL6+blho7QgtaCM2Ku5lKk1TAz317cIqmtIO09+u5rLr6k5jDExnX1TnV+xAl1VFR0b2HoHqhMrPsOHk7JhA4UJCbj26IGdn59RXHlWFll79+p/L02tTpRd27kT27g4AGzc3fXdqyzt7en82muceO019k2ciPc996C0tydl0yZsPTwoSU42Okanl18m//Rprm7ZQsHp03gOGoSlnR0lly+TuW8fmtJSgqZPh5rBn8Ofe46MX34h6bPPKDx3DucuXShJTubqtm1YOTnR5e9/b3jltQB7X18i33mH4y++yL6JE/EaOhTHoCCqiovJPXKEwvh4Ojz5pD751tj4ptRpcxxNz0Ot1TE40KNF9yuEEEIIIYQQf3SNTvBYKhRM7BTAf45f5ERGPt3bOtPZw4nvxvclrbAUhUKBbxs7MksqKK0ZaFhpoWDR3d1ZcfQiv6ZlczIzH782dsyKCqK/n9sNEzyvDQhn64V0tly4RqVGS6hbG2ZGtOcOH9MDtDY2/mZ6pFs7fBztWHsuhc2JV9EBAU52vNA1lPFhxgmJSC9n/jEgnM9PXOaX5CzaOtjyUGd/wt2d+O2q+fFK/JzsWXhXNz4/cYn151L1gyG/2LejQYLH3krJspFRrDuXyq5LGWxKvIpOB+72NgwIcGdggIfZsYXuCWrLJ0cusOXC1RZL8FTm5JD83Xc4BgXhNXx4o7b1HT2alA0b0Gk0+JqZbrvk4kWOv/yy0fJz772n/79br14G4+cEPvggVo6OJC5fTsrGjVg7OxMwYQIuXbty5JlnjPaldHBgwDffcPHLL0nbvJkr69aBVott27Z4DR2K9913Gww6bO3uzqANG4hfsoT03bvJPnQIpUqF7333Efbsszi0a9eoemgJfmPG4BgURNJ//kPOb7+RHhOD0skJh4AAOs6dazR4dWPjG1unzbE1KR0LBYzr6Ft/sBBCCCGEEEL8iSgKCgrMD9xiRqVWx8xNh8ktq2TRPRGE3oSxLt7af46fLlxj1ZheDRpLo7HxovE+O36Rz09cZvXYXma7uzXG2Xff5cKKFUS99x5+zZwBS4i88irGrz3AwEAP/jWwc2sXRwghhBBCCCFuqSb1RbK2ULDonghc7ayYufkw7/6awOGruVwtLietqIz9KdkmZ7MSt7epXdvhbmfNZ8cu1h9cj6rCQpK//hqHgACzLXCEaIxVJy8DMKfHrRukWgghhBBCCCH+KJo8b7i7nTWf3teTdfFp/JiQxob4NIP1rw/szIigtma2FrcjW6UFbwzqwvH0PMrUGv1U8E1h5eTEyJpxcIRoLh3gbmfD6wM74ekggysLIYQQQggh/nqanOCB6pmZpnQJYEqXANJLyskqrUSt1eLbxg5PmcHmTynKy5koL+fWLoYQBhTAlK4BrV0MIYQQQgghhGg1TRqDRwhxcxWcPcupf/2rwfE2bm7c8cknN7FEQgghhBBCCCH+yCTBI4QQQgghhBBCCHGba9Igy0IIIYQQQgghhBDij0MSPEIIIYQQQgghhBC3OUnwCCGEEEIIIYQQQtzmJMEjhBBCCCGEEEIIcZuTBI8QQgghhBBCCCHEbU4SPEIIIYQQQgghhBC3uRZP8GzerESlcmLhQpsW3e9331nRv78jXl5tUKmc8PBo06L7b6wtW7awePFicnNzG73tL7/8wuLFi0lNTb0JJbt5zp07x1dffcVHH33E4sWLWbJkSWsXSa+hdVpRUUG3bt2YNGmS2Zj09HS8vLx4/fXXW7qYQgghhBBCCCHETaFs7QI0xKFDljz2mB2BgVrmzKnEwUGHlZWitYv1l5KWlsa2bdtwcnIiKioKKysrLC0tW7tYjfbRRx9x5coVvvnmG7MxXl5ezJgxg2XLlvHII48QFBR0C0sohBBCCCGEEEI03m2R4Nm+3QqAJUvKGTJE3cqlqdavXz8iIiJwcnJq7aLcEpcuXQLg7rvvJiAgoJVL0zQFBQUsWrSI4cOH07lz5xvGPvvssyxfvpyFCxfy2Wef3aISCiGEEEIIIYQQTXNbjMFz7Vp1a522bbWtXJLfubi44Ovri1J5W+TImq24uBgAe3v7Vi5J061Zs4aSkhImT55cb6yHhwfDhg1j48aNZGVl3YLSCSGEEEIIIYQQTdes7MSGDUoWL7YhIcESlUrHxImV9OhhPgmTnm7Be+9Zs327kvR0CxwddfTvr+bVVyvp3FljEDtvni2ffWZtsKxvX0f9/62tdWRlFTWp3CUlJXz22Wd4eXnx8MMPG63Pzc1l1apVBAYGMn78eP3y2NhYDh48aBA7ffp0XF1dTR5Hq9Vy+PBhzp49S1FREU5OTvTs2bPessXGxnLp0iVKSkqwsrLCz8+Pvn374u7ubhSfkZHBoUOHuHbtGlVVVbRp04bg4GD69OmDtbW1iSM0XExMDCdOnDBY9uWXX+r/b2Fhwdy5c422O3/+PHFxcWRnZ1NVVYWLiwudOnWiR48eKBTGXesaE9+UOq21atUqHBwcGDFiRIPiJ0yYwLZt2/j22295+umnG7SNEEIIIYQQQgjRGpqc4PnqK2vmzLHF3V3Lo49WYGmpYO1aa7ZsMR0fH2/B6NEO5OcrGDWqiqCgKq5dU7BxoxW7dlmxaVMJd9zxe5Ln4YeriIqqThb9979KDh9WMn9+BT4+OgCaM/yLg4MD/v7+XLlyhcLCQqNuVgkJCQCEhYUZLA8ODqZNm+rBnU+cOEF6evoNj7Njxw7OnTuHm5sbPXr0oLS0lJ9//tlst66cnBzWrVtHRUUFwcHBODs7U1xcTGJiIpcvX+aBBx7A29tbH5+SksKGDRvQ6XSEhYXRpk0bUlJSOHr0KCkpKTz88MPNGienU6dOeHl5Gbze/v374+hYnWizsDBuALZ7927i4uJwc3OjU6dOWFhYkJaWxr59+7h27RqjR49uVnxj67RWeno6586d484772xw4qt3795AdaKrIQmeSZMmsWXLFiIiItizZ0+DjiGEEEIIIYQQQrSEJiV4SksVvPqqLba28Msvpfj7Vydi5sypoGdPR6N4nQ5mzLCnogL27SshLOz3RM7zz1cycKAjL71ky+7dJfrlPXtq6NmzOm73bksOH4Z7762iU6eW6aYVHh7OlStXSEhI4I477jBYl5CQgFKppEOHDgbL3d3d9a1oLl26dMMEz9WrVzl37hzu7u5MmjRJn2gJDg7mxx9/NLnN1q1b0Wg0TJkyxaBVUK9evfj666/ZvXu3wexPP//8MxqNhvHjxxMYGKhf/tNPP5GQkMDx48cb3LrFFC8vL32CJzk5mfT0dIKCgky2JAK4cOECcXFxdO3alWHDhhms27VrF6dOneLSpUu0b9++SfFNqdNatS2vIiMjG/z6AwMDcXNz49ChQ2i1WpMJLSGEEEIIIYQQ4o+gSU+su3ZZUlgIo0dX6ZM7AD4+OiZOrDKKP3BAyenTFowdW4WLi5aMDIX+p00bHXfcoebYMUuys2/dzFghISEolUrOnTtnsDwzM5O8vDyCgoKwsrJq8v5rWwFFRkYatKIJCgrCxcXFKD41NZWsrCw6dOiAjY0NJSUl+h9ra2u8vb3JyMigrKwMgOzsbPLy8vD09DRI7kB1QqhuGW6V48ePo1AoiIyMNCh/SUmJPllWO1hzU+IbW6d1paSkANC2bdtGvaa2bdtSVlZGXl5evbHOzs54enri5ubWqGMIIYQQQgghhBDN1aQWPAkJ1Q/XXboYt6bp2lVjtOzIker41autWb3afPeYjAwF7u66phSp0aytrQkKCuL8+fPk5OToH8prEz7h4eHN2n9OTg6AydYuHh4eRgmD2tZAp0+f5vTp02b3W1JSgp2dnX7/np6eRjHu7u5YWlqSm5vb5PI3RXp6OjqdjtWrV5uNKSkpaXJ8Y+u0rtptnZ2dzb8AE2rj614j5nzyySeN2rcQQgghhBBCCNFSmpTgKSmpbmnj4mKcjDH1DJyfX/3vU09V3nCa88DAW5PcqRUeHs758+dJSEigX79+ACQmJmJra0u7du2ate+qquqWTLa2tkbrTC0rLy8HoEePHjechlylUgFQWVkJgI2Njck4W1tbSkpKblnXIo1Gg1qtxs7O7oaDGDs4ODQpHhpfp3XZ2dkBv9dzQ9XG124vhBBCCCGEEEL8ETUpwePoWJ2IqWkUYSAnx7ibVW2jCScnHcOGmU/w3Grt2rXD1taW+Ph4+vXrx9WrVykqKqJbt27NTorUDuRbVlZm1GqktptVXbUJCmtr6wYll+ru35Ty8nKUSuUtGzfG0tISpVJJRUUFgYGBJmfLak48NL5O6/Lw8ABoUFerumrjzY07JIQQQgghhBBC/BE06ek/PLy6G9bZs8YzNJ06ZbwsKqo6qbN9e7NmZW9xFhYWdOjQgYKCAjIyMlqsexag786TYyILlp2dbbSsdmyYumPONGT/mZmZJvev0WjMTt9+s7Rt2xatVsvly5dvSnxj67Subt26AdVTsjdUaWkpKSkphISESAseIYQQQgghhBB/aE1K8AwZosbJScfmzVYkJv6+i7Q0C9auNU7iDBigITxcy9Gjlnz6qfEYPFevKli1qmFTV7e02mTO2bNnSUxMxMnJCR8fn2bvt2PHjgDExcXpu1MBJCUlmWxF4ufnh5ubG+np6cTFxRmtLy4uNhibx93dHRcXF7Kzs40SJLGxsQZluFUiIiIA2Lt3r1GLGp1OR1JSkkEiprHxja3TuiIjI3FwcODw4cMNfj3Hjx9HrVZz5513Nij+8ccfp3379owZM6bBxxBCCCGEEEIIIVpCk5rU2NvD22+X8/TTdtx9twOjR6txcNCxdq0SLy8dSUmG3W0sLOC//y1l9Gh7XnzRlvXrrejdW41GA6dOKdm/35I77tAwfXqlmSPePL6+vjg5OXHy5Em0Wi1du3Y1GVdSUkJycrL+98LCQqA6uVA7QLK9vb2+e5W3tzdhYWHEx8ezZs0a2rVrR2VlJfHx8Tg7O5NfOzBRDYVCwb333su6devYvXs3CQkJ+Pj4oNVqyc7OJiUlBW9vb7p06aLfZujQoWzYsIHo6GhCQ0NxdHQkJSWF9PR0PD09GzUleEsIDQ0lNTWVEydO8PnnnxMcHIyjo6O+7oqLi5kwYUKT4xtbp3VZWVlx33338f3333Px4kWCgoLqfT27du0CYOzYsQ16/UVFReTm5lJQUNCgeCGEEEIIIYQQoqU0uc/UtGlVtGkDixfb8O23SlxcYPLkSiIjtTzyiHF3lk6dtBw4UMKHH9qwfbuSZcussbUFPz8tM2dW8sADxtOr3yodO3bUt+ww1z0rLy+P7du3Gy3fv3+//v9+fn4G4+cMHz4cV1dXTp8+zcmTJ3FycmLYsGFkZmZy/Phxo325u7szdepUjhw5wqVLlzh27BhKpZI2bdrQvXt3wsLCDOKIHUs3AAAgAElEQVT9/f158MEHiY2N5eLFi1RVVeHo6EjPnj3p1auXwVTit8pdd91FQEAAJ0+e1JfJ3t4ed3d3evXqhZeXV7PiG1undc2aNYvvv/+eNWvW8I9//OOGsVqtlu+//57g4GAGDx7cpLoQQgghhBBCCCFuFUVBQcGtnbpKiFY0cuRILl26xIkTJ8zOQAawdetWHn74YT788EOmT59+C0sohBBCCCGEEEI0niR4xF9KXFwcQ4YM4d///jdPPvmkyRidTsegQYPQaDTs27fvls1EJoQQQgghhBBCNNUfa1orIW6yiIgIPv74Y0pLS83GZGRkMHLkSEaOHCnJHSGEEEIIIYQQtwVpwSOEEEIIIYQQQghxm5MWPH8BZ86cMZhivT7t2rWjd+/eN7FEQgghhBBCCCGEaEnSgkcIIYQQQgghhBDiNicDjAghhBBCCCGEEELc5iTBI4QQQgghhBBCCHGbkwSPEEIIIYQQQgghxG1OEjxCCCGEEEIIIYQQtzlJ8AghhBBCCCGEEELc5iTBI4QQQgghhBBCCHGbkwSPEEIIIYQQQgghxG1OEjxC/Ml9/vnnODs7ExcX19pFETdBZWUlb731FhEREbi5uaFSqRg/fnxrF+sPJz4+Hjc3Nz755BOzMdHR0ahUKnbu3HkLS3ZzdOjQgQ4dOrR2MUQrurR6NdEhIQY/mXv23LTjFSclER0SwpFnnrlpxxAt649+zk6/+SbRISHkxMa2dlFa1OE5c4zuTW1FRWsX6w/lxD/+QXRICPmnTrV2UVrcn/W6vl5eXBwHJk9ma48e+us87/jx1i5Wq9PpdPTv35+hQ4ei0+luyjEkwXMLDB/ugErlRHFxa5fk5urZsycqlUr/4+bmRmhoKFOmTOHQoUOtXby/pIKCAt566y3Gjh1LREREaxfntqZWq1GpVAwaNKi1i2Lgww8/5N1338Xb25uXXnqJf/7zn0ydOrW1i/WH8+qrr+Lp6cmMGTPMxowZM4aoqChee+01qqqqbmHp/tyGDx+OSqWi+M/+R7AOdUlJqz84e/TvT+Q77xD5zjt4DhnSqG3Pvf8+0SEhZMTE3KTS/fHsf+ghokNCUJeUNGn7hA8/JDokhCvr1rVwycSfTdC0afp70yEwsLWLI0SLqyosJHbWLPJPncJv7FjCX3iB8BdewN7Xt7WLdtNkxMQQHRLC5TVrbhinUCiYP38+R44c4fvvv78pZVHelL2Kv7Tx48ejUqkoLy/n3LlzbNq0ic2bN/PJJ58wadKk1i7eX8rSpUvJzs7mueeea+2iiJtk69atKJVKfvjhB+zs7Fq7OH9Ie/fuJSYmhrfffhsbG5sbxj733HNMnTqVNWvWMH369FtUwpb37bfftnYRRCtzDA7GMTgYgOLLl8ncvfumHs/Ox4f+336LjavrTT3OH5G6pISLq1Zh7+uL39ixrV2cBvsrn7PW5Na7N269ewOQ/P33lCQnt3KJhGhZecePU5mXR4cnniB83rzWLs4fzogRI+jUqRMLFizggQcewNLSskX3Ly14RIt79dVX+eCDD1i+fDl79uzh/fffR6fT8fLLL1MhTVBvmcrKSv773//SqVMnab3zJ5aeno6Tk5Mkd25g+fLlKJVKHnrooXpjR4wYgaurK59++uktKNnN06NHD3r06NHaxRB/IZZ2drj17IljUFBrF+WWu/zVV1QVFBAyaxYWVlatXZwG+yufMyHEzVORlQWAradnK5fkj2vSpEmkpqaydevWFt/3Xz7BM2mSPSqVExcvWrB5s5IhQxzw8mpDYGAb7r/fnvx8hUH88eOWTJ1qR3BwG9zdnejc2ZF582zJyTGMe/DB6v2qVE78+mt1Vs7X10m/TKVy4vx5w+rv08cRV1cnozIeOmSJSuXEs8/aGq07dap63axZduTlKZg715bQUEc8PNoQEeHI6tW/f9CYN88WlcqJQ4eULFliTUSEIx4eTkRGOrJmjXWT67A+M2fOxNnZmcLCQs6dO2e0fsOGDYwcORJ/f388PDzo06cPS5YsQaPRmNzf5s2bGTVqFMHBwXh4eNC5c2cmTZrEL7/8YhB35coVVCoVkyZNYuvWrQwcOBAPDw/CwsL4+9//Tmlpqcn9Hzt2jIceeoh27drh4eFBREQE8+fPp6ioyCh23rx5qFQqDh06xJIlS4iIiMDDw4PIyEjWmGmil5GRwSuvvEJUVBReXl4EBgYyYMAA5s+fbzYB1tg6guqWHdnZ2TzwwANmYwA0Gg2LFi2iW7dueHh40LNnT9asWcMrr7yCSqVi//79RtscP36cqVOnEhwcjLu7O507d2bevHnk5OQYxfbp0wdXV1cKCgqYO3eu/rwNHTqUI0eOmCxTeno68+bNo2vXrnh4eNC+fXumTJnCmTNnzL4Of39/wsLC0Gq1LFq0iMjISDw8PAgNDeXFF1/Ux125coU333yToUOH6ssSFhbG448/TmJiotF+fXx89F0OAeLi4gy6Ipob56Qp56yh+vTpoz9+amoqubm5BmUyNQbPqVOnUKlUzJo1i7y8PObOnUtoaKj+Gl+9enWT6ujTTz9FpVLxf//3f3Tu3BlfX1/eeecdDh06RGRkJIGBgbz00ktotdpm1VFFRQWffPIJAwYMwN/fHx8fH6Kionjqqae4ePGi2brKyspi27Zt+vu/PtbW1owaNYrTp0+32rhVTa3TMWPGNOjaPHv2LCqViueff5677rqLtm3bMmXKFJKTkxk5ciQ+Pj7cf//95OXlGW3b0Hv/wQcf1Jfj119/BcDX19egfOfPn9fH/+tf/0KlUpl931ywYAEqlYpVq1bpl3Xt2hV/f3/Onz/P/fffj4+PDwEBAUyfPp1kM9+IV1RUsGjRIvr27YuXlxc+Pj4MHz6cLVu2mIy/WQoTEogOCeHk66+zd/x4NnfuzOHZsylNSeHAww+zpVs3Dj3yCFX5+fptKnNziQ4J4aCJLpjnP/6Y6JAQ0jZvbnKZkv7zH/04CYnLlgEQ+9hjBuOEmGp6vik01CDmRt3Sjr/0UvXYE7/9xom//52tPXuyuUsX9j/0ENkmunJrSktJWrmSXx95hJ133snm8HC29uzJr3/7G5l795o9zm9PPEF0SAglyclc27GDvfffz+YuXdgaFVVdrwUF1a9v5kx9uXOPHgXgp+7dDV5PcVLSDetNU1ZG4sqV2Li7EzBxosG6rAMHiO7QgQOTJ6O77n4tjI9nc+fOxAwfjsbM55H61I6zdH7pUnbceSdbunUj4aOPyDlyhJ+HDmVrVBSnFiwwOnZDz5lOq+Xg1KlEd+hA1oEDRuuPPvcc0SEhpKxfb7Qu/9QpDs+Zw7ZevdgUFsaOO+/k5BtvUJmba3wctZrzH3/Mz3fdxebwcH4eNozk775rUp2YU3juHNEhIRx7/nmq8vM58fe/s71PHzaFh7PrrrtIvq6rhLaigsRly9h9771s6dKFLd26se+hh7hmYoy2xl7XjdXU+wAgbdMmDk6dytaoKDZ37szPw4Zx6s03KU1LM4ptzDm7VdTFxZz85z/Z1qsXW7p0Yd8DD5h9zdqKCs5//DExw4ezKTycnyIiODh1qslr99rWrdX3zscfG607OHUq0SEhlNckKcDw/bfowgV+nTGDrRERbOnWjcOzZxvE1mrsdZ137BgnX3+d3ffey08REdXvD3ffzbl336WqsNDkNg29rjP37iU6JITjL71kcj9Z+/cTHRLC0Wa0+K+t0+iQEI6/8goApxYsMHivMTUGT0Pfr6H6ej7yzDPsuusu/X25d/x4Ln/1FbrrPjtu7dmTA5Mnc/TZZ9ncuTO/jB5N8cWLxL3yCpu7dGH3vfeSf/q0UXkqMjM5+cYb7Bw0SH+v/TZ7NoXx8U2uG1MmTJgAwJdfftmi+wXpoqX3ww9WvPWWDVFRGu69V821axbs3auksFCBs7NOHzNrlh3OzjpGjarCzU1HfLwlK1da8/PPSmJiSnBxqY6dPbuCcePUALz3njVJSRZ88EE5dXsHtG1r/MDTVFVVMGqUA2lpCvr10wA6TpxQcuiQkmnTDMeSWLjQhsREBcOGqSktVbBxoxVPPmlLQICWAQPULVamuhSK6gSY1XXfbL344ot8+umnhIeHM3nyZKysrDh48CCvv/46hw8f5quvvjKIX716NU8//TTe3t488MADODs7k5KSwp49e9i8eTODBw82OvapU6eYNm0ao0eP5p577mHv3r0sXbqUU6dO8eOPP+rLBtVdOWpvuIkTJ+Lj48O+ffv48MMP2bNnDzt37jTZxWPhwoUkJiYybNgwSktL2bhxI08++SQBAQEMGDBAH1dRUcGIESO4ePEiI0aMYMKECZSWlnLu3Dk+/vhjnn32WaP9N7aOasXUjJ3Qp08fc6cFgOeff54vvviCkJAQ5syZQ15eHs899xwBAQEm43/44QdmzZqFs7Mzo0aNws3Njfj4eFauXMnPP/9MTEwMLi4uRttNmjSJoqIixo0bR2JiInv27GHChAmcOHECZ2dnfVx8fDyjR48mPz+fUaNGERQUxLVr19i4cSO7du1i06ZN3HHHHWZfz7x58/jyyy/p168f3bt3JzExkW3btvHuu+8CsHv3bj744AP69+/P2LFjcXV1JTk5mR9//JGffvqJ7du306lTJ/3+PvjgA9RqNVqtljlz5hAQEMCrr76qX29ra5x4beo5a6j58+dTUPMH79VXX6Wqqor33ntPv97b29vstlVVVYwaNYq0tDT69esHwIkTJzh06BDTpk1rUh1B9WDeDz30EGvXruXf//43K1euZOLEiRw5coQVK1YwZMgQRo4c2eQ6euqpp/j+++/p3r07M2bMwNLSkqSkJH788Ufuvvtugsx8A/3LL7+g0WjoXdMcviF69+7N6tWriYmJadXWb42t07lz5/Lwww8D8PLLL9e7/y+//JLHHnsMpVLJpk2b2L9/P0OGDCEgIIBvv/2W9957j7ffflsf35h7f/bs2YwbNw6A9957j6SkJD744AOD97e2bdvq///II4+wePFiVq1aZdSVV6vV8t133+Hg4KB/f65VVVXFmDFjaN++PbNnz+bChQts3LiRQ4cOsW/fPoNjlJaWMmbMGA4fPsygQYMYPnw4JSUlbNu2jUmTJvHOO+/wxBNP1FtvLenK2rW0nzoVC6WSazt2kB0bi0f//nj7+ZG6cSPnP/mEzq+9dkvK0nbQIKxrzl/atm1k7t5N++nTca5zr7tERhptF/G//ws6HeVZWZyr8z50I8dfeQWFQkG7hx6iqqiIlI0bOfTII/T573/x6N9fH1eelcWZhQtRdeqEe79+2Hp6UlVQQPquXfz6t78R+X//h/8NBpVP27KF+EWLcO7WDa+hQ6nIyCD70CHURUVYqVQEPfooPjX30PlPPqEkOZnub76JhfXvX3rZ1JMYTv7uO6pyc+n86qtYXPf326N/fzo+9RQJH31E4iefEPrUU0D1A/uRuXNBoaDX0qVY2ts3qN7MufzNN/iNG0dqdDQJS5Zwec0a/EaPJvfECS6tXo1H//54DR2qj2/oOVNYWBC1aBF7Ro/m2AsvMHjzZmzc3QFIWb+etE2b8B8/Hv/r7surW7Zw9PnnsVKp8L77bqxdXCi6cIHLX39N1r59DFy/Hqs6f/ePv/IKqRs30iY0lOAZM6jIyeHkG29gf4O/ZU2lrariwJQplF27hlvNZ4mCM2fIPXKEwAcfBKrPz8Fp08iLi8O9b1+8hgxBXVpKRkwMh598ki7z5xNkogtvQ6/rxmrqfXD8pZdI+eEHbNzd8R01CmtXV0pTU0ldvx57Pz+CH31UH9vYc1bXTxERqIuLCfrb3+jSwu9XcX//OwrAf8IENGVlpG3cSOzMmfRavpy2d92lj9NptcQ+/jhZ+/fjFBZG8IwZqAsLSY2O5tAjj9Bj0SJ8R49udnkqcnI4MGkSzl264DtuHNmHDnFtxw4q8/Ppf10CvLHX9aWvviI9Jgb3Pn1w79sXS1tbCuPjSVyxgvSYGAb+8AOWZlpr13dde955J3Z+fqT99BNd//lPlA4OBttfqUnStqv5DNEUzt26EfnOOwBk//YbKevX4ztmDJ51rn0HM88WUP/7NcDphQuxtLLCOSICez8/dJWVZMfGcvKNN8g/fbr6va2OnNhYfO69F5/hw0mNjmbfxIk4tm9P+ylTuLhqFSdee41B0dH6+KLERA5OnUpVQQFed9+NQ2Ag5ZmZXN26lay9e+n35Zcm/w42hY+PD35+fuzbt4+qqiqjZ+TmkARPjSVLbFi3rpRhw35PcFy4YIGra3XC5upVC2bPtqNzZw0//VSKo+Pvo16vW2fFjBl2LFpkzZtvVrfAGDxYA1RnEletsiIpCSZOrMTR8eaUf9s2K/r3V7N9e6n+GGo1nDtn3KcvJUXBwYO/J6MGDtTwzDO2fPWV1U1J8GzYsIG8vDx8fHwMvlGOjo7m008/5dFHH2Xx4sUGiZa5c+fyxRdfsGPHDu655x798tpWBjt37sTf31+/XKvVkmbi2wiobo3w/vvvM3PmTKB69PLx48cTExPDhg0bDFo7PP/881RWVvLDDz8wtM6HoRkzZrBu3TqWL1/O3LlzjY6RkpLCwYMH9Q83AwcO5JlnnuGrr74ySPDs37+fixcvMnnyZKPZfK5evUqbNm0MljWljmodPHgQgMgbvBEdPXqUL774gtDQUPbs2YN9zYfMkSNHmuzOcvXqVWbPnk3nzp356aefcKxzQa9bt44ZM2awaNEi3nzzTYPtNBoN7u7uREdH6/uZzpw5k7Vr17J582amTJkCVJ+bGTNmUFFRwb59+wgLC9Pv4/nnn2fgwIG89NJL7DYzlkROTg67du0iNjbW4IH/eJ1vDIYMGUJCQgLuNR9Sa/36668MHz6cxYsX89lnn+mXP1jzgU+tVjNnzhxcXV1vOJZUc85ZQ9133336/y9YsAALC4sGj2+1bds2+vfvz/bt2/XnT61WG7Sua2wdQXWiadq0aYSGhvLkk08yfPhw3n77bS5evEhkZCSxsbH6ZERj66i0tJT169cTHBxMTEwMSuXvf7qKi4spLy83+3prB3i/0X1wvaioKAAOHDjA888/3+DtWlpj6hQweM/65z//We/+x40bx9tvv82VK1fo2rUrLi4ufP7550B1sju2zgwfjb336ybbV61aRVJSEhMnTjTYrq7AwECGDBlCTEwMFy5cICQkRL9u9+7dpKamMm3aNKPty8rKGD58uEHLnvfff58FCxbwzjvvsGjRIoM6OXz4MJ999pn+vobqe2jYsGG88cYbTJw4ETc3Nz7//HN+++23euswJCSEF154wWi5pa0td3z0Ebb1PKB6jxxJ59deoyw1lZ2DB2Pt7EzPDz8EIPvQIXKPHau3DC3FsUMHHGv+RteO2ePZv7/BQ5QptQ+WxUlJDU7w6LRaBm/Zon/I8B83jn0PPsipBQu4a/t2fZyNuzt3bd+uH0uoVvjzz7PrnnuIX7wYv3HjUFiYbpCe9Omn9Fm5Es86g+MXX7qEVc3f6roP3bVjofiOGWP08GOOtrKSC599hrWLC+3+539MxoQ+/TQ5R46Q8OGHuPXpg1vPnpx6802Kk5KI+N//1dd5c3ScO5fABx+kTVAQx19+mbaDB9P5tdcovnyZmGHDyD12zCDB05hzZuvhQY/Fizk4bRrHX3qJPitXUnz5Mif/9S8cg4Pp9sYbBvHl6ekcf/llnDp2pP833xjUZdqmTRx97jnOL19O55pv+HOPHCF140acwsIY+MMP+uSa97BhxD7+eLPr5noZu3fj1qsXA777Tl82nVpNUZ3WqWfffZe8uDii3n/fYEylTi+9xL6JEzn37rv4jR6N9XVjFzX0um6sptwHKevXk/LDDzh3706/1asNzkNVfj4lKSn63xt7zm4pjYZBW7agrHnvD3zgAfaMG8fJf/2LYYMH61/z1S1byNq/H5cePRjw9dcoaj4nBE2dyu5Rozj5xht4DRtmNkHSUEXnz9P19ddpX/OFmLaigt0jR5Lz22+UpqRgX/Ns0pTrOuSxx4hYuNAoUXz+k0+IX7SI1OhoAs10Na/3uq5JPJ57/33SNm822E9VYSHpO3fiEBiIW69eQHXSuCEzXjm2b0+HJ58EwM7XV5/s1arVpKxfj2tEhFEC2Jz63q8Beq9YgXOXLlDncyM6Hb8++ihX1q0j5PHHcWzfXr/Ktm1b/d/U3KNHKU1Lo+fSpdh5eVGemUnapk1oysqqrwudjqPPPYemooLB0dEG780dnniCPWPHcmrBAgZu2GCy/KquXbnjo49Qde7coNcL1Z83o6OjOXHiBD179mzwdvX5y3fRqjVxYpVBcgcgJESrT+SsWmVFWRk89lglJSWQkaHQ/wwYoMbBQcfOna3X71qjgQ8+KDNIICmV0LWrcVeHWbMq9ckdgDFjqlv4JCS0zOWwcOFCnn32WWbPns3w4cN55JFHcHNz4z//+Q/Wdb4VW7FiBRYWFjzxxBNkZmaSkZGh/xkzZgwAO3bsMNi3Wl19jq4fjMrCwsIg4VOXSqUymFVIoVDwVM23aBvq3KRnzpwhMTGR7t27GzwoAfoP8D/88IPJY8yaNcug1Upt+RMSEkyW31SW1sfHx6B+oGl1VCslJQVHR0d90saU9TUZ+8cff9wgbsSIESa7d6xatYqysjIee+wxSkpKDMozYMAAHBwczE4xPW/ePIPzZqqODhw4wOnTpxk7diwuLi4G+2/Tpg133HEHx44dIzs72+QxKisreeONN4xac9R9uA8ICNAnLiorK8nJySEjI4P27dvj5ORktttYQzXnnN0KGo2GDz74wOBBWalU0rVrV/3vTamjdu3aAeDn52fwe+19mZGRoY9tbB1ptVq0Wi2WlpZYXPcg5+joaJSIqiul5kNs3ZYc9fHy8gIwmzS+VRpTp83Zv2/NrBa1v9ceo+7+m3PvN1RtC7LrW299/fXXQHUrH1Oefvppg99nzpyJra0tGzdu1C8rKytj9erVdOzYkUGDBhmUv7CwkPvuu4+ysjJ9l9SDBw+yZs2aen/M3csKS0u8R47EpZ4WYA4157I2EeRQ5++Yva+vfhyDP5v2//M/Bg+RLlFRuEREUJyURGGdvwlKBwf9Q61Oq6UqP5/yrCw0VVW4dO1K2bVrlGdmmj2O75gxBg8LUP1A0tAETn1S1q+nPCODoEcfNdsKp7YVjLWrK8eee47kb77hytq1+I0bR0A9Xagbqva6sfPxqf695lvy2hlrmnsdufftS8enniJz717OL1vG0blzQas12foo+bvv0JSX037aNNSlpZRnZel/3Hr3xtLensw9e/TxaT/9BFDdkq3OZ6C2Q4caPKi1FJ1GQ7c33zS4BhRKJU7h4UB1l7vk77/HMTgY9379DMpfVVyM17BhaMrLTU5x3dDrurGach9cqnkf7fqPfxhd71bOzjjX+Zvf2HN2PRt3d2zc3bG67kvKlhDw0EP65A6AqksX3Hv3piwtjYI6U6hfrRnHJPSxx/TJHahOXHsNG0ZVQUGLdJezcnamXZ0v1CxsbPCs+UKjqE53zqZc105hYfrkjqa0lIrsbMqzsnCt+Qybd4Nu4/Vd11DdCkphaWnUHfHqli1oysurkz41iZPcw4dJ+eGHen8yrhseozka8n7t3LWrvozq4mIqs7Mpz87GtabVUv7Jkwbb1/2bauftjUKpxK7mM569jw/odFTWdDHP+e03CuPj8RkxAqWzs8F9oHR0xCUigvxTp/Tx17P18MB75Ejsb9BK6Xo36/OmtOCpMXLkjafEPXKk+sF0zhzzmd/09BYtUqN07arB319XfyAQGmrYNczFRYeFBRQXK8xs0TjXJ0G6d+/Ot99+i0/NB49aR44cQavV3rDrRPp1lXr//fdz/Phxhg4dygMPPEDv3r2JjIzUP6CY0qFDB6NuT51rsqt1kwvxNX0ru3XrZrSP8PBwrK2t9THXCw0NNfjdxcUFCwsLo2mB+/TpQ9u2bVm1ahXp6ekMHTqUiIgIIiIijJI70LQ6guqHmbKyMv2DoTm1Y9qYes1dunQxGm+l9sF+zpw5jSoPYPCNPKAfD6WkzpS0tftfvXq1wZgw18vIyDD7UD9ixAiz20F1K6GVK1fy+eefc/bsWaNxTEx1uWqMpp6zW6V23JIbaUod1S6r/bd20GcrKyssLCwoKyvTxza2jhwdHRk2bBg7d+5k8ODBjBkzhh49ehAVFYWqptmuObVjw5jqNmhObZdBU2NK3UqNqdOmqN2fpaUlVlZWBufV2traYJyy5tz7DTVq1Cjc3d1Zs2YN8+fPx9LSkoKCArZs2UKXLl3MDhpdNzkJ1Ul9Pz8/Lly4QFZWFh4eHpw5c4by8nISEhKM3q9NvYbPPvvMqJXazVD7bbLC0hKFUmnwza3CyoqqZp7jPyqnOq0z9cs6diQvLo7ipCScOnbUL8/av5/zy5aRFxeH1sQ4dZobTGvudd2XNS1Jp1ZzfsUKlI6OtK9phWpO3VYwJ+bPxzE4mO4LFpiNL7l8maQvvjBYZu3sTNizz5qMr71uLGv/rbmXLaysQKFA0wLXUW1LpPiaVnGRZlof5Z04AUDcDVp71E1G1LYwqHvOazmFhVF86ZLJfTS2jvT7DA+/4VTNhQkJaCsqKE5KYkffvmbjTI250pjrurEacx/oNBoKzpzB0t6+Qd1JGnvOrjd01656j9FUKhN12qZjR7JjYym6cAHn7t2B368j1XXdxwFUnTtzbft2ihIT622RWB+HwECDBBKgn4Wu7jloynWtLi4mYelS0rZsofzaNeP1N3ivq++6huoBj9sOGUL6rl0UJSbSpub+TV63DoVSSUCdHg1RixYRVacF7K3QkPfrksuXif/gAzL27EFtYmzU6+vIos7nGktbW5R1fq9931TXtAKvTaBdWbuWK2vXmi1DeVYW1jXjcjZX7WfTlv68Kau+VIUAABopSURBVAmeGv7+Nx4Pp6CgOvmxbFkZnp6mEylKZcMSLDdDfeWvy8HBuJwKBehaqPiHDx8mNDSUoqIivvnmG1555RUmTJhATEyM/oGioqKC8vJy3N3dWbFihdl9eV43+vozzzyDs7Mzq1atYunSpXxY0+yuR48eLFu2jI4m3khNPdi51rwZ1x04uTYZYypeoVDoW5So1WqDLiIADia+DVQoFOiuq1SVSsWuXbtYuHAh27dvZ9u2bUD1A+zTTz/NK3X+uDa1jgBsbGywsLC4YdcV+P01u5qYItXUstpxX5YtW2byuIBR3UD1A6S5WZ7qJg/yawYUfeqppxgyZIjZcgcGBppc7u7ufsMWSwD/+Mc/WLp0KeHh4bz99tsEBAToH2xnzpypb2XVFM05Z7dKfckdaFod1Xazqtvdqu662oGTm1pHX3zxBYsWLWLDhg36bkBKpZKxY8eyePFis4me2uuuvnuhrtrY5ib7mquhddpSx6p7HAsLC4N7s6n3fmNYWVkxefJklixZws6dOxkxYgRr166lvLzc7JT1dnZ2JsdFq30fLyoqwsPDQ1/+wYMHG7X4qcvU35Cbqu7fCIXCoNm5wsICTAxO/mdgbWIsj9pm+FV1vhjJ+PlnYp94AmsXF0JmzMCpY0f9t/kXPv2U7NhYtDd4z7a77oullpT644+UpaYSOns2Vk7GE2RczzUqCjtfX8pSU2k7ZMgNx90pz8jg8nUt2ex9fc0mL/T3bs2/uuvWXT/IclMoLCzwvfdesg8dwtLeXt9q4Xq1g8FGvvOOfrweo33Vea9Q1ySSTV0T1jdIzDe2jmrZ1fMQXFt+9379CJkxw2xcm+u+tIKGX9eN1dj7QF1Sgk6rNVv/12vsObuVbnRdqOt8CVFV82BvZeKzgE0LnINaSlP3be19V+f9vLHXtU6j4eD06eSfOIHnwIF0fOopbD08UFhaUpaRwYnXXjMaRLiu+q7rWu3+539I37WL5LVr6fLaaxRduED+iRN4Dx+OdQOvl5ulvvfr0rQ09k6YgKa0FP/x43G74w59XWbs2cOl1avRXf/3oM7fVJ1CYfjeWNMivLZeK2vug+C//e2GY2bZN+BzdEPVflHX0p83JcFTw0TjCQMqVfUlERiopX//lvtQXZe5JEtDWtbUV/7W0KZNGx577DEyMjJ47733eO+995g/fz5QnYCwtbWloKCAIUOGGHW5MkehUDB9+nSmT59OaWkpsbGxrFy5kk2bNjFlyhQOHz5stI2pmWBya2YEqNtNpfb/prKoOp2OvLw8bG1tm/0QExAQwLKaGUqSkpLYvn0777//PgsXLiQ0NFQ/JlBT6wiqH85cXV3Jz89Hp9OZfECE319zrokZEkwtq32IDgwMpH8zBgw0p7blhJOTE8OGDWv09vUNUFZcXMyKFSsICAggJibGIBlUVVVFYWFhvS1CbqQ55+xWMdVSrK4/ah05Ojry+uv/396dRzV1p30A/5IQIIAgBZE1uIGCpVRQGaYgZayKRejBZYbW2lFrLbaOuy1HO4xSj9a1FhBRXBg1aM8Ig6LgQkUU5K0oLjCoUCiiYARbFlmEEHj/IDdNSAgJCQrt8zmHP9SYc/O7C7nPfZZwhIeHo7q6GpmZmdi9ezcSExMxePBgmV4r0phMMUXHc3eYa4YqU7f+KPr63GfMnz8fkZGROHLkCPz9/cHn82FgYNDtiPvm5ma0tLTIBXmYfcj0NWO2XyQSqXRtiYuLk/QxU8bJyUmm6Xqf6uY6DmjnxuVlapWaDsYQivcZR+qByYOYGKCjA958vly2CDPpSxlWH3056mhvR/G+fWAbGmKEVKNaZe5u2IDmx49hYG2N0kOHMNTXFxbdZIiYe3oi6KeftLnJGmsoLUXBli0wGDoUL6qqcHPVKnjFx8v1P2KCXYb29pJ+Hsow5RetNTUwkioTBYAWBd/fGL1dI3YP3xOY7e8QieTKRXqi6nGtLnXPA10jI+iwWEqzbqSpu89eJkVr2sqsqVRJGMfICC3oPGa6PuhjjiOOdB8L5nqq4MZLWaaMqtQ9rquzsjoDLdOnY0JUlMy/qVJa1tNxzRji4wMDa2s8Sk6Gy9q1KD95EgDkevv8fPQoflFwT9XVoJEjMVpBb9Le6Ol6/TAhAcK6OryxYQOGdcma1Ea/Oj3xeaA7aJDa535v9dX3TerBoyIPj86gzrlz6t/cs1idFw+RSHmgxsioA+3tQE2N7OuKi/vfTaI6Vq9eDQsLC+zZs0cmhd/d3R1CoRA//PBDr97X0NAQfn5+OHbsGNzd3VFUVKSwJ0VRUZHc+HGmNEn6aS3T0PeOOFVVWmFhIVpbW2Wa/mrDyJEj8dlnn0kCPle6jH7UZI3eeOMNtLW14edu0puB30rVFH3mAgWjA5kSCSbzSNuY5rbnNWhGqExlZSWEQiHefPNNuS8A169fV5oRwfR+6SnDR9Pj+lXTZI1UpekaDRkyBLNnz0ZaWhrYbLbceSONKd+RHsndE6YUs2vpzx+ZJuc+c+6ocuyMGDEC3t7euHDhAq5cuYK8vDzJ+Pfu3O1Sc19XV4fy8nKYmZlJvjSNHTsWBgYGyMvLQ7UK/UiuX7+OpKSkHn8ua7H/QE+YJ8ctCh5CNJaWKv2/zI1Qm4qlOjriwKuy7BhN1BUWyv0d06NEupFsc0UFOIMHy93UtjU0oE7LI2slT+FVOE6fpKWhobQUDiEhSrNMGI9PnUL5f/4D2xkz4JuYCI6pKW6uWoXWbvrJ9Tei5mbkLl2KDpEIfzp4EKM+/RTPrl1DUXS03GsHi0u+BeJJnj1hykTqFVyj66Wa/78sJqNHg6Wvj9r8fLSouX9UPa6lMZk4ysro1D0PdNhsmI4di/YXL1Cjwo2vuvvsZapTcAw8Z9ZUKouKOY4U7YM68ffZQVLrx2TQtXR5+NPR1obG8nINt1r945oZW2+hYEqsKoEWVemwWHD4618h/PVXPE1Px+NTp2BgbY0hUgNhAKDm1i1Upqb2+FOtwoMQbWEag7+mYI1+1bB/JvDbefC0m0EufaGvvm9SgEdF8+a1Qk+vA3Fx+sjLkw+43L7N7jb4w5R0PXigPFDj5NT5peL06d+isLW1OoiLe3XNm7XB0NAQn3/+OZqbmyWjqgFg8eLFADrLQbo2zW1vb8eZM2dQ2OVCffnyZbkb7IaGBggEAnA4HLkpVABQX1+PeKk6baFQiO+++w4AJGN8gc4bAEdHRxQUFMg1C2VGUAcHB6v6sRUqKiqSNH2V9pP4KVTXsqjerBHDx8cHABRmNTGYkcP79u2T6bdx8eJFuf47ADBv3jzo6ekhLi4OeQq+NNy+fVuj4I+3tzecnZ1x8+ZN7N+/X+7fKysrZablqMve3h5sNht5eXkyn7epqQlfffWV0v/LYrFgYWGB8vJypb1PNNln/YEma6QqddeotrYWN2/elHufsrIyiEQiheWEDOY8UKd5NnPOTJo0SaXXb9iwAQsWLJCbjPd7osm5z5R0dW06350FCxZAKBRKJh9211yZwZTqMqKjo9Ha2or3pKbfcLlczJ07F42Njfjyyy/lfo80NTUhOjpaUpYWFxeHurq6Hn/6KhitCEtfH1w7OzwvLkaDVECnrrCwx0aXxuInyDUKziNFDMSp+g1STUO1qezECZmn5M9yclBz+zaMhg2T6WNixONBWFuL+i43sYU7dqBNy1lLzDj0hp6yQjo6ULR3L1j6+hj1ySc9vm9DSQnu/POfMOLx4LZpE/QtLTFu2za0VFfjxsqVWimf6mv5GzfieVERxoaFwWTMGDivWIHX3N3xICoK1dnZMq/lzZkDHQ4HZceOyTU8BTpvtp9KBRLsxFMhfz56VOaYEFy4gMaysr75QEqwuVzwxGUg+V9/LVfyIWpqQsnBgwr3m6rHtTQjccn5r0rOzd6cB0xfqLsREXKvEdbXS4IegPr7rKt727fjxrJlKBFPYdSmhydOSErIgM4b+Wc//ghDHg+DpaYV2YgnSpYcOCCzz+rv34cgPR0cU1OZjDkm4FZ1+bJMT6OyhAQIFWQNqUvd45ppjP6sS/PuxocPUXLokMbbI403Zw50WCzcjYhAS3U1HMR/lua+axeCfvqpxx/v77/X6rYpw6xR1wbnT9LS5NatN8w9PTHI0RG1d+/iZwV9QJsFAjzU4udtbW3FnTt34OjoKGm2rC1UoqUie/sOxMS8QGgoF1OmGGH69DY4OYlQX6+DnBw2CgrYWLOmBf7+8k+7/P3bkJzMwaJFBpg3Twhz886Az6xZQknpFwDMnSsEn6+HVasMkJnJxqBBQHq6LpycRCgtHdixuMWLFyMyMhL//ve/sWzZMjg4OCA4OBhZWVk4cOAAPDw8EBAQACsrKwgEAmRkZKCyshKnTp2Ci1TDtE8++QQ6Ojrw9vaGg4MDmpubkZqaisrKSixdulRh/xUej4f169fj2rVrsLOzQ2ZmJvLz8+Hj4yMzIh0Adu3ahVmzZuGDDz7AzJkzYWNjg6tXryI3Nxdubm5YIh4F2FtZWVlYtWoVvLy84OzsDDMzMzx48ACpqakwMzPDgi6p3r1ZI0ZQUBAiIiKQnp7ebXmDh4cH5s+fj/j4ePj6+uK9995DbW0tEhIS4ObmJpfZY29vj5iYGISGhmLKlCmYPn06nJycUF9fj5ycHBQUFGDNmjU9NjruDovFwqFDhxAYGIi1a9ciMTERnp6eEIlEyM/PR1ZWFiZMmNBtP46ecLlcLFy4EHFxcfDx8cG7774LkUiElJQUWFpawsLCQq6hsLRp06aBz+dj5syZePfdd2FkZAQul4v3pcbjarLP+gNN10gV6q5RVVUV/vKXv2D06NEYP348bGxs8PTpUyQnJ4PFYmG5kvRgDw8P2NnZ4dKlS0rLFaWlp6eDy+WqXCZ48eJFFBQUoK2tDZ999plqi6Bl+fn5yJeaKML0EUpISJD8naura6+fEmly7vv7+yM5ORmLFi3CvHnzYC5uTjhr1iyFmTmBgYEwNzeXTG7785//3O12cblc5ObmYtq0afDy8pIE6C0tLeVKpyIiInD79m0kJibi1q1bmDp1KrhcLkpKSnDp0iU0NDQgNDRUblJbf+Iwezbu796NrL/9DdZTp6KtsRGCS5dg7umJZ0qepFq+/TaMeDyUxMejpaZGMllk2Ny5CntuWHh7Q4fNRtHevRDW1cHQzg5gsWA+YYLMU/CqzExJlgPTdLbp8WM8Ek9oBIAhkybBoEv6OUtXFxkBAbCeOhUtz55BcOECdNhsuIaHy7xu5MKF+DUvD1nvvw+7oCBwBg1CdU4OGsvK8JqHh9KbYnVZ+fnhSVoabqxaBYc5cySZObYzZsj02HmSno76+/cx7MMP5T5XV6KmJuQuXYr21lZ4fPutJFtjqJ8fRi5YgJLDh/EgMrLHvjHapO4+e5SUhPKTJ2H1zjsYLp5IqqOrC49vv8XlwEDkrV4N35QUyesNbW0xbutW3Fq7FlfnzIHV5MkwHjECwoYG/HrjBurv34fjkiWSZrdm7u6wDQpCxenTyHzvPQz19YWwoQEVp0/DyMEBjQ8fvrS1Ybh8+SVqCwpQefYs6goKYOnrCzaXi8ayMlRdvQpRUxNG/P3vQJdrharHtbThc+eijM/HzTVrwJs5ExwTE7C5XIwSPwgBence2M+ahWc//ohHSUn44Z13YDV5MvTMzPDi6VMIfvgBTv/4B0xffx2A+vusq6eZmai/fx8dIhFGqliyqCqWnh4uBwbCeto0CGtqUHn+PHRYrM41lfp9bhMQgPLERFRnZeGyeBpTW309HqekoKO9HW9s2CAzIt3Q1hYWXl54lpODy0FBsPDyQtOjR6j73/9gMmaMXDBNXeoe1+aenjB1ccGT8+dxbe5cmLm7o+XZM1ScPYshXl4QaDErnGtlBUtfX0mmCq/LvVB/NSwkBKVHjqBg0yb8cvMmjIcNw/PiYgjS0zHUz0/jzBsdFgseu3cje9485EdEoOLsWZi5u6NDJEL9vXv45ccfYTZuXLej6tV19epVtLa2SqbHahMFeNQwZ44Qjo4iREXpIztbF+fO6cLUtB3Dh7dj3boWhIQonsQVEiLEkyc64PP1sHWrPoTil3l7t8kEeN56S4S9e5uxfbs+UlI4sLNrx+eft2DcuHZcujSwd5WxsTGWLFmCzZs3Y8uWLYiNjQUA7Ny5E76+vjh8+DBSU1PR2NgIS0tLuLi4YPXq1XJTU9atW4cLFy4gNzcXKSkpMDExgZOTE8LDwyXZKF25urpi27Zt2LRpE1JTU2Fubo4lS5bgq6++kvsiP2nSJJw7dw7btm3DuXPn0NjYCBsbGyxbtgxr1qxR2MxTHT4+PggNDcW1a9eQlJSE5uZm2NraYsGCBVixYoXCBrjqrhFj1KhR8PPzQ0pKChoaGmT6DUnbtWsXeDwe4uPj8d1332H48OGIjIxETk4O7ty5I/eZ58yZA0dHR0RFRSE7Oxvnzp2Dqakphg8fjnXr1iEkJESjNXJxcUF2djYiIyNx/vx57N27FwYGBrCzs8OiRYswW8Oxsps3b4aNjQ34fD5iY2NhYWGBwMBAhIeHY/z48XLlfNK2bNkCDoeDtLQ0/Otf/4JIJIKlpaVMgAfo/T7rLzRZI1Wps0Y2NjYICwtDVlYW0tPTUVNTA0tLS/j4+GDlypWYoCBdl8Fms/Hxxx9j48aNyMzMxNvdNAZllJSUIDc3Fx999JHKvYbqxU8XeWqMxtS2M2fO4JtvvpH7e+mgdFhYmEZpwL0990NCQvDkyRPw+Xxs3boVQvEvQW9vb4VrrKenh+DgYBw4cAAffPCB0qAch8PBqVOnEBYWhtjYWHA4HAQFBeHrr7+WeyJmbGyMtLQ07N+/H4mJiTh69Cja29thbW2N6dOnIyAgQOMea33NMTQUbQ0NeJiUhEfJyTAZPRoToqNRm5+vNMDD0tPDxH37kB8Rgcq0NMkTa2t/f4UBHuNhwzAxJgYP9uxB6bFjaBcHDN+IiJAJ8BTv24dfrl+X+b+1d+/illQWwFt8vlwg5M0tWzrH7CYmor2lBaYuLhi9fLlcY0trf39MiI5GUWwsHv33v2BxOLDw9ITHzp14EBmp1QCPfXAwXjx9ivLERDyIipJkAVh4esoEeIpjYqCjq6tS9s7djRvxvLgYLl98IZn2w3BeuxbPrl9H0Z49MB8/Xq5Eoq+os8+eFxfj7oYNMBg6FOO6XF+4trZw27wZN5YuRd6KFfA6ckRS2mcXFATjESNQcuAAfrl+HYJLl6BrYgIjHg+jly+HvVT2NNDZ3HfQiBF4ePIkyhISYGhnB7dNm1BXWIhSDbJ2e0vXyAjex4+j9OhRVJw509mnpL0dBkOHwmryZFhPmaKw6bCqx7U045EjMTEmBoU7d+LnY8fQIRKBM3iwTICnt+fBuG3bMMTbGw+//x4VqakQvXgBQxsb2AcHw7ZLMF7dfSZNKB5Y0tMUp95w27QJFWfP4lFSEkTNzTBxdsaYZctg2SXDVofFgue+ffgpLg6PT5/Gz/Hx0OFwYObmBsdPP1V4fo3/9lvcDg9HdVYWKpKTYTZhAry//x53tJStrM5xzeJw8KdDh3Bv505UXbmCX/LyYMTjYczKlbDy89NqgAcA7IKD8TQjAxZeXuD2MHG3v+Da2cH7xAnc27ED1dnZeJqRAVNnZ3jGxaFZINBKaZXJ6NHwO3MGJXFxEGRkoDQ+Hmx9fXBtbDDsww9hO2OGFj5Jp+PHj4PNZss93NcGnbq6ulc3+omQPlReXg5XV1cEBATIPMX+I7ly5QoCAwOxfft2SVmMqt5//32kpqbi3r17ciPuCRlIampq4ObmBl9fXxw9elTpa9evX4/Y2FhkZ2er1HPr0aNHeP3118HlcnHnzh0MHTpUW5v9hzZ58mTcunULBQUF3V5/XF1dUVtbq7DslfRPt774Ao+SkvB2SgpMnJ1f9eaorerKFfzfwoXgzZ6NNxUEVMkf00A/rjXRXFGBi76+YBkY4J2MjB6z2kj/cG/7dhTv2weP3bu1GrQgqqmuroarqytmzJiBAwcOaP39+28eMiFEY5MmTUJAQAB27NjRbd+YWgW1xpWVlcjIyICLiwsFd8iAZ2ZmhrCwMKSkpMiUMXUlEAhw8OBBLFy4UOWG6hniJ0ZLliyh4I6WZGdn48aNG/D396frD+lXimNioMNiwVHDcm1Cfi+qxD2YRsyfT8GdAUJYV4ey48fBee01WE+d+qo35w9p586dAICNGzf2yfv371xkQojGvvnmG/D5fJSXl8tMDZP+9/T0dEyePBkODg6oqqoCn89HW1sbtmzZ8gq2mBDtW7x4MZqamiAQCLotUyovL8fy5csRGhqq8vtmZmbC1NQUK15iD43fq6ioKAgEAiQkJEBXVxdr1qx51ZtEiIy3Tpx41ZtASL/y7No16A4aBEc1s8TJy1eRmorn9+/jycWLENbXY+z69T2OJifa19HRASsrK+zfvx+2fVDWCFCAh5DfPR6PJ9dsVJqvry8KCwtx8uRJ1NbWwtjYGJ6enli7dq3S3iaEDCSqBAwmTpyIiRMnqvW+Bw8e1GSziJRt27ahsbERo0aNQnR0NNzd3V/1JhFCCFHCY/fuV70JREUVp09DkJ4OfQsLjFm1CiN7mFBJ+oaOjk6fPxSkHjyEEPKKTJs2Ta3XHz58mEpWCCGEEEIIIQpRgIcQQgghhBBCCCFkgKMmy4QQQgghhBBCCCEDHAV4CCGEEEIIIYQQQgY4CvAQQgghhBBCCCGEDHAU4CGEEEIIIYQQQggZ4CjAQwghhBBCCCGEEDLAUYCHEEIIIYQQQgghZICjAA8hhBBCCCGEEELIAEcBHkIIIYQQQgghhJABjgI8hBBCCCGEEEIIIQMcBXgIIYQQQgghhBBCBjgK8BBCCCGEEEIIIYQMcBTgIYQQQgghhBBCCBngKMBDCCGEEEIIIYQQMsD9PxTyj9ZD0oo4AAAAAElFTkSuQmCC;imageBorder=default;" parent="1" vertex="1">
                    <mxGeometry x="80" y="160" width="794" height="68.71" as="geometry"/>
                </mxCell>
                <mxCell id="3" value="python (backend)" style="text;html=1;align=center;verticalAlign=middle;resizable=0;points=[];autosize=1;strokeColor=#d6b656;fillColor=#fff2cc;" parent="1" vertex="1">
                    <mxGeometry x="80" y="130" width="120" height="30" as="geometry"/>
                </mxCell>
                <mxCell id="4" value="" style="shape=image;verticalLabelPosition=bottom;labelBackgroundColor=default;verticalAlign=top;aspect=fixed;imageAspect=0;image=data:image/png,iVBORw0KGgoAAAANSUhEUgAAA1MAAACsCAYAAACelPbNAAAABHNCSVQICAgIfAhkiAAAABl0RVh0U29mdHdhcmUAZ25vbWUtc2NyZWVuc2hvdO8Dvz4AAAApdEVYdENyZWF0aW9uIFRpbWUATW9uIDAzIEZlYiAyMDI1IDA0OjQ5OjU2IFBNSNSgYQAAIABJREFUeJzs3XlYlFX7wPEvw74Ou4osgojgFpj7vpW7VuaSmktZapalbVpvpvaab2m2WFpi8nPX1BZRwdwVNXcUc0FBRREQVFD2Zeb3B87EOIAwIGjen+viSp45z3nuOc8wnXvOMkZpaWlqhBBCCCGEEEKUi6K6AxBCCCGEEEKIx5EkU0IIIYQQQghhAEmmhBBCCCGEEMIAkkwJIYQQQgghhAEkmRJCCCGEEEIIA0gyJYQQQgghhBAGkGRKCCGEEEIIIQwgyZQQQgghhBBCGECSKSGEEEIIIYQwgCRTQgghhBBCCGEASaaEEEIIIYQQwgCSTAkhhBBCCCGEASSZEkIIIYQQQggDSDIlhBBCCCGEEAaQZEoIIYQQQgghDCDJlBBCCCGEEEIYQJIpIYQQQgghhDCAJFNCCCGEEEIIYQBJpoQQQgghhBDCAJJMCSGEEEIIIYQBJJkSQgghhBBCCANUSjK1aZMJSqUds2ebV0Z1WmvXmtK2rQ01a9qiVNrh4mJbqfWLx09GRgZhYWEEBwfz9ddf8/XXX3P48OHqDuuhCwkJwd7ensjIyBLLfPDBB3h4eJCcnFyFkQkhhBBCPLlMqjuAkhw8aMzrr1vi5aViwoRcrK3VmJoaVXdYT4y4uDg2bNhA06ZN6dixY3WHoxUeHk5cXBz+/v44OTkB4OHhUc1RPVxpaWn897//pX///gQGBpZY7v3332fFihXMmDGD77//vgojFEIIIYR4Mj2yydTWraYAfPttNp0751dzNOJRkJ+fT1xcHG5ubvTs2bO6w6ky33//PSkpKUyaNKnUci4uLgwfPpzg4GDefvtt6tWrV0URCiGEEEI8mR7ZNVMJCYWjUDVqqKo5EvGoyMjIAMDKyqqaI6k6ubm5LFmyhAYNGpQ6KqUxdOhQVCoVP//8cxVEJ4QQQgjxZDNKS0tTl+eE334z4euvzTl/3hilUs3Agbk8/bSK0aMtmTIlh6lTc3TKJyYqmDvXjK1bTUhMVGBjo6Zt23ymTs2lYcMCnbLvvWdBcLBZidc2M1OTnHy3POHqyc7OZt++fcTExJCXl4erqysdO3Zk27ZtJX76n5SUxOHDh4mPjycnJwdra2t8fHxo3bo1lpaW2nJZWVn8+OOPeHh40KVLF/bs2UNCQgIqlQovLy+6dOmCtbW1Xv0ZGRkcOnSIS5cukZGRgampKe7u7rRu3RpnZ2e98snJyaxYsQJ/f386d+5MREQEMTExZGdnY2trS4sWLWjUqBEAd+7cISoqiri4ONLS0sjNzcXCwgJPT09atmyJg4ODzvNctWpVqe3n5+dH79699Y5HR0cTGRlJSkoKeXl5ODg40KBBA55++mmMjAyfnqlp09K0bduWFi1a6Bw7fvw4e/bsoVu3btSqVYuIiAiuX7+OSqXCwcGBrl27UrNmTQASEhI4c+YM169f586dO6hUKmxtbfH19aV58+aYm/+zFjAyMpJdu3bRpk0boqKiyM7OplmzZnh4ePDnn3+SlZVFQEAAnTp10nneBQUFHDt2jHPnzpGWloaRkREuLi40a9aMunXrlvjc/vjjD0aMGMG0adN49913y9RmQUFB3Lx5k9jYWExMHtnBZyGEEEKIx165elorVpgxYYIFzs4qRo/OwdjYiHXrzNi8ufjy584p6NvXmtRUI/r0ycPHJ4+EBCN+/92U7dtNCQ3NoHnzfxKqIUPyaNq0cCRqyRITjhwx4ZNPcnBzK8z3jI0NfJb3FBQUsH79epKTk3F3d6d27dqkpKSwYcOGEjud0dHRhIWFYW5ujq+vL5aWlty8eZNTp05x5coVXnrpJSwsLHTOyczM5JdffqFGjRr4+/tz9epVLl68SHZ2NgMHDtQpe/PmTdavX09OTg5169bF3t6e9PR0Lly4wOXLl3nxxRepVatWsbGpVCrWr1/P3bt3qV27NgA3btwgPj5em0xduXKFo0eP4u7ujp+fHxYWFqSlpXHhwgViY2MZNGiQNmFTKpV0794dgJSUFI4dO0adOnWoX7++9ppKpVIvjl27dhEZGYmTkxMNGjRAoVAQHx/Pvn37SEhIoG/fvmW5PcUyMzPTxpSZmcm+ffuoUaOGziiNq6trieenpaWxb98+LC0t8fLyIicnh4SEBG7duqVNpiIjI4mNjcXDwwMPDw9MTExITk7myJEjxMbGMnToUL3Xx6lTpwgICODcuXMcPHiQU6dO4e/vT0JCApGRkXh5eeHj4wMUTk9cv349CQkJeHh44OPjQ15eHrGxsWzcuJFOnToRFBRUbPw7d+4EoFWrVmVus5YtW7J69WqOHz+ul2TeLyoqinbt2gGwdu1aevToUebrCCGEEEI86cqcTGVmGjF1qgUWFrB7dyYeHoVJz4QJOTRrZqNXXq2GV1+1IicH9u3LwN//n6Rp8uRcOnSw4YMPLNi1K0N7vFmzApo1Kyy3a5cxR45Ar155NGhQOVP9Tpw4QXJyMg0aNNB20AH27NnD8ePH9cqnp6ezdetWnJ2dGTRoEKamptrHzp8/z5YtWzh8+DAdOnTQOe/mzZt07txZ2+EvKChg2bJlXLt2jTt37mBnZ6ctGxYWRkFBAcOHD8fR0VF7vEWLFqxcuZJdu3YxdOjQYp9PbGws7u7uDBo0CDOzwhE9lUrFzZs3tWW8vLx4/fXXdUbQAK5fv87atWs5cuSIdv2RhYUFDRo0AAo3oDh27BiOjo7aY8W5ePEikZGRNG7cmG7duuk8tn37dqKiorh06RLe3t4l1lEaY2Nj7fVTU1PZt28ftra2pcZU1IkTJ2jWrBmtWrXSjhTl5OSQlZWlLdO8eXOeffZZjO/L1g8fPsz+/fs5e/YsjRs31nmsdevWNGrUCEdHR7Zu3Yq3tzcdOnQgNTWVkJAQrl+/rk2mNEllz5498ff319bRvn17Vq9eTUREBP7+/nr3CODAgQMAJSZbxWnatCmrV6/mwIEDD0ymhBBCCCGE4cq8Zmr7dmPu3IG+ffO0iRSAm5uagQPz9Mrv32/C6dMK+vfPw8FBRVKSkfbH1lZN8+b5HD9uTEpK1e3Qd/78eQCaNWumc/zpp58utnxUVBT5+fkEBgaSm5tLRkaG9sfd3R1TU1MuX76sd56FhQVNmjTR/m5sbEydOnUAdBKda9eukZycTL169TA3N9ep38zMjFq1apGUlKTT8S9KrVbTtWtXbSIFoFAocHFx0f5uZ2en7aQXFBSQlZVFRkYGSqUSMzMzEhMTS2mxBztx4gRGRkYEBQXpxJ+RkaHdAOHSpUsVukZF2NnZ6SRSAObm5tjb22t/d3Z21iZSeXl5ZGZmkpGRoR0RLK6NNCN0tra2Or9rEmXN+q78/HxOnz6No6MjHh4eOu2Tk5ODr68v+fn5XLt2rdj4r169io2NTbnWiWlG3EqqsyhTU1NcXV1xdXXVG2EVQgghhBClK/PI1PnzhZ3NRo30R4kaNy7QO3b0aGH5ZcvMWLas5HVQSUlGODuXa9mWwVJSUlAoFNottTVsbGywtLTUS1o0neg///yzxDo1neai7O3tUSh081RNZzgv75/EU1P/6dOnOX36dKnXKG7UwsXFRWeUqyQnT54kKiqKlJQU1Grdtq7omprExETUajXLli0rsUxxbVRVfHx8HrhmKzc3l7/++ovo6Gju3tVfk5ebm6t3TNNumv9qRi0VCgVGRkbk5xfuQJmSkkJ+fj63bt1i0aJFJcZQXBtlZWWRlZWFu7t7qfHfT5MoFk3cS+Lv78+FCxfKVb8QQgghhChU5p50RkZhh9TBQT/xuS83ASA1tfC/b76ZW+rW5l5eVZNIFRQUoFKpSvyEv7hkKiencDON7t27l3je/UkToDMd8H5Fk5ns7GygcGTM09OzxHOKW6cE/4yKlEYzhdHJyYmOHTtia2urTQDCwsJQqQyfQllQUEB+fj6WlpalrrUpbtONqvKgZFOtVrNhwwYSExOpU6cOLVu2xNraGoVCQXp6Otu2bStTG92fpGrO0byGPD09SxwBBfQSfCgcQVMoFNrXSVlpyheXgAshhBBCiMpT5mTKxqaws1jch903b+p/8q+ZRWVnp6Zbt+r/nihjY+NSO6bFTaXT7OJmZ2dX7tGBstBMqzIzM9NOAyyP+9f43C8vL4/IyEjs7Oz0NlFQqVTk5OTo7FRnyPVNTEzIycnBy8urQrv2PSzFJbtFXblyhcTEROrVq0efPn10Hrt69WqFr69pX5VKVe57rFAocHR0JDU1FbVaXeb2vX37NkCxO0EKIYQQQojKU+Y1UwEBhVP5zpzR78BHRekfa9q0MIHauvXR2ZrZ2dkZlUrFrVu3dI5nZGQUm0xp1p7ExsY+lHhq1KgBPLw1RXfv3kWlUuHq6qo3nS8hIUFvNKUoTce9tDJQ+BxUKlWxa8ceB3fu3AEoNlmOj4+vcP3Ozs6YmJiQlJREZmZmuc9v0qQJ+fn55XqNnDt3TnuuEEIIIYR4eMqcTHXunI+dnZpNm0y5cOGf0+LjFaxbp58wtWtXQECAimPHjFm0SH/N1PXrRixdWvJaqodBs8X34cOHdY4Xt5MfQMOGDVEoFJw8eZKkpCS9x2/cuFGhRMvd3R0nJycSExOJjIzUezw9Pb3UtVQPYmdnh5GREUlJSTprtfLy8tizZ0+p52qmNd6feN5Ps2Ph3r179RJStVpNTEwMKSkphoRfJTTri+4fhUpNTeXYsWMVrt/ExIQGDRqQl5fH7t279aYM5ufnc+zYsRKT1vbt2wNw5MiRMl9TU1az5Xlpzpw5g7e3N97e3uzYsaPM1xBCCCGEEOWY5mdlBbNmZfPWW5Y884w1ffvmY22tZt06E2rWVBMTozsFSaGAJUsy6dvXivfft2DDBlNatsynoACiokyIiDCmefMCRo7UX9z/sAQFBXHu3DnOnj1Leno67u7upKSkcO3aNWxtbfU2H7Czs6N79+5s3bqVNWvW4OPjg6OjIzk5OcTHx5OSkkKLFi20W2CXl5GREb169WL9+vXs2rWL8+fP4+bmhkqlIiUlhatXr1KrVi3td0aVl4mJCU2aNOHkyZOsXLkSHx8f1Go1Fy9exMrKCktLyxI78Y6OjiiVSq5cuUJ4eDg1a9ZEoVBgb2+vs77Lz8+Pa9eucfLkSUJCQqhbty42NjZkZGRw5coV0tPTGTBggEHxVwV3d3dcXV25ePEi69evp1atWmRmZnL+/Hk8PT2JiYmp8DXat2/PjRs3OH/+PElJSXh7e2NiYsLt27e5cuUKeXl5BAUFFTuNr1+/fsycOZPt27czePDgB14rLS2NI0eO0LJlS+3IamkKCgq0CXPRhFsIIYQQQjxYuebgjRiRh60tfP21OWvWmODgAMOG5RIUpGLUKP3F7g0aqNi/P4PvvjNn61YTFi40w8IC3N1VjBmTy4svVm3nzdjYmBdffJF9+/YRExNDQkICrq6uPP/884SHhxe7vsbf3x8HBweOHTtGfHw8sbGxmJubo1Qqad26dZm/76gkzs7OvPzyyxw9epRLly5x/PhxTExMsLW15amnntL5XiJDaDad+Pvvvzlx4gRWVlb4+vrSrl07QkJCKCjQ34kRChO9/v37s2/fPmJjYzl79ixQmDzdv1lGly5d8PT05NSpU8TGxpKXl4eVlRXOzs60aNGiTJ366qJQKHj++efZv38/ly9fJj4+Hnt7e9q0aYOPj0+lJFNmZmYMGjSIyMhIzp8/z+nTp1Gr1djY2FC3bl3q1q1b4touX19fOnfuTGhoKOnp6djY6H+nW1G///472dnZjBkzpsJxCyGEEEKI0hmlpaVVzXZ6j7gffvgBKysrRo8eXd2hCKFj79699O3blzlz5vD666+XWrZjx47cunWLY8eO6Xz/mBBCCCGEqHxlXjP1b6HZqrqoCxcukJuba9COekI8bB06dKB3797MnTu3xC9wBti0aRORkZHMmjVLEikhhBBCiCrw6Gy1V0XWr1+Pqakpbm5uWFtbc/PmTc6cOYOVlRUtWrSo7vCEKNb//vc/Vq5cSVxcnHYjlftlZ2cza9Ys+vXrV8XRCSGEEEI8mZ64aX5Hjx4lOjqa1NRU8vLysLS0xNvbm9atWz9wPYoQQgghhBBCaDxxyZSoHsnJyezcubPM5a2srOjbt+9DjEgIIYQQQoiKkWRKCCGEEEIIIQzwxG1AIYQQQgghhBCVQZIpIYQQQgghhDCAJFNCCCGEEEIIYQBJpoQQQgghhBDCAJJMCSGEEEIIIYQBJJkSQgghhBBCCANIMiWEEEIIIYQQBpBkSgghhBBCCCEMIMmUEEIIIYQQQhhAkikhhBBCCCGEMIAkU0IIIYQQQghhAEmmhBBCCCGEEMIAkkwJIYQQQgghhAEkmRJCCCGEEEIIA0gyJYQQQgghhBAGkGRKCCGEEEIIIQwgyZQQQgghhBBCGECSKSGEEEIIIYQwwBObTIWEhODt7Y23tzeZmZkPLH/mzBlt+R07dlR6eSGEEEIIIcTjxaS6A6guWVlZ3Lp1CwCVSvXA8gUFBdryeXl5lV5eCCGEEEII8Xh5YkemhBBCCCGEEKIijNLS0tTVHYQQQgghhBBCPG5kZEoIIYQQQgghDCDJlBBCCCGEEEIYQJIpIYQQQgghhDCAJFNCCCGEEEIIYQBJpoQQQgghhBDCAJJMCSGEEEIIIYQBJJkSQgghhBBCCANIMiWEEEIIIYQQBpBkSgghhBBCCCEMIMmUEEIIIYQQQhhAkikhhBBCCCGEMIAkU0IIIYQQQghhgCc6mTp69Ch9+vShTp06KJVKlEolR44cqe6w/tU2bNiAUqlk/vz5VXK9xMREXnvtNfz9/bG3t0epVDJv3rwSy+fm5vLf//6XwMBAnJycUCqVvPDCC1US66MqKSkJpVLJoEGDqjuUahUSEoK9vT2RkZEllvnggw/w8PAgOTm5CiMTQgghRHUxqe4AqktaWhqDBg0iOzubl19+mRo1agDg4eFRzZGJyjR27Fh2797NoEGD8Pf3x8jIiPbt25dY/rvvvmPOnDm0adOGl156CVNTU7y9vaswYsPl5+fj5OREYGAge/bsqe5wDPLZZ58xd+5c1q5dS48ePao7HK20tDT++9//0r9/fwIDA0ss9/7777NixQpmzJjB999/X4URCiGEEKI6PLHJ1JEjR7h58ybvvvsu06ZNq+5wxEOQlZXFnj17aNmyJcHBwWU6JywsDBMTE3799VcsLS0fcoTicfH999+TkpLCpEmTSi3n4uLC8OHDCQ4O5u2336ZevXpVFKEQQgghqsMTO80vMTERgJo1a1ZzJOJhSUpKQq1Wa0cdyyIxMRE7OztJpIRWbm4uS5YsoUGDBqWOSmkMHToUlUrFzz//XAXRCSGEEKI6PVHJ1B9//KFdGzVhwgSgcFqO5lhJa6YWLFiAUqlk6dKl/P333wwaNAhPT0/c3Nzo2LEjR48e1ZZdv349o0ePJjAwkJo1a1K7dm26dOnC4sWLKSgo0Kn35ZdfxsXFhW+//RYPDw/8/f0JCwsjODgYb29vAgICWLFihV48iYmJvPfeezRu3BgXFxe8vb0ZPnw4f//9dyW32MOjUqlYsGABgYGBuLi40KxZMxYsWIBardYpd/PmTZRKJf369dOrY86cOSiVSjZs2KBXXqlU8tRTTwGwceNGnXt8/5qpVq1aaR+7du0at27d0ilf3JqpnJwc5s2bR+vWralZsyZubm50796dzZs3l/icNfdYpVIxb948goKCcHFxwc/Pj/fff79c7VeUm5sbSqUSJycnACIjI3XiL2l0ZP369XTr1g03Nzdq1qxJhw4dCA4O1rsHRW3fvp1OnTpRo0YN/Pz8+OCDD7h7965OmRkzZqBUKlm1alWxdcycOVP79wQwf/58baxz584FYPDgwTrPYcmSJXr1lPceJCUlMWXKFJo2bUrNmjXx8vKiXbt2fPLJJ+Tk5JT4nMPCwkhJSeHFF18ssUxRgYGB+Pj4sGrVKvLz88t0jhBCCCEeT0/UNL+mTZuycOFCACIiIli5ciWDBg2ic+fO2jKlrY+5dOkS//nPf3BycqJr166kpqZy9OhRoqOjadasGQD/+c9/MDU1pXnz5nh6epKbm0tERATvvvsukZGReusocnNzCQ0NZcSIESxatIjXX38de3t7Ro4cyYYNG3jnnXfo1asXjo6OAJw7d46+ffuSmppKnz598PHxISEhgd9//53t27cTGhpK8+bNK7vpKl1ISAg3b95k0KBB2Nra8vvvvzN16lQSExOZOXOmwfXa2Nho73FycjLTpk0jKCiI119/XVtGk2RpfPLJJ6SlpQEwdepU8vLytJ16gFq1aumUz8zMpF+/fhw5coSOHTvSvXt3MjIyCA8PZ+jQoXzxxReMGzeuxBjfe+89li9fTps2bXjqqae4cOEC4eHhzJkzx6Dn/M0335Cfn49KpWLChAl4enoydepU7eMWFhZ658ydO5fPPvuMGjVqMGLECExNTQkNDeW9997j7NmzxW7ScfbsWV566SX69OlDt27d2L9/Pz/99BORkZGEhYVhbGwMwKhRo/j6669ZunQpQ4cO1alDpVKxdu1arK2tGTBgAADPPPOMNhH8448/CA8PZ/z48TRp0kR73v2v6fLeg5ycHHr06EFsbCw9evRgwIABZGZmcvbsWX744QfeeecdzM3Ni23fnTt3AoVJd1m1bNmS1atXc/z4cVq0aFHm84QQQgjxeHmikikPDw9t5y4vL4+VK1fSvHlzvQ5fSX788UcmTpzIlClTUCgKB/VSU1O5deuWtszq1asJDAzEyMhIe0ytVvPCCy+wYsUK3nnnHXx9fXXqXbRoET4+Pty6dYtVq1bx1VdfMWjQIHx8fHjrrbc4ceIEXbt2Ra1W8+qrr5KTk8O+ffvw9/fX1jF58mQ6dOjABx98wK5duwxqn5CQEA4fPvzAcr6+vrz77rsGXUPj8uXL7Nu3j8aNGwMwadIkWrVqxfz58xk1ahQ+Pj4G1Wtubq69n7GxsUybNk3nvhend+/e2n/PnDkThUJRavlPP/2UI0eOEBwcrLPD3cyZM+nWrRvTp09n4MCB2gShqJs3b7J9+3YOHTqk8xxPnDhRrudZlCaG/Px8JkyYgKOjY6nxx8fHM3v2bOzt7dm7d692quuHH35Ihw4d+Pnnnxk6dKj2AwKNuLg4vSTlpZdeYsuWLaxevZrhw4cD4OXlRefOndm5cycXL17Ueb3v2rWLa9euMWLECGxsbADw9/fXvpZjYmIIDw+nU6dOpW5AUd57EBERQWxsLMOGDWPBggU6dV2/fh1bW9sSr3XgwAEAgoKCSixzv6ZNm7J69WoOHDggyZQQQgjxL/ZETfOrKE9PT51ECsDe3l6nUxwUFKRNpO7evUtycjI3btygTZs2qNVqjh8/rlOnkZERXl5eALi7uwNQp04d4J+dBZOSkgDYv38/p0+fpn///jg4OJCUlKT9sbW1pXnz5hw/fpyUlBSDnt+BAwdYtWrVA3/+/PNPg+ovqmPHjtpECkCpVDJy5EhUKhWhoaEVrv9hycrKYtmyZdSvX5+OHTvq3IM7d+7Qu3dvsrKyiIiIKPb83Nxcpk+frpcslqejXlGhoaHk5+czbNgwnTWDNjY22kTpt99+0zvPzs6OkSNH6hx78803Afj99991jo8YMQJAb5rqypUrgcLRK0MZcg800+1MTU316nNzc8PMzKzE6129ehUbGxusrKzKHKOmXa9du1bmc4QQQgjx+HmiRqYqqkePHjqJVHFiYmL4/PPP2bZtm3bqWFHp6ek6v5uammqnR2mmY2n+q+ngZWZmAmjXZi1btoxly5aVGENSUhLOzs5leUo6goODy7zrXUU1atSoxGPnz5+vkhgM8ffff5Odnc358+fx8/MrsZxmg5PiVPeW3+fOnQP0pzsC2ql1mjJF+fj46G3M0bBhQ0D/nvXp0wdnZ2dWrVrFJ598grGxMWlpaWzevJlGjRrx9NNPGxy/IfegVatW1KhRg6VLl5KYmEjXrl0JDAwkMDCw1EQqKyuLrKws7QcdZWVvbw8UjkQKIYQQ4t9Lkqly8PT0LPXxq1ev0rVrVzIyMhg6dCht2rTB0dERIyMjtm3bxo8//ljqgnTNiJbmv5rETaVSAYVTCqFwNKDoOq/7aUa6HmWaNWBFOTg4AJCRkVHV4ZSZJkHu1KkTb731Vonl6tevX+xxZ2fnco1wPAya9tW0d1GaaXH3J/1Q/D2zt7dHoVDo3TNTU1OGDRvGt99+y7Zt2+jRowfr1q0jOztbb3SrvAy5B0qlku3btzN79my2bt1KeHg4UDga99ZbbzFlypRi6zA3N0ehUJCdnV2uGDXlZVdIIYQQ4t9NkqlyKG6KUFE///wzt2/f5quvvmLMmDE6jx06dKjC19d82m1nZ0e3bt0qXN/9goODtetDSuPn56ezwYEhiq4z07h9+zaAzvqVomvP7nf/LnJVQalUAlBQUGDQPXjQa6gqWFtbA8WPmmiOadYzFVXcPUtNTUWlUmFnZ6f32KhRo/juu+9YtmwZPXr0YOXKlVhYWDB48OAKxW/oPfD09NRuThITE8PWrVv56quvmD17Nn5+fsXu2qhQKHB0dCQ1NRW1Wl3q67EozWvZkBFiIYQQQjw+JJmqRFeuXAGgTZs2eo8dPHiwwvU3bdoUgK1bt/Lhhx9WuL77HT58mF9//fWB5Vq1alXhZCoqKkrv2OnTpwF0NtbQdPyTk5P1yl+4cKFCMRiiYcOGWFhYcPz4cZKTk3FxcanyGEqiGcl80HbcmvY9efIkL730ks5jkZGROmWKunjxIpmZmToja5rt+IsbifPx8aFdu3b8+eef7N27l+PHjzNo0CBtMlQczZTX0p5DZdyDunXr8sYbb+Dr68vAgQPZu3dvsckUFE593LlzJ5cuXSrzxiiaaZJFdyQUQgghxL+PbEBRiTTbqt+/+cBHGcTbAAAgAElEQVQff/zBvn37Klx/u3btCAgI4NixYyxatEjv8evXr2u/u8cQwcHBpKWlPfBn69atFXkaAOzdu1fbcYfCZGnp0qUYGxvTt29f7XFzc3O8vLw4d+6cTvJ06tSpStkIo7wsLS0ZNmwYGRkZfPjhh3qd/szMTL7//nvt1MyKCgkJwdvbG29vb+3auZIoFAqcnZ2Ji4sjKyurxHJ9+/bFxMSEVatW6awrSk9P58cffwTg+eef1zsvPT2d//u//9P+np+fzzfffANQYiIyevRo8vLytCO1D9p4wtXVFSh93Zwh9yA6OpqrV6/q1XXx4kWg+CmMGu3btwco9jvoSqIp265duzKfI4QQQojHj4xMVaJRo0bx008/MWXKFP766y/q1q3L2bNn2bJlCz169NCu0zCUQqFgyZIl9O3bl/fff58NGzbQsmVLCgoKiIqKIiIigubNm1d4TUpV8PHxoXfv3gwcOBATExPCwsK4fv06kydP1lvzNXz4cGbNmkX37t3p27cv6enphIeH065dO3bv3l3lsc+cOZPIyEg2bNjAiRMnePbZZ7G0tCQmJoadO3eSnp7OuHHjHrhZSVlkZWVpp9eVJUHr3r07K1eu5IUXXqBXr15YW1tjaWmpMwJVu3Ztpk6dymeffUbbtm154YUXMDMzY+PGjcTFxfHqq6/qbYsOhdPkPv30Uw4dOoSnp6c2IW7VqlWJX2jbt29fnJycSEpKwtvbu9hR26K6dOmCiYkJX331FampqXh5eaFQKGjTpo3OaFl570FERASTJ0+mdevWBAQE4ODgwPnz59myZQsODg6MHj26xJj69evHzJkz2b59e5mmKKalpXHkyBFatmyps1uiEEIIIf59JJmqRJ6enoSHhzN9+nR27dpFeHg4jRs35pdffiE+Pr7CyRRAgwYN2L9/P9999x1bt25l4cKFWFhY4O7uzpgxY0rs1D5qRo4ciUKhYNGiRSQmJuLp6ckXX3zB2LFj9cpOnjyZu3fvsmrVKtasWUPDhg1ZtmwZx48fr5ZkysbGhrCwMBYtWsSGDRtYvnw5KpWKWrVq0bNnT3r37o2JSfX8ac2ePRtTU1PCwsL49NNPKSgowNXVVW8633vvvYeXlxc//fQTy5cvR61W4+vry9y5c/XW+2kEBAQwb948PvvsM20SMm7cOO1ufcUxMzPj+eefZ/HixQwdOvSBa458fHxYsWIFc+bMITg4WDvC9vXXX+skU+W9B+3bt2fcuHEcOHCAX3/9laysLGrXrs3o0aN55513tF9DUBxfX186d+5MaGgo6enpxa4nK+r3338nOzu7xHYUQgghxL+HUVpamrq6gxBC/Ht17dqVEydOcPr0adzc3Ko7HIPs3buXvn37MmfOHF5//fVSy3bs2JFbt25x7NixUrddF0IIIcTjT9ZMCSEemv3793P06FF69Ojx2CZSAB06dKB3797MnTu31PVomzZtIjIyklmzZkkiJYQQQjwBZGRKCFHp5s+fT2JiIqtWreLOnTts27ZNuxvl4youLk67Hq2k7xFbv349iYmJvPnmm1UcnRBCCCGqgyRTQohK5+HhQUZGBr6+vnz66af07t27ukMSQgghhKh0kkwJIYQQQgghhAFkzZQQQgghhBBCGECSKSGEEEIIIYQwgCRTQgghhBBCCGEASaaEEEIIIYQQwgCSTAkhhBBCCCGEASSZEkIIIYQQQggDSDIlhBBCCCGEEAaQZKocRo+2RKm0Izq6cprtzBkFSqWdzs/06RYG1bVpkwlKpR2zZ5tXSmxFvfLKK/j5+ZGVlaX3WPymTWz09SVm8eJKv251UOXmcm7ePHZ06UJo/fps9PXl4OjR1R2WEEIIIYR4BEkyVY1q11azcGE2CxdmM3FiTnWHU6y//vqLDRs28P7772NpaVmpdednZLDR15ejEydWar0VcXHxYqIXLMDC1RW/N98k4N138Ro4sLrDqlT7hwwh1M+PjCtXHkr95+bNY6OvL3Hr1z+U+u+XtHMnG319ubxqVZVcTwghhBBCQ5KpcvjooxzCwzPw8FBVSn1KpZqhQ3MZOjSXrl0LKqXOyjZjxgwcHR0ZOXJkdYdSJRJ37MDI2JhWISHUf+st6o0fj1uvXtUdVqWq98YbqFUqLixc+FDq9xk9GmMrKy4sXIhaVTl/K0IIIYQQjyJJpsqhXj0VrVsXUMkDNI+sqKgoDhw4wMCBAzEzM6vucKpEzo0bmNjaYvwvvsmuHTpg37gxV3//ncz4+Eqv38zBAe+hQ8m4coXrmzdXev1CCCGEEI+KJyaZSkuDmjVtadLEBrVa//G7d42oWdOOhg1tKfph+pw55nrrmh60ZurECWNeftmSunVtcXa2o2FDG957z4KbN40q5bn89psJHTpYU6OGHX5+tnz8sTm5uZVTd1FLly4F4MUXX3xgWbVKRWxISOFao4AAdj7zDDEhIRTb2I+YXT17stHXl42+vmQlJJCXmqr9vbQ1U1sCA9napo12lGdH166EBgSwtXVrombM0JbLunaNs199xd4BAwhr0YJNAQFsbdOG4++9R3psrE6dd86fZ6OvL6emTWPvCy+wqWFDjrzxBplXr7J/yBA2N2nCwVGjyEtN1Yvn+pYtRAwZQlhgIKEBAezq2ZOLixahLtAf9az3xhuo8/O5GBxc5naKCQlho68vV9au5c65cxwaM4YtQUFsbtKEPf37czsyUlvWd8wYjC0siF64sEyvgV09exLq50fenTuc/Phjwlq0IDQggL0DBujUK4QQQgjxKDGp7gCqilIJzz+fz6pVpuzZY0ynTrodzF9/NSUrC4YPz0VRJFfq1Suf2rULO4OLF5ty7Jhxqdf59VdTXnvNEnt7NX365OHkpObcOWN+/tmMHTtM2LkzAwcHwxOMFSvMmDDBAmdnFaNH52BsbMS6dWY8jAGAnTt3YmZmRmBg4APLXl6zhrxbt6jdvz+mNjbEh4Xx96xZZN+4QcMPP6z84CqR/+TJ5N+5A8DpWbNQ5efT5NNPtY9b1KhR6vlR06dzZd06nJo3R9mgAemXLpG0cyeN79VxY/9+Li5ahFOLFtTu0QMze3syrl3jeng4Sdu303btWuzq19epM27dOrxffhmFiQkJf/5JyqFDuLRtSy13d679/jvRCxbQ8KOP/olhxgwuLV+Obb16eAwYgJGpKTePHOHMl19yKzKSFgsW6NRfq1s37Pz9iVu3Dr8JE7BwcSlze2XGxXFm9mzMHB1xbd+evDt3uB0ZSXpMDA73Xitmzs54DhzIpeXLSdi2jVrPPlumug+PG0d+ejq1e/YkPTaWlIMH+euVV+i2axemSmWZYxRCCCGEqApPTDIFMHp0HqtWmbJihRmdOunuTLd8uQkKRWEyVVTDhgU0bFiYeG3bZlxqMnX9uoI33rCkYcMCtmzJxMbmn6Rp/XpTXn3VknnzzPjsM8M2m8jMNGLqVAssLGD37kzt2q0JE3Jo1szGoDpLkpycTExMDEFBQWWa4pcZF0en0FDsAgIA8B07ll09exKzeDF1hgzB2stL7xxjCwuaz5+PRa1alRp7edV65hntv8989RXk5uIxYECZzs29fZukvXvpHBaGTZ062uOpUVHaf7u2bUv3Awcwc3LSOffW0aNEDBnCxZ9+oum8ebox9exJw48+IuvaNbZ16oSZvT3NvvsOgJSDB7l1/Li2bEJ4OJeWL8dryBCe+uwzMPpnlPLkxx9zZe1aknbvpkanTv9cwMgIv/HjOfr221wMDqZRkcTsQWKXLqXumDHUnzgRo3ufPOSlpZFz+7ZOuXpjx3JlzRqiFywoUzKlVqkwc3KizfLlGBkX/p0dmzSJ+NBQErZtw7OEEVJl48Y0nz8fZcOGZX4OQgghhBCV4YmZ5gfQokU+AQEqQkNNSUv7p8N54YKCI0dM6No1Hw8Pw0eNli4tHN16/fVcMjIgKclI+9OuXT7W1mq2bTM1uP7t2425cwf69s3T2QTDzU3NwIF5BtdbnKtXrwJQ4wGjMhrObdpoEykAUzs7vAYPBrWahK1biz3HyNiYWj17akczHkfqvDwavv++TiIFYN+4sfbflu7u2kRKlZtL7q1bZCcnY+XlhYmNDbdPntSr19rDA0CbaGp+B7CqXZuc5GTt77HLloGRET4jR5KdkkJ2crL2p1b37gAk7d6td41aPXti4+3NlTVryL0vESqNZe3aOokUgKlSqdcGFjVr4v7cc6SdPs2NPXvKVHf9N97QJlKANv67Fy+WeI6Fiwu1evbEytOzzM9BCCGEEKIyPFEjUwAjR+YyZYoF69aZMmZM4SjUypWFIy+jRlUsITl6tLATOGFCyZsXJCYaXv/584X1N2qkv0Na48aVuxvgzZs3AXBwcChTeTt/f71jynvH7sbEVDiepN279RICx8BA3J97rtjyGZcvE/N//6dzzMzeHv933qlwLPer0blz6QXUai6vXMnlNWu4c/683hoiYwv97xbTbIBhZGyMkYkJCvN/vj/MyNSUvCLf+XX75ElQq9nVs2eJIWTfuKF3zEihoN64cZz48ENiQ0Lwnzy59OdxT40uXXQSqdL4jR/P1Q0bOL9gAa4dOz6wvPX9CZmzMwAFmZllup4QQgghRFV64pKpl17KY/p0C5YvL0ymCgpgzRpTXF3V9OhRsWRKM9q1cGEWrq7Fj3CZmBg+8pWRUVh/cWuu7ptBVmGa75TKzs4uU3nzYpIuU3t7oHI6wqknT3J5xQqdYwWZmSUmU9lJSXrlrWrXrvRkyszREWMrq1LLnJ49m9glS7CtV49GH32EZe3aGN9Ljo5NnowqP1//pKIJl5GRztQ9I4UCzS4pqpwcVDk5mDo68vScOSXGYF7Cmij3/v05N38+scuWUXfMGEzt7Ep9LgDWtWs/sIyGlacnbn36EL9xIzcPH8apRYsSyxopFHq7KGpaQbZYF0IIIcSj6IlLpuzt1fTrl8cvv5gSFaUgIUFBQoIRkyblYFLB1lAqC7t+Xl4q2rat/O+N0qzBujdopKOydgrUcLnX+b5161aZyt+/XgbQ7jhnYm1d4Xjqv/029d9+u8zlnVq2pF8pU8Mqi9EDXjT5GRlcWrYMy9q16bBhg07ipcrLI//uXUzKkMCURGFujsLcnPw7d3Bp105nilxZGJmY4Dd2LCc/+YRLK1bg98YbDz7HtHxTVetPmEB8aCjnv/+eNsuWletcIYQQQohH2RO1Zkpj1KjC6X0rVpixcqUZRkYwYkTF1xw9/XRhAhUeXv6szNa2MFEqbRAnIKCw/jNn9DvMUVHl60Q/iI+PD9bW1kRHR5ep/J2zZ/WOpZ07B4BtvXqVGtvjJDsxEXV+PvaNGumNYN0+caJSRlzsGzdGnZ/PjX37DDrfY8AALGrUIDYk5KFMp7OpWxe3Hj1IOXBAtjkXQgghxL/KE5lMtW1bgJ+fijVrTNmyxYR27Qrw8al4p/bll3MxM1MTHGzO8eP6yU1kpHGJiZa3twojI/jrL+MSv5anc+d87OzUbNpkyoUL/9y6+HgF69ZV7iCjqakpLVu2JCEhgevXrz+wfMrBg6SdPq39PSclhStr12KkUJR5W+x/I0s3N4wUCm6fOqWTqBRkZvL37NmVcg2fESMA+Hv2bHLvG7ZUq1Qk/vln4VqtEijMzPB97TVyb9/m8urVlRLT/eqNHw/A+R9+eCj1CyGEEEJUhydump/GiBG5/Oc/hQv/hw3LLbZMUpIRO3b8M6XpypXCBGbTJlNq1izMeFxdVXTrVrjmxcNDzYIF2YwbZ8kzz1jTs2c+fn4F3LljxMGDxpw+bcx77+XQo4f+GhlHRzUDB+byyy9m9O9vTcuW+SgU8Oyz+doRLysrmDUrm7feKqy/b9/CHQLXrTOhZk01MTGVO9XvueeeY+fOnWzfvp0R9zrsJbH28iJi6FDc+/XDyMSEpB07yE5KwnfcOKyK7ET3pDG2tMRr6FAur1jB7n79qNmtGxQUkPDnn5g5O2Pq6AgVHJ1y69WLOocOcXnlSnY88ww1n3kGCxcXspOTSY6IIDspidZLl8J932VVlNfgwZxfsICLwcF4Dx+us+FFZVA2aECNzp1J2rWLtDNnUDZoUKn1CyGEEEJUhyc2mRoyJI///McCGxs1/fsXswEAcOGCMePH6++0NmPGPx3Ndu0KtMkUwMCBedSrV8D8+ebs329CeLgJSqUKb28VH32Uw5AhJU8nnDs3G1NTIzZtMmHPnsJrODmptckUFE5HtLWFr782Z80aExwcCpPBoCAVo0aVvIugIQYOHMi0adNYuXLlA5Mpr8GDQaHg0vLl5Ny4gWXt2jT65BPtqMmTrNFHH2FZsyZx69cTu3Qp5o6O1OrenYB332XHM8+gyi0+mS+PJjNm4NK6NVfWrCFx+3YKMjMxd3bGrn59/MaPx+Gpp0o939jSknqvvsqZOXOIW7eOOsOHVzim+9V/802Sdu0ieuFCms+fX+n1CyGEEEJUNaO0tDTDt5d7jG3fbsKAAVaMHp3LN9+Ubce6J9GsWbP48ssvOXDgAA3lS1H/1fIzMtjWoQOmNjZ02b4dRTk3miiLAyNGkHLwIF3Cw7GpW7fS6xdCCCGEqEpP5JopgG++KRz5efXVyv2y23+bSZMmUatWLWbNmlXdoYiHzMTaGp9Ro8iMjyf+jz8eyjXqv/kmqNVEL1z4UOoXQgghhKhKT9TI1LFjxmzfbsKhQ8bs2GFC7975rFolXwb6IBEREURERDBx4kSsHvCdSkIIIYQQQjwpnqhkasECM6ZOtcDODnr3zuOLL7JQKqs7KiGEEEIIIcTj6IlKpoQQQgghhBCisjyxa6aEEEIIIYQQoiIkmRJCCCGEEEIIA0gyJYQQQgghhBAGkGRKCCGEEEIIIQwgyZQQQgghhBBCGECSKSGEEEIIIYQwgCRTQgghhBBCCGEASaZElYrftImNvr7ELF5c3aEI8cg4OnEiG319SY+Jqe5QHlma944LCxdWdyhCVJvExERee+01/P39sbe3R6lUMm/evOoO618tOzmZjb6+HBozprpD+dfZuHEjSqWSbdu2VXcoFSLJlHis7Onfn62tWj24oFpNfGgoB15+mbCnn2ZTw4bs6NqVyKlTuXPu3MMPtBjJ+/ez0deX059/Xi3XL07E4MFs9PUlPyOjUuq7sWcPG319y/QT1qxZpVxTPP4ODBtGqJ8fGVeuVHcolebcvHls9PUlbv36h1J/3p07hAUGsqNLF9QFBQ/lGvuHDHmo9+Vht9H9knbuZKOvL5dXraqS6z0MY8eO5ZdffqF9+/Z88sknfPrpp7Rv3766wxKlOP3556V+WPaw/w40fY8T77//UOovTln7av369aNp06Z89NFH5OXlVUFkD4ckU+JfR52fz9GJEzk2aRKpUVE4t2qFx3PPYenmxtXffiNu3brqDvFfy6JGDTxeeEHnx6p2bQCcW7bUOe7et281R/vo8H/nHdquWYOlm1t1h1Llbh8/TsqhQ7j16oW1l1eJ5VzatKHtmjV4PP98FUZnOJ/RozG2suLCwoWoVapKr9/Uzg6vYcPIiIsjPjS00usHqPfGG6hVqoc2Gviw2+jfJisriz179tCyZUuCg4N59913mTx5Ms2bN6/u0EQFPOy/A5e2bbEPDOTaxo1kXr1a6fVX1KRJk4iOjmbVY/whh0l1ByBEZYteuJDrYWE4Nm1Ki59+wszBQftYzo0bpJ09W43R/bvZ+fsT9OWXOseOTJhAZnw83sOHU6tnz2qK7NFm4+ODjY9PdYdRLc5//z0A9caPL7WcmaMjTo6OVRFSpTBzcMB76FAuLl7M9c2bqf0QPjzwfeUVYpcuJXrhQmr364eRonI/H3Xt0AH7xo25+vvv+L31lvaDkcpSFW1U1aKjo7Gzs6NmzZqVXndSUhJqtZoaNWpUet3/Jg/zHjwMVfF3UH/CBA699hoXfvyRp2bNqvT6K6JHjx44OjqyaNEiRo4cWd3hGERGpkS1UKtUxIaEsKNLF0IDAtj5zDPEhISAWl2hevMzMrgYHIyRiQlPf/21TiIFYO7qimvHjnrnpZ46xV+vvVY4JTAggB1duvD3//5Hfnq6XtlT06ez0deXW0ePcnHRIrZ36VJ4TteuXN2wQbfeqCjttLaD994kYpcs0ZnudnTixGKfy/UtW4gYMoSwwEBCAwLY1bMnFxct0pvSkxAWxkZfX6J/+IHEHTvY89xzbGrYkLAWLTj9+eeo8/N1yh8aM0Z77VvHjgGw5amndGKqyrU7Z+bOZaOvr17baZy99/iVtWu1x0588AEbfX25efgwJz/+mLBmzdjUqBERgweTcvBgsfWocnK4sHAhu3r1YnOjRmxu0oR9gweTUE1ztaN/+EFv6mNJ7X5kwgRCAwK4uGgRWwID2dqmDYk7dnBp+XLCmjXjz7Zt9aaI3D5+nFPTprGrVy+2BAayqWFDdj7zDGfnzCHvzp1ir3Pn3Dn+euUVNjdpwpbAQI689RbpMTFs9PVl/9CheuUr2qapp09zY+9eaj37LHb16+s9fmHhQr02KmmUJOvaNTb6+nJ43LjCv4N+/QgNCGBrmzac/vxzCjIzi48hKoojEyYQ3qIFof7+/Nm+PaemTyf31q1iy18PD/+n7latODtnDte3bGGjry/nv/1Wp6zvmDEYW1gQvXBhud7bNPdYMyq0o2vXwuu1bk3UjBnacmZOTngNHkx6TAyJW7c+sN7yvlfAvdGp/HwuBgeXOf6YkBDt3+ydc+c4NGYMW4KC2NykCXv69+d2ZKS2bHnbaFfPnoT6+ZF3507h336LFoQGBLB3wACdeqtDfn4+zZs355NPPqm0Om/evIlSqUSpVPLUU08B/6wz0fwUt2ZqwYIFKJVKli5dyt9//82gQYPw9PTEzc2Njh07cvToUW3Zw4cPM3nyZFq3bo2Hhwc1atSgWbNmTJ8+nbS0NJ16Fy1ahFKp5Msvv6Rhw4bUrl2bL774goMHDxIUFISXlxcffPABqvtGWHJycpg3bx6tW7emZs2auLm50b17dzZv3lxpbQUP5x4UdWPPHu3fzdZWrYiaObPYfkJ5Pez3ihqdO6Ns0ICrv/5KVmLiA+s15L3CUGZmZvTp04fTp08TWc1/w4aSZEpUi8tr1nD+229xad8e31deQVVQwN+zZvH3faMa5ZW8bx8FmZm4tGqFZRk/RU05eJCIwYNJjoigZrdu+L72GmYuLsQsXsz+oUNR5eQUe965b78ldulSnFu2pFb37mReu8aJDz/k5qFD2jJW7u4EffEFQV98Qd17i1ddO3TQHgv64gu8hw/XqztqxgyOTpxIXloaHgMG4DNyJMZWVpz58kuOvPVW8c/jwAGOTZqEtZcXHs89hxGFiVv0Dz/olPMZPVp7bc20qqc++0wnJnMXlzK1XWWoM3gwAJd/+UXvMbVKxbU//sDYyoraffroPX5iyhRS/vqLOoMH4/nCC6SdPcvBUaNI3r9fp1xBZib7hw3j7FdfYe7khM/IkXgOGEBOYiJHxo8ndunSEuPTdAwrc20ZQM2uXbXtbd+kyQPLq/PySPjzTzwHDSL39m2Ov/suMYsX4zV4MAoTE07+5z/k3r6tLX9pxQqubdyItadn4Wto1CisPD258NNPRAweTEFWlk796TExRAwZQnJEBLW6dcP75ZfJjIvjcAkjRhVpU43oe6NSfm+8UezjNTp31rZRnWKSueKknT3L0TffxNrbm3qvvYa1uzuxS5ZwaOxYvU7K9c2b2ffii9w8coRazzyD75gx2DdsyOWVK9k3cCB5qak65a9t3MjRN98k89o16gwZgsdzzxH322+c++abYmMxc3bGc+BA7kZHG5S0R02fzrnvvsOydm1qdeuGuZMTSTt36pTxGzsWI1NTzi9YUOZ6y/peAVCrWzfs/P2JW7eO7OTkcsWfGRfH/iFDSI+NxbV9exybNiXjyhWdDw0MbaPD48aRGhVF7Z49cWrWjNSTJ/nrlVfIu6/z/7izsbFh4cKFLFy4kJkzZwIQFBSkPbZw4UK6d+9e4vmXLl2iR48eREdH07VrV1q2bElsbCzR0dHaMsHBwaxbtw5vb2+GDRvG+PHjqVOnDt988w3du3cn6773CoCQkBAGDhyIvb09n3/+OSNHjqRXr174+/vz008/sbVIcp+ZmUnv3r2ZMWMGLi4ujBs3jmHDhnH9+nWGDh3Kjz/+WIkt9vDcvXCBw+PGYe3pie+rr2JTpw6Xli3jr1deqfC6xSp5r3jjDVR5ecSU44OR8rxXVETLli0B2HlfzI8LmeYnqkVmXBydQkOxCwgAwHfsWHb17EnM4sXUGTKkxLUTDadM0esEFpX6998A2N6rtyxOTZuGKi+PVkuW4NqhAwD+wLF33iF+0yZily7F9/XX9c7Lun6dzps3Y2pvD4Bz69ac/Phj4tavx+neG4OZgwMeAwYAhYtAYxYvxsbXV3usOAnh4VxavhyvIUN46rPPwMhI+9jJjz/mytq1JO3eTY1OnXTOu3n0KB1++w1lgwYA1H31VXZ2786V9eup//bb2nIubdtq/33ll1/IuHKF2v36YWJtXeY2q0xWHh64tmvHjYgI0i9dwsbbW/tYckQEWQkJeA4cWGx8apWKTps3ax/zeO459g0aRNTMmXQp8j/zM3PmcDsykqZffYV7//7a4w0++IB9Awdyds4c3Pv2xawKp5HZ+ftj5+8PQNKePaSeOvXAc4LmzsWmTh3yUlO5+uuvNJkxA/f+/bH28uLkRx+RGhWlfQ37vv46gbNnozA316kjesECzs2bx7WNG/G6l8hC4SLp/PR0Av/3PzxffBEA/7ffZl+RMkVVtE3TL1wgcft2XDt0QNmo0QPbSGFuXqaNA7Li42kyfTp1NB9SqNUcHD2a5IgIrm/Zglvv3gBkJyZy4sMPsatfn7arV+u8vuJDQzk2aRLRP/5IwylTACjIyiJq5vsDY+IAABU7SURBVEyMTExov369dlpm3VdeYXu3biXGU2/sWK6sWUP0ggXUevbZB8avkXv7Nkl799I5LAybOnW0x1OjonTKmbu64jVwIJdXrSJp505qdOnywLrL+l4BgJERfuPHc/Ttt7kYHEyjjz4q83OIXbqUumPGUH/iRO0UxLy0NHKKJP1Q/jZSq1SYOTnRZvlyjIyNATg2aRLxoaEkbNumff3eT9m4Mc3nz0fZsGGZn0N1Mzc3Z+i9DxJiY2OZNm0aHh4e2mMP8uOPPzJx4kSmTJmC4t49SE1N5VaRkdd33nmH77//HvP73ivmzp3LZ599xi+//KI3/Wrq1KmMGDECPz8/xo8fT/fu3Zk1axaxsbEEBQVx6NAhet6b1v3pp59y5MgRgoODGTRokLaOmTNn0q1bN6ZPn87AgQNxcnIqfwNVocz4eBp98gk+Rdri8NixJO7YwdXffivxdef5wgs4BQVh8YBphw/7vaJW9+7Y1qvHlbVrqTd+PObOzg+su1zvFUU8qK92v6ZNmwKwf/9+Jk+eXObzHhUyMiWqhXObNtpECu4tph48GNRqEkqZruLcunWpnQXNJ/Pm903vK8mdc+dIv3QJZYMG2k6ohmYNR3wJ0xDqDB+uTaQA3O59Onj34sUyXbskscuWgZERPiNHkp2SQnZysvan1r1rJO3erXeeZhhfw8bHB9t69chOSChxitOjwuPe/2Cv3jdVLe7e1L86Q4YUe573Sy/pdIIdmjbFITCQ9JgY7pw/DxR2gq/88gs2devi3KaNTnvmpadTs1s3CrKzdUYUizKx+v/27j2oqTP9A/g3N0K4BFSuAkFACGq1trXws6VYrFhRVuk61LXuoGPdil0tW3dbZ3TX2aWza63t7M7Kaqm1rrf1tqHV9bJVlIoIVfHCiApaKBdRkkAFhBhKQn5/cE6akAOEkwR09vnMdCzHeHLynpyX85z3fZ7XA1I/P0j9/CCwCGyHg2dYGABAFhxs9bMHU7ii02LkQB4baw6kjDodOpnv0shnngEAqylRXW1t0BQWQurnh7C0NPN2gViMqCVLbI7D0TYFgIoBRqX4Ent7Q5Ge/tMGgQBRS5cCABqOHzdvrj1wAEa9HhEZGTDodFafYVR8PEQeHtCcPWt+fVNxMbpaWhCUnGyV3yYNCOi3mIp7UBBC09LQWl5utb+BmLq6MOG996xujgDAd+JEm9dGL18OgViM23aOTg22rwhOSYFXRARq9++3Gv0ciCwkxCqQAgCJj4/NZ+LTRsq33zYHUgDMfWN//a+7vz+CU1LgoVDY/RmedAqFwiqQAgBfX19EWnyHJ0yYYA6kdDodtFot1Go14uLiAMBqSiBrDHMOQ0NDrX4OY/oktVoNoKdoxq5du6BUKjFt2jSo1Wrzf21tbZgzZw4ePXqEoqIi535wF5B4eSHcIhgEeoILALh34kSf/04eG4vglJQBH1i6vK8QCBCdmQmjXo/qHTvs2jff+4qB7tV6Y/PbGhoa7P43jxMamSLDgn3abMmH2fbQkXydQeZcsb94LTsLljwmBkKJpM9fzt69CgZIfH0BgcDhqWAPysoAkwkF/RRr0Gs0tscTFWWzTTpqFB6i52Za5OHh0HGpv/nGJogbOXkyQi1uvvkKTk6GZORI1KlUiF29GgKRCF1tbWjMz4c8Nha+TK5Ab1zfI7lSiQfXrqG9qgpypRJtlZXo7uxEe1UVTk6d2ucx9DWFKXzBAqsRnOEilEjMN48id/eebeyfbm4AAIPFk0BDezsqc3LQcOwY9Pfv2+zP8nv68PZtwGSCPDYWArH1rwU5xyivo23aUVOD+ydOwC8+HiOdXCLfKzLSZjSO/Z5YXssPysoAANeYkScultdZKxOc+3KManC1kaWYFStQr1KhcssWzpzNvgQmJdn1OllICELnzUO9SgXt+fNWo89cBttXCIRCRGdm4uqaNajesQOxdj45Dpw+3e6iGINtI8/eARnzlH0oHxzt3LkT73DkvB48eBAHe01bbm5uhlg89Ldcs2bNsgqkuDx8+BAfffQR8vLycPfuXZu/b+fICXJn+h72T5lMBgCQSCQQCoXmqYE3btyAXq9HZWUlYmJi+jyGRjvyeLgM5TnwCA+HiPmcLDbX09GHqCxX9xUhqamo/PvfUb17N8a+9RYkPj79vt7V9xUsX+bBdHNzs1P2N9QomCLDgmvkiB3lceSXIVtwovc0kr6wN5SWI0xmAgEkvr7o1GphMhhsbjJFHE+ZBAKBQ0U0ujs70d3ZCcnIkXhu06Y+X8eV09Rfp9btYGEPAGgpK0PNnj1W24w6nVOCKaFEAsX8+ajatg2as2cROH067h45gu7OTpsngZbcOM6bhPkOdDE3AGyxBb8XXsBY5ikiF++xYx35CC7HdQbNI2XszRKT9G0yGlG8eDFaysoQkJgI5cqVcPf3h0AkwiO1GmVr11rN8WevA6725NrmaJveZkoARzt5VAro/zNYJoqzn+GZjRv7nO5iec0b2b6C4+ZDOsD0UA+FAqNTU9Fw5AiaL17EKOaJf3/cRo4c1I1KzIoVuPvll7izZcuAwRSfviJ03jxUbN6M6l27ELVsGSRy+YDH5DmI6n+DaSOBUGhzU8se9VCWWI+KirKatmYymXDo0CGEh4ebc0BYAwU0rqIYYBTOaDQiLS0NpaWlmDFjBt5//30EBgZCLBbj3r17WLVqFQwcxQbYvodrtF4gEMDI9C9sAYuXX34Zq/rI9wUAJUcBGnsM5TngvG/x8QEEAqcF8a7uKwQiEcYuX46ytWtRvXMnlH0UwGK5+r6CpdfrAfwUnD9pKJgiw4Ir2GGTvR3J3ZEzI0wP7Sx/zr4X59QVkwldLS0QSqU2gZSrCKVSCKVSGNra4J+QYDWNZbgps7L6nSPtqDG/+AWqtm1D7cGDCJw+HfUqFYRSab/B2o+9CgQAQBdzLiXMuWVv+kxG46Ce9D3JtEVFaCkrQ3BKCp7fvNnq77iqHZqvA4725NrmSJs+amjA3cOHMWLy5AFv+vno7zNY9i3sZ/AIC7PrhoV9eMJV4KCzj8p/lpS//jUa/vMfVObk4IVduwZ8/WD7HM8xYxCckoJ7x47hh9JSp4/4CcRixCxfjrI//AHf79lj1/RMgUQyqPcYbBsNt4SEBCQkJJh/NhgMOHTokHkdqMeBZIBzUFBQgNLSUqSlpWFnr6IxhYWFDr+/D/PwwWg0YkY/uYV8DeU54LxvaW0FTCZIvL2d9j6u7ivCXnsNlZs39+Q0vvnmsOVLW3rAtK3/EBa/cibKmSLDoo0j2GmtqAAAeEdH895vQEIChO7u0H77LefUpt7YJ+etTOEKq2OsrER3V5fTRizM010GqPrjO3EiTAYDNOfOOeV9+z+onqeKjlYicgbP8HCMio+H+ptv0FRSgpbr1xH86qv9PgFvvXnTZhubK+XFTE+QK5UQSqVouX4dnU1Nrjn4x4yOmXfux7GYZ/OlSzbbvGNiAIEAbRUVNiVv25jr0pIjbXonNxcmg8HpuVKs9qoqmwqc7GfwsriW2QqKjXZWj/Jhnpxz9hUcbdSbV1QURs+ahabiYpeV8Gbb1N7cqcEKmz8f7oGBqN6xwyXT6YaijYi1uro6AMCLHA82iouLHd7/hAkT4O7ujitXrkA7yGqQj5v277+3+d6zv288OabD8eXq60AokSD6rbfQ1dpqM9tkuFQwfehEjpzQJwEFU2RYNJWUoLW83PxzZ1MTag8cgEAoHFQVm94kcjkilyyByWDA5XfftSltrNdorBI75bGx8IqIQFtFhU3CJ3tDEjJ7Nu/jscROJRpoDafIjAwAwI0NG/Bjr/nDpu5uNJ48ae7AHT4m5ilQu5PmeztqzMKFPeeOycnoq/AEq2b/fqvcn6aSEjy4dg2eY8aY82REMhkU8+fDqNPh+gcf2AQLRp0OVdu39zk9qHbfPpyYMgUnpkx57At5sDyZqT1NvQpAdNTWouqLL2xeL5HLEZCYiM6mJtz96ivzdpPRiKp//tPm9XzbtFOjQe2hQ5CPGzeo5OTBMLS3W61J1t3VZV4jKcQiD1GRng6BRIKaPXs4Kym2lpdblRb2T0iAxNcX90+dQnt1tXm7XqvFvaNH7To2tqhNpZPLCrPkSiWCZsyAprAQLRb9q7MI3dww9le/wo8PHqBm3z6n7x9wfRsRaxFM9dRzvR7eVVdX4x9OOAcymQyLFi1CR0cH1qxZYzNlUKfTIScnx2ZdqseRUaez6ltMBgPu5OYCAEKZKqHO4urrIPz11yH188Od7dsHVXXPVS4xD/kSexUCe1LQND8yLDzDw1H0xhsInTsXArEY6tOnoVerMTYzEx5MNSC+Yt95p6fs8unTOJWUhICEBEjkcnTU16P54kVELFpkNTVpUnY2vl26FBczMzF6zhy4BwWh6dtv0XLtGnzGj0ckRzUzPryiouChUEBTVIQrv/sdRkyaBIFYDM/wcKvpTqNnz8aYCxdQs3cvTicnIyg5Ge7+/tBrtdAWFUGvVmPqzp0AzznmloKSknD/xAmUrl6N8PR0c85ZSGqqXTkRzhY8cybcRoxAp1YLT4UCozhGViwJxWIUzJmD4Jkz0dnUhMaTJyEQiTBx/Xqr141fswYt5eW4d+wYWsvLETBtGkQyGTpqaqBh1iaLXLz4p9wjCwa93hyUm5w0R1yv1UJrMYVGxyR93z91Cu7Mk0ipnx/vaYmj4uPhM3487n/9NYoXLcKIZ59FZ1MTGo4dg//UqWg8fdrm3zy1di3OXb6Ma+vWoenCBXiEhUF99ixMXV2c78GnTW/n5sLU1QWli0algJ5iDOV/+QuaLl2CLDgYTSUlaLt1C37x8eay6ADgERKCZzZuxNX33sO59HQEvfIKvCIj0dXejh9KS9FWUYHoFSvMQZ9QKsXE9etxZfVqnEtPR2haGkQyGRoOH4aHQsE5Stqbz/jxCExKgrqgAK03b3IWvnGUcuVKNObn486WLXjeBSNU4QsWoHLLFny3bRsifvlLm2IfjhqKNiI/SUhIwNNPP40jR44gNTUV8fHx0Gg0yMvLQ2JiIo5bVMDkKzs7G9euXYNKpcLVq1cxc+ZMyGQyVFVV4cyZM2hvb0dmZuaw5ZXZSxYSgpsffYQfrlyBR0gItCUlaL1xAyOeew4h/VT05MPV14FQKkXUsmW4+eGHqD140Krc+3DIz8+HTCZzyVTQoUDBFBkW4QsWAEIhvt+9G50aDWQhIT3rNzCjMo4Qurnh+a1bcferr1CvUkFTVASjXg/3gACEzptnXTYZPSU8E/bvR2VODtRnzsCg08E9KAhjly1D9NtvO+1mQSAUIj43Fzc+/BDqM2fMIwCjZ8+2yR2Z9Kc/wX/qVNTu34/G/HwYdTpI/fwgVyoRs2IFRvRR3W6wwl57DXq1GnUqFSo3bzaPMPjFxw9LMCV0c8Po2bNRs3cvwn7+c6s1trhM3rAB9Xl5qFep0N3ZCZ/x46HMyrJpT7GnJxL27UP17t1oOHoUdf/+N9DdDffAQAS98gqCk5OHLC8OADqqq3F1zRqb7bc+/tj8/6Pi4ngHU0KJBP/3xRe49ckn0BQWovnKFXgqFIh9910EJSVxBlNeUVF4cf9+3Ni4Efe+/hoCobCneMU776Bg1iyb62CwbfpjczNqDxyAV2QkgvpZZNRRPuPGYdL69bj1179CnZ8PtxEjELF4McatXm1TWS507lx4RUai6vPP0XzxIhrPnIFYLoenQgFlVpZVmXj29UI3N9zZsgU1//oXpMw6cnKlEpd/8xtzVcX+KFeuhLqgALe3brXJZ3MGn6eeQkBiIu6fPIn2O3fg5cC0aS4imQzRb76Jm5s2oe7QoZ/W83IiV7eRq4jFYnPBhSeFRCKBSqVCdnY28vPzceHCBURERGDdunV49dVXnRJMeXl54cSJE/jss8+gUqmwe/dudHd3Izg4GCkpKZgzZ47TKh268hzIo6MRkZ2NW598gvv5+XDz8UFERgbG/fa3LslvdvV1EPHGG/guNxffffYZxixcaFf/5QpVVVW4dOkSMjIyzDl2TxpBa2ur88pxEEKIgwrnz0fr9etILizsc5HDq++/j/q8PKuFn4lrtN68ibNz50KRno7JGzbw3s/NTZvwXW4unv34Y14VIGsPHEDZunWYlJ2NMRwLlj66exenXn4ZQTNmIO7TT3kfJx/VO3ag/M9/tlnAuC/FGRloKinB9P/+15zb50wPrlzBuddfR0hqKp7729+cvn9DRwdOJSZC4uWF6fn5EA6y0IQ9XN1GhDwJXH0dsIu4T/rgA4xZuNDp+7fHunXr8Omnn+L8+fOI5Vju5EnweI+pEkL+pzRfvIiWsjIETp8+4GrxxLlMRqNV6XBWHbOQsiOVELva2lC7dy88FQre02F+YBYO9WJyPIaDoaPDJj/MZDCg/ssvIRCL4ffCC3btR7lyJWAy4fbWra44TIx49lmMio/HvePH0VFT4/T9iz09EblkCXQNDWg4fNjp+wdc30aEPAlcfR1EZmRA7O2Nqm3bbPq2odDY2Ijt27dj6dKlT2wgBdA0P0LIY6Dq88/xSKNBfV4eBCKRyyq9kb4ZOjrw9dSpCHjpJfhMmACRVIqmS5egKSiA39SpDheGSRlkVaqWsjLzItEPq6pw7/hxeMfEYFSvtWOGkvb8eZT9/vcITEqCd1QUjHo97p86hbZbt6DMyoK7nWV9R8XFYa6Li768uHevS/evXLUKyn7WDXLUULQRIY87V18HYi8vzL561WX7H0hdXR2ysrKQmZk5bMfgDBRMEUKGXWVODow6HTwjIjB5wwZz2WoydERSKUJ/9jP8cPkytMXF6O7qgmdoKJSrViE6M9Mm38jVHpSVoZLJExC5u8P/pZcw6Y9/HPLjsOQdFYWRU6ZAW1yMhqNHIRCJ4B0dzXvqIiGE/C+Li4tDnB3r/D3uKGeKEEIIIYQQQnignClCCCGEEEII4YGCKUIIIYQQQgjhgYIpQgghhBBCCOGBgilCCCGEEEII4YGCKUIIIYQQQgjhgYIpQgghhBBCCOGBgilCCCGEEEII4YGCKUIIIYQQQgjhgYIpQgghhBBCCOGBgilCCCGEEEII4YGCKUIIIYQQQgjhgYIpQgghhBBCCOGBgilCCCGEEEII4YGCKUIIIYQQQgjhgYIpQgghhBBCCOGBgilCCCGEEEII4YGCKUIIIYQQQgjhgYIpQgghhBBCCOGBgilCCCGEEEII4YGCKUIIIYQQQgjhgYIpQgghhBBCCOHh/wFAIo5tR8kmCwAAAABJRU5ErkJggg==;imageBorder=default;" parent="1" vertex="1">
                    <mxGeometry x="80" y="280" width="593.72" height="120" as="geometry"/>
                </mxCell>
                <mxCell id="5" value="" style="shape=image;verticalLabelPosition=bottom;labelBackgroundColor=default;verticalAlign=top;aspect=fixed;imageAspect=0;image=data:image/png,iVBORw0KGgoAAAANSUhEUgAAAgYAAAA3CAYAAAB3hoKBAAAABHNCSVQICAgIfAhkiAAAABl0RVh0U29mdHdhcmUAZ25vbWUtc2NyZWVuc2hvdO8Dvz4AAAApdEVYdENyZWF0aW9uIFRpbWUATW9uIDAzIEZlYiAyMDI1IDA0OjUwOjQ3IFBNlDqr+QAAGJ5JREFUeJzt3Xl4VNX5wPHvbJlM9hCyhzVDQghL2IpgBNkNIFAFsSKCKK1allr6aKE/K2KttmAfKu7RYghYFBGfLEQWCUgAWQqBsIewkx2ymMxkMtvvj0yGhOzJTBZzPs8zD8zcc+89997J3HfOec8ZSVFRkRlBEARBEARA2tYVEARBEASh/RCBgSAIgiAIViIwEARBEATBql0GBs8+q8Ld3Y1Ll9pl9QRBEAThF0vceQVBEARBsJK0x1EJ6elS8vMlREQYUanaujaCIAiC0Hm0y8BAEARBEIS20epdCRqNhE2bFEye7IzReO/1NWuUuLu7VXvUlWPQq5cr06Y58dxzKnx93YiMdCY9XcrixSr8/FwZOdKF1NSa68bFyRk92hlvb1dCQlxYtcqR7dsVuLu78fbbSnsdsiAIgiB0GPLW2tHRozJiYx3Ytk1OaakEN7fqDRVTphgIDKx47bPPFPzvf7J6t5eSIufXv9Yzfbqer79WMHGiM2q1iUWLyvn4YweWLlXx44+l1vJbtyp4/nkVHh5mFizQ4+gIW7bISUxstVMgCIIgCO2eXe+KeXkStmxREBvrwMWLUuRyGD/ewJNP6pk61YCsyr0/PNxIeHhFE8Lu3bIGAwN/fxMbNmgB+OknOTduSNi4UUNAgJnsbAnffOOAVgsqFWi18MorjigUsGdPKX36mAD4/e+lDB3qbJ+DFwRBEIQOyOaBgdEIe/bIiY114Pvv5ej1MGiQibffLmP2bD3e3rZJaejZ8952goJMZGXJCAioeK1bNzMmE+TlSene3cS+fQru3pUwc6beGhQA+PmZmDVLzxdfONikToIgCILQ0dk8MNi8WcGSJSqcneGll3Q89ZSBvn2NDa/YRI6O5ir/p9roBaUlXUBb0aDA2bMV+QaDBt0LCioNGGD7ugmCIAhCR2XzwCAw0IybGxQXw44dCtzcwNnZTLduNW/KLSGRVP2/GbgXKEgteYeVyY0lJRWFPT1r1sHLy6bVEgRBEIQOzeajEsaPN3DxYjEff6zF29vE3/6mZMAAF6ZOdWbjRgVFRbbeY8NcXCqChoKCmod7505r10YQBEEQ2i+7DFd0coLf/EZPUpKGEydKePllHRkZEpYsURES4saCBSp27my90QDh4RUtBadO1UxoPHOm/iRHQRAEQehM7D6PQe/eJl5/XcfZsyVs3aph4kQ9CQkKnnjCCYPB3nuvMG6cgS5dzCQmyklPv3fIOTkStm0TiYeCIAiCUKnVvrbLZDBpkoFJkwzk55exZYvCmguQkyPhhx8U1rLXr1csSEhQ4OdX0Q3g42NiwoTmRRJKpZl//rOM559XMXGiM08+WY5KBV9/7UCvXsZaWxIEQRAEoTNqk9l9unY1s3hxufV5erqMF190rFHujTfuzUYYGWlsdmAAMHu2HqXSzNq1jnz+uQNeXjB3bjn9+plYuFCFUilmhhYEQRCETv9bCR9+qGTFCiXR0VqeeELf1tURBEEQhDbVaX52uaREUiOnwWCALVsUKBQwZkwrJTwIgiAIQjvWaX4oYN8+GcuWqZg8WU9oqBmtFhIS5KSlSVm5Uoevb6duOBEEQRAEoBMFBiEhJkaONLB/v5xt26TIZBAWZuTTT8uYM6e84Q0IgiAIQifQ6XMMBEEQBEG4p9PkGAiCIAiC0DARGAiCIAiCYCUCA0EQBEEQrERgIAiCIAiClQgMBEEQBEGwEoGBIAiCIAhWIjAQBEEQBMFKBAYdlPbWLY4vWcKuUaOI79uXI4sW2bR8e5A0bBhxarX18ePjj9t1fwWpqRycO5ekoUOt+yw4edKu+2zIz+npxIeGkrFhQ5vWA6AkI4M4tZrjS5c2eV19cTFxajUHn3rKDjWzH1N5ORf+9S9+GDeO+NBQ4tRqDj/7bFtXC7D9OU1bvZqkiAjK8/Ntsr2qkqdMIT4sjN1jxpC6YgX6oqJ6y59etYr40FB2PvAARxYtovjCBZvXSaibCAzaUPHFi8Sp1Zz5+98BuPbll8Sp1WTt2tXguidXriQzKQmPiAj6r1xJ7wULbFq+PRi4ahWD//EPBr/zjt33pS8u5siiRRSmpRE0YwZhy5cTtnw5ToGBdt93fc6+9RbKrl3p1YgP/zN//ztxajUlGRmtULPO4fJnn3Hpww9x9PEhZPFiwpYvp8fs2W1drUYzlJY2OpgLfeklTCYT59autXk9+r78MuGvvopTUBA3tm7l/Lvv1lu+28yZ9H/tNXzHjiUnOblR9b+6cSNxajU5e/cCcHzpUuLUavTFxTY5hs6k00yJ/Etz59gxHDw9Gb5+PRKZzObl24PAadMAMBsMnPzzn+26r4KTJykvKKDPCy8Q9qc/2XVfjZV/+DC5KSmEr1iBVKlseAU7UwUE8OCWLSi7dGnrqrSa7B9+QCKT8cCGDchUqraujl05dO1K91mzuBobi/q3v8Wld2+bbdt/4kQAus+ezY5Bg7hz/Hi95T0jIvCMiACg6Nw5is6epbygAAdPT5vVSaibaDHogEw6HWa9HqW3d6Nu8k0t3xnp8vIAcPTxaeOa3HMlJgaJTEbQjBltXRUAZCoVXsOG2fSG0d7pcnORu7r+4oOCSt0fewzMZq5t3myX7cudnVG4uTXYlVBVZatdeRPWEVqmQwcG8oQEnKdNwyU4GFdvb1zDw3F66ilk+/bVWl6WloabuzuqRYuQFBTguGwZLiEhuHp74xIRgWLjxprrHD+Oav58XEJCcPP2xiU8HNWzzyI7etTOR9cwibRpl6+p5etTfvcucWo1h+bNq7Hs0gcfEKdWczshocay4vPniVOrOfHHP6IvLOTUX/7CzgceID4sjD3jxnH9669tVseGZCUlWXMJKlsk0lavrpbXcH+OgUmn49IHH7B38mTiw8LYERHBoXnzyDt4sM79ZGzYQJxazfWvvqL4wgWOPP88OwYPJnHgQPbPmEFBamqNdcrz88nZuxfvkSNRdu1qk+M9/de/EqdWk/vjj7UuP75kCXFqNXdPnKj2enxISLVz0lCzbvH58/y0cCGJAweSFBHBsd//Hm1WVr3rZO7YQcqTT5IUEUF8WBjJUVFc/vRTzEZjjbLNuQZNkRwVZT1WbVYW+sLCasdfW46BLjeX06tWsXvMGBLCwkgaNoyjL71UZ9+4Sacj/aOPSJ4yhcT+/UkcOJADc+aQtXt3reWbc06bw71/f5x79ODGt99ivv936m1FKsVsbsJP9Egkln8k9qmPUEOH7UpQbNyIaskSTP7+GGbNwuzhgfTmTWT796NISMD48MN1r6zX4zxtGpLbtzGOGoUZkJ86hfzwYfTPPHNvHzExqF5+GRwc0D/6KPpevZDcuYNi1y4k69ah+fJLux9nbSo/LBt7o29q+dZg0us5+PTTaLOy8Bo+HICis2e5e/w4PZ54olXq4DFwIIP/8Q8A8o8e5ea2bQROn47Pgw9ayzh37279v9lk4sjvfkdeSgpuffsS/NxzGIqLuRUXx+EFCxj6r38R+Oijde5Pc+MG595+G4cuXfB56CH0xcUUpKZSkpFhbTatlHvoEGaTCc8hQ2x2vEHTp3Ptyy+5nZCAz+jR1ZYZNRqyk5NRBQXR5b59RrzzDpjNlOXlcb6B/ufiCxc4MGcOZr2ewOnTcfT2Jmf/fo69+GKd66S98QZXY2Nx7dOHbo8/jkSh4M6xY5z75z+5m5rKrz780Fq2pdegMfr+8Y8YLP3SZ956C5PBwMDXX7cud/T1rVb+5/R0Ds2bh76oCL+JE3Hu0YOy3Fwyk5LI+/FHRsXG4jl4sLW8UaPh0DPPUJCaSteRI/EbOxaDRkPO3r0ce/FF+r/2Gr3nz2/ROW2JLkOGcHP7dgpOn67xXrAFiVQKTQkMLJ9btQWJgn102MDAwfLtXrN7N6Zu3e4tMJmQ3r5d77qK77/H8OCDaHbuBBeXihcNBmTnz1vLSC9fRrV8OWZXV0p/+AGTWm1dVmYwIEtJsT7fsEHB0aMNn0q12sTy5Trrc6fAQIavX49zr14A+ERGMnz9errcd5O4n9ZyfAoPjwb32ZzyrSEnORmvX/2KyK++Qu7sDFTkEvycnt5qdVAFBtLNMtLBZDBwc9s2ukREWF+7X2ZiInkpKXgOHUrk5s1I5BXXvPe8eSRPm8bpVavwmzChzmbnKzExBD//PKFLl1qDNH1REbqCghpl71r6YD0GDGj08XR/7DG8Bg/G0c+v1uVdhg5FFRhI9q5dmN58s1reQtaePZjKyug2fXqN9bo99hhQMSqhocDgzFtvYdRoGPbeewRMmQJA6LJlpMyZAzdu1Cif9f33XI2NpceTTzLozTet3w4BTv3lL1z/6ity9u3D1xLot/QaNEZlfzjAuXffhfLyOt8TmM387+WXMep0PBwXh0ufPtZFfV54gf0zZpC2ejWjt2+/t801ayhITWXIu+9W6ybq98orHJg9m/Nr1hD06KM4WHI5mnpOq5I5OjJ8/Xoc/f0bffweAwZwc/t27h47ZpfAwMHdndLr1zFqtY26Tg7u7gBoMzPr7cbyHj2a4evX4275mwleuJDAqKhO0w1kS+3nK2RTWZq5zPf3mUul1QOF2hiNaNetuxcUAMjlGKt8CCtiYkCvR7dsWbWgwFq2SovEoUNyvvxS0eBj167qwYPcxQX/qCjc+vYFwKl7d/yjolDW1s9tNqPNzqYgNZXTq1cD4D9hQt3H2NTyrcxsNDLwzTetQQGARC7HLSysDWtVv8ykJABCfvtb6w0JwKVPH/wmTEBfVET+4cN1rq8KDKwWFAAo3N1x6dmzRlmNJZhTens3un5uffviHxVV7ZxWI5EQ9Oij6EtKyE5Orrbodnw8QIvyGcoLCsg/fBhHX1/8H3nE+rpUoSC4jiF+VzZuBImE3vPnU5afT1lenvXhP3kyADlVugZbeg1s7c7RoxRfuEDAI48g9/CoVn+5iwueEREUpqVRfucOAEatlutff41LcDBdR42qVl5fUoLfhAkYy8q4c+QI0LxzWpVEJsM/KqpGi1R9KvNsNHboqgDwGTsWs8nEqddeo/j8ecos+T118R07FoBza9dy5+hRyrKza+3mcOnZE/+oKBwtfzOeERH4R0UhVShsfxC/cB22xcDw618jO3kS5/HjMcyahXHECIyDB2NqxPAy44ABmBsIHuSWvuV6uyQsoqO1REdrG1Xv5iovKGB3ZGTFE4mEsOXL6VWl26Ol5VubW1hYmw8FbKrK1gz3fv1qLHMPDydr505+Tk/Hd9y4Wtf3HTeu0d055ZZWhMpvS7YSNHMm6R9/TGZiIgGWG42+qIjcAwdwDw/HJTi42dv+2TJM0i00tMZx1hXwFZw6BWYzyVFRdW63LDf33j5aeA1srTI/5MbWrdzYurXOcmV5eTh4eVF88SImnY6SjAx2jRxZb3lo3jltKYXlPVd+965dth/+6qtgNHIlJoZb332HzMmJqadP11neb/x4hqxdy6n/+z/rnA2jt29vUmua0DQdNjDQLV2KycMDh5gYHN5/H957DwDj0KFoP/oIU2hones22KIAUFgIgLmOZtnWJnd1ZUR0NJqbN7kcHc2F997Da/hwugwbZpPyrU3VwYICAH1pKXDvg7MqpWUYlb6kpM71nZtwzDJHRwCMOl0DJZvGVa3GvV8/cpKTMZSWInd2JvP77zEbDHSbObNF2zbWc34caunGMul0mHQ6FF26MHTNmjq3W7XVpKXXwNbKLbkIwQsX4l0lN+V+TpbPnMox9V1HjUL93HN1lne1tFI29ZzaQuV7zl5N8Jk7d3IlJga3vn3pNW8eqga6OUqvXSNt9WpkKhV9//AHnHv1wsXS/SrYR4cNDJBI0M+fj37+fCQaDbIjR3D4/HPk8fE4Pf00JceO1b2ug0PD27f80UmysiAgoN6i0dEOHDrU8DDAkBATK1Y074NeqlBYm9Sce/bkp4ULubppU503+qaWb7J6MoQb88Es64DNewpnZ3SArqAAJyenassq8wQUVbun7iNpwjErvbwAKLcEqLYUOH065955h+zduwmaObNi9IhEQsDUqS3abmUXRm11Lq8lj0KqVCJVKjEUF+MdGdmoobQtvQa25uDmBlQE4j5jxjRYXmEpbzYaG1W+qefUFvSWfTnYab6KqzExAPzqo4+sAVN9bmzbhr64mIh33qH7rFl2qZNQXcfNMajC7OSEYexYNJs2YRwyBOmlS0hyclq0TYMli1hex9DHqo4elfHtt4oGH/v22SYOq2xG1WZm2qV8Y8gtH8o6S99pVaVXrthsP1CReyBzdMSotW93TUNcLYllRefO1VhWdOZMtTItVXnN7DGLYbfp00Ei4VZ8PGV5eeT/9BNdR45s8RwOlcf+86VLmE2masuKqiT2VuUxYABmg4HcAweatI/WuAaN4TFwIFCRTNsYbqGhSJVKCtPS0DVi6uHmnNOWKr58GQCPWrprbEGbmYncxaVRQQFgHZbpER5ul/oINXXYwEC2b581AdGqpARJdjYoFODq2qLt6xcsAIUCh3XrkF68WH2h0Yi8yqiE6GgtRUXFDT527ixtUZ0qKSzHZtBo7FK+MaRKJaqgIH5OT6ekSiBQdO5ctWQxW3Hu2ZOSq1cb9WFqLwGWfvCMzz6rlvxUfOEC2Xv2oHB3p2s9/cZN4TViBECtcxy0lNLHh64PPEDewYNci40Fs5luNphESeHujk9kJGU5Odz67jvr6ya9noz//KfWdXpb8l7Ovv22NUGvktlkInvXLoqr/P215jVoDK8RI3Dt04fC06e5Wss8KNrsbK5/9ZX1uUylovvjj2PUaEh7880aSXRGjYaMzz+3BgHNOactVWjJr6p8D9qaQatFdl9rT30qvxA0ZR2hZTpsV4LTokUgkWCIjMTUowcSrRb5jh1IMzPRLV6MuYVvIlNwMNp330X1hz/gMno0+qlTMfXsiaSwEMXevRj79cNQmdzXSfWYNYsL69aRMmcO/pMmYSgtJXvvXrxGjCD/0CGb7qvXM89wauVKDv7mN/hNmoTMwQHXPn2sw7daQ8DUqdzYto28lBT2TZ+Oz5gxFWPo4+Mxm0wMXLXKZv2ynoMG4ejvT15KSsWYbxtP7hI0Ywb5hw+T/sknyBwdq2W8V5W7f781GKtMiNPcusXNbdusZbxHj7Zmgoe98gp3Tpwg9c9/JscyL0Lu/v2Y6siVCJgyhZ5HjnBt82Z+mDgRv4kTcfT2piwvj7yUFMpychgZEwOWnKHWvAaNIZFKGbpuHQfnzSNt9WpuJybiOWQIZqOR4vPnuXPkCJ6DB9NjzhzrOv1efZXCM2fITEyk6MwZfMaMQaZSUXrtGrkHDmDUaCrmMbAkGzb1nLaEvriYu6mpdBkypF3NAiq0rg4bGOhWrkS+axfyY8cgPh6zmxvmkBC0f/0rehv9Cp9+/nxM/fqhfP995CkpSOLiMHl7YxgxgvLFi22yj2Zp6k3CTjOG9XnhBQwlJVz/9ltufvcdbqGhDH//fQrT0mweGPSYPZvyO3e4umkTlz/5BAD/yZNbNTCQSKWM+OQTLkdHcysujqtffIFEocBz0CD6/O53eNswUJTIZPSaO5fza9eSd+hQvYltzRHwyCOcfv11TDodvpMm1TnEMf2TT7hz3yyfhadPc7JKFvmDmzdbAwP3fv2I3LKFc2vWkLN/P1KpFO+HHiJ02TKS6wg+Br7xBt4jR3J9yxay9+zBqNGg7NoVt9BQQl58Ec9Bg6xlW/MaNJZbaChjExLIiI4mOzmZK198gUypRBUQQM+nn7b+5kclubMzkf/9L1diY7mdkMCNb74BkwlHX1/8xo/Hf+LEakMxm3NOmyszKQmTTkfPuXNtut1qzGakTZiavXKWRDHzYeuRFBUVNWEKKqG9SAgPR9mlCxMb2Tfb1PJC29MXFrJ77Fi8R41i+AcftHV1hE5g/4wZlBcWMn73bqSNSdJuIpNeT+KAAbj07s3YHTsatc6huXPJP3KEqOPH29Ukbb9kHTbHoLNz798fbVYWVzdupPT69QZ/WrSp5YW2p/DwIHTpUrJ27qTYTolmglApa9cuis6epf+KFTYPCsrv3qUkI4OL69ZhNhganIPAUFqK5uZNbsXFcffECVRBQSIoaEWixaCDKjh5kmOLF1NmGX3h+/DDjPjsM5uVF9oHs8FA+qef4hEe3qjhbYLQXLfj4ynLzSW4nvkVmis5Kso6OZVLcDAPREfjVOV3SO53etUqrm3aBFQEyEPWrLEOvxbsTwQGHZjZZKLkyhV0eXnIXV3x6N/fpuUFQRBs4e7x45iNRpS+vrVOAX6/ny9fpiwnB6WXFy7BwWJa41YmAgOhw7v5zTdcr2c62vv5PPQQIW2ZPCq0ipQqIwEaY+i//42qncx0KghtSQQGgiAIgiBYieRDQRAEQRCsRGAgCIIgCIKVCAwEQRAEQbD6f0s29xClNfdjAAAAAElFTkSuQmCC;imageBorder=default;" parent="1" vertex="1">
                    <mxGeometry x="80" y="40" width="329.64" height="35" as="geometry"/>
                </mxCell>
                <mxCell id="6" value="html (frontend)" style="text;html=1;align=center;verticalAlign=middle;resizable=0;points=[];autosize=1;strokeColor=#6c8ebf;fillColor=#dae8fc;" parent="1" vertex="1">
                    <mxGeometry x="80" y="10" width="100" height="30" as="geometry"/>
                </mxCell>
                <mxCell id="13" value="" style="shape=stencil(lVjZUhtBDPwav6rm0FzPhPwHVZjgCsEUkOvvo4lr1ju9dlO8maW1Myu1pJZ28ebt8e5lvwvu7f31+H3/+3D//riLX3YhHJ4f96+Hd/u1i7e7ePNwfN1/ez3+fL4//f1y15H914/jr/6GPye7ViWnbhXc39MTFe/+P/h6wj8dntf4NP59xlcl+CBtxidJjeCdaJjwWXK4jq9FUpnwRZoneMX3N1Fyn+oltAnvvURiUKq4+YN9HC6+bKCSdTbIEjIx8OLhSk0iiVkuUucrhTC8dtlApcxXsqiVSgyC+DkKoUqLxMChl6KXRniUqoT5hGiXJN+QChI1FuolM0h1ZraTxAwWry8GUZRE2j5a42xQ+Tc0DFzy3KCK5tlA6ZVSxm/ofiOBS0ZmMGhSmIEb71sSOoiSb9AsHipAkkBO0LAxMMKTBIobLxWLDIm0Ua3O1ChW1kg+GJmBrcUSiJzQqxacYIQndayX3dmt1dhKIm0pr3Pgahil8LKBG8xZDHQk7UUDX7BU1kwrn1dps5eqdSMSOCu9bT6heVHipYbNoUWprPBJhvfbE4KPo5ct+EZLRhi9aYVvFA9l1TvHYyCqeEAh3cphgTF8oPgI3bNKIhGz284caoVG2PAeA1BIgJ0EuA9vVA57bdNBqSv+DBs8SxojaEK8Z2m8IZyOYnaFcJDE/T6kNsZNwqTh4cu1dKTTCl8pHrpBjxdp4zrYsuYD8b9KmMti5xsrvIPtKz5Hcv8oPiG+0oQE9fhxQua6OYASzm0SUimhoZWZgyohkMNeaQFopMJtdJrhHSHc9v1ZHL8/+CeNlLvmH3i/UkJ8Fm/TydxWbSBhBW4jS62FOdbz3BBwi0GiUsKHwZdVG44kYj4hR63RZ5IDvmITMCnBkqZ3DVA3XO1bmkUwKHTEsUac5m8w/eSYWNkoZVNoLG4xYqXLjSq0mFGsmMpkmd+nBzBQ2ltVsblmGzUJNbRgt+lTEiO3w3aQEm0fpvaB3vbEsTEtYb1TrnDMANxq+p+NBzbQwPRr+p9JHLsx5IMNgqxH2QnbUZOlqH1DhRNMuBHy2YxVZ/IZf1nVs8kR5+s83HBtIG9zHevak82mecR1tVRgSs3SRTdrC8/2HGEM+ItBoL225LFoOa9q2GqnbGsA1Wo14mSaRgJexucNkfhqqmGJCfT9bSHN4iCJbLWmuLBwdDlgygC+19Ga2qVWQDxbDVZc9Tm+SjTOJ8CzttNnK8RnUrz66FPBn0y69FkMCEql10r6nQ1YnegHQBbTUtelYgI8y2HDw3QTqVLo2jgDng1bhgcxZeMFKRGf3i1/iLcf50X2w+Hp6bQHX/8fF9/26LQ0j7f/AA==);lineShape=1;dashed=1;" parent="1" vertex="1">
                    <mxGeometry x="197.1705094378267" y="212.91334857822483" width="103.97121745581792" height="81.00998253120719" as="geometry"/>
                </mxCell>
                <mxCell id="14" value="" style="shape=stencil(lVfZbhsxDPyafSUoUedzmv5HgDi1UTcOHKfH35fbhRyT9o7Rt7Wskcjh8NAkD+/bp7fNFPn9dDx83/zaPZ+2k3yZYty9bjfH3Um/Jnmc5OHlcNx8Ox4+Xp+X329P887568fh53zC7wUXM0mcUZH/LCuBqbR/K18XwH73egkQYjGAGIk7ADBxNQCp1AEgVGrJADKPlduAQqkbQGHqwAcFRDaAGilU4IOa5ACZclgHzC5aWmujWNYBqRPbGxqOQ4nUggUICfChxXHeGZCJAa09kWQPSAwAhUL3gCYAoLRallqB0ujKkvOhUUU+9GHAAHSVBvKhDwPOAIGBU0C2au0qjQwA7QpQMaCO/DoDOg6c5nTygIZ8EErVAzq6IXgtKQCyxBSKd7qBSDd1sXhaUU6rELJNIPWqRgxwLAUS4IOaFJz4dAWxxD4OrVJE8g7UXU4XYlBmZhetvOcURRmn2rxK0YJuqCRXJmV0gyakAzQKOOOKi4OKBeRDYPa1ssch4LUrqhNTGtVzzYnuykYZK2s0FVvJ9AjIq6rZFteZB+RD8lXggoc1ROD/QmiLEPFGVQAowXfez4J7u83VoecLnhpIa8kUHbFnRd5u1cnPJ0p1BCYFGYG6UFMEkUi+MmkKdbD/Sq01DLHcNoiitSdXqiAfxE9wSechNDlQtMoTPQFVJT9ohHPbvm2/zlI2AmoP3l+dA0NVqwGz3UoPQPvT6PhnB2CN1OlQbIAZ8ql0dL8fZVnQRGe/H/Cj5rqximEFVjpcQQ1wVlUBteL4RCOShqfaPpignucnhhWcdhDQZ3W/a8zt7vlWP/eeMPcB+vH5YnrZ7ffLg+vyf//C0qXldSaPfwE=);lineShape=1;dashed=1;" parent="1" vertex="1">
                    <mxGeometry x="198.15361571616495" y="272.15453279136887" width="30.57835961077003" height="24.20224114265439" as="geometry"/>
                </mxCell>
                <mxCell id="15" value="" style="shape=stencil(lVjbUhsxDP2avGpsy5btZ0r/gxlCyZQSJoRe/r7aZrxE2t1DeQuLzlqWjo6k3fHN6+Pdy36Xwuv5dPy+/3W4Pz/u+MsupcPz4/50OOuvHd/u+ObheNp/Ox3fnu8vf7/cTZbTrx/Hn9Mbfl9wIpTThErhz+VJoFD+Pfh6sX86PF/Z10TSnb2EbfsWSdjYR+oZ2DcqYuyZetq270zV2st4sG5fKVn/Y6AYAaBTdoBMEUQoBo1gsAj1qcMjpFpAp9YAoFGzJ2iUArpEpWqzoGGK6IRCJVpAp4rykMb75rwxMYNEq0vZAirFCplUbSJyJAZUqpmaPSEXygAglXKxgD6erAJKH1wegKKXBmEtyVdbUT6CS6vHjq4SKQIucSOxJ0ihAPLAyZNP9BWAS6lSt+SrcdBxHaD14gB50HEdoFe0NV01M8Cl2KhatjasYlqQbC/d5jCsA9hTownUsZgo2BN6oAIKKEYvZCptCd1BAdYlrfKCXIqUrQiojqASVWUslt6qVIhLfQjjlX0B5VAXDnUo9sX7c6W16+Qmaf6ABg7QpIm3R8QL1BYRRaWgrWZhH0C30tu5BKhcQPviEiCje61n2IuF6n5DYkExe3skwdnro9oH4I94xf7AXpVq6Q/szQuGlnHkVs2k6CNaQIanqnQArPAKEKuOEycQIHj9nUiHmj/JktSgCNqo8euiAaSQ0bb/tyozpUVVdtRx/Eg4yQqK0OiQ17IFLhyIFwFlWPVuvpuEF77/s/bJtY5EHbGa2FZx64OEW6poE9wK7Md1zAOz/dygtxjqumttuDPxmMtmgHqEMly9MOpe0oFQaIxc/66Yo8pqt+fopoRah85RzUZJGGo1LxYLHScZALIM1syAMjK/3i7Z36FEKI+iu5wbgCt0SSfm5EZshqVT2Y9FGgYIqL7F8jwSb60J7BaROG61DuBRXPOq08bysw4oXo+mwQSdIL5AVdIymIsU0NzO2eF4qgC/ZZdRIVt3SPbS2oc63r66vXSDGlxlFPD7Xo6YpOXoYlTGrLTOvDwGg5l5UFNFy9NRG04uspiuMwyolk7z3y0E+a8in5w9+qpQ5i8CM4fG7LZpn509mirUn2j9iVSw/9V95MDxiX40DXDL1Hy5phNg2avYtuTsAygx3Yqjfz/qB5/9Tvaxvf54/yj3cHh6unzTu/6//4injy4fAPn2Lw==);lineShape=1;dashed=1;" parent="1" vertex="1">
                    <mxGeometry x="245.73669966497232" y="70.33434200078477" width="38.521777932487566" height="91.5194073648925" as="geometry"/>
                </mxCell>
                <mxCell id="17" value="" style="rounded=0;whiteSpace=wrap;html=1;fillColor=none;strokeColor=#b85450;strokeWidth=3;" parent="1" vertex="1">
                    <mxGeometry x="60" y="160" width="830" height="250" as="geometry"/>
                </mxCell>
                <mxCell id="16" value="" style="shape=stencil(rVfLctswDPwaXTEgwec5Tf8jM3FqTV074zh9/H2haugItLV2ZnqTZSxJYBcLapCHt+3T62bw/HY6Hr5vfo3Pp+0gXwbvx/12cxxP+jTI4yAPL4fj5tvx8L5/nn+/Pk2R09OPw89phd8zziXKYUJ5/jO/8Y5S/ffm6wzYjXsL8MkAglAWCJBoAIlJECBTqQaQM2VeB4ij7OwOmVJYBwSmao8UCxWwQ3RUvE06k/frgKRJZwPQQ6a4DigXZRWKKL6QZxPvKICiVm7LtXgmj+KFOHfxnEB8pOi6+IrilSF7fk/FgfhKzjIQcb6Vqo0vsJ5TvD2/U87xBmxV6gJVIDrNuGPAZXwkzbADVJKCObM5TCSjIzGF2gMYq85Zt3CldcaqrC0NagfIXooWUSxAqGQIkI4HpgSUp4BUrL20Fa7HR8qWhkABpZwvikoMSCi12edH50SwfvWtcRedCbyrhivrI9ml3hw9ObR+aYQu6gPqqY3TTRwtGFC143N+C4YzknW9aBxpOa2l4DrRpUb6/wHoBGMLCAnaS5J+gCTVLegDHVG1k3WGDhwciXUL7e4AAMJtCjeASkUAD5M32BwWXF4vUz/5VbwV9MJlCh5OBW7+eedVhJsy77zrXCj1xmXqbM8Lh2cYX+0lYXJTwMC5cxczCvWmUOqGoIey1gnVre8ogvqo03bn5zZ2r/dZz9eNeN1ewmcOpMbQXStuZKwFTPKZkjodH10OmDP9u5sfN0Rx9QqP7st33Pn14eOL4WXc7eYPjuX//ReGvpq/TuTxLw==);lineShape=1;dashed=1;" parent="1" vertex="1">
                    <mxGeometry x="241.9191895816732" y="143.61155454661434" width="23.8161851247862" height="18.338162055935406" as="geometry"/>
                </mxCell>
            </root>
        </mxGraphModel>
    </diagram>
    <diagram id="XA0mv2SkifMDHoibPJcO" name="cpu_line_chart">
        <mxGraphModel dx="1485" dy="1119" grid="0" gridSize="10" guides="1" tooltips="1" connect="1" arrows="1" fold="1" page="0" pageScale="1" pageWidth="827" pageHeight="1169" math="0" shadow="0">
            <root>
                <mxCell id="0"/>
                <mxCell id="1" parent="0"/>
                <mxCell id="v7H2bLbcUyuyKGjq6bcg-3" value="html (Frontend)" style="swimlane;whiteSpace=wrap;html=1;fillColor=#dae8fc;strokeColor=#6c8ebf;" vertex="1" parent="1">
                    <mxGeometry x="84" y="260" width="696" height="150" as="geometry"/>
                </mxCell>
                <mxCell id="v7H2bLbcUyuyKGjq6bcg-1" value="&lt;div style=&quot;background-color: rgb(255, 255, 255); font-family: &amp;quot;Droid Sans Mono&amp;quot;, &amp;quot;monospace&amp;quot;, monospace; font-size: 14px; line-height: 19px;&quot;&gt;&lt;span style=&quot;color: #800000;&quot;&gt;&amp;lt;script&lt;/span&gt; &lt;span style=&quot;color: #e50000;&quot;&gt;src&lt;/span&gt;=&lt;span style=&quot;color: #0000ff;&quot;&gt;&quot;https://cdn.jsdelivr.net/npm/chart.js&quot;&lt;/span&gt;&lt;span style=&quot;color: #800000;&quot;&gt;&amp;gt;&amp;lt;/script&amp;gt;&lt;/span&gt;&lt;/div&gt;" style="text;html=1;align=center;verticalAlign=middle;resizable=0;points=[];autosize=1;strokeColor=none;fillColor=none;" vertex="1" parent="v7H2bLbcUyuyKGjq6bcg-3">
                    <mxGeometry x="-4" y="25" width="540" height="30" as="geometry"/>
                </mxCell>
                <mxCell id="v7H2bLbcUyuyKGjq6bcg-2" value="&lt;div style=&quot;color: rgb(0, 0, 0); background-color: rgb(255, 255, 255); font-family: &amp;quot;Droid Sans Mono&amp;quot;, &amp;quot;monospace&amp;quot;, monospace; font-weight: normal; font-size: 14px; line-height: 19px;&quot;&gt;&lt;div&gt;&lt;span style=&quot;color: #800000;&quot;&gt;&amp;lt;canvas&lt;/span&gt;&lt;span style=&quot;color: #000000;&quot;&gt; &lt;/span&gt;&lt;span style=&quot;color: #e50000;&quot;&gt;id&lt;/span&gt;&lt;span style=&quot;color: #000000;&quot;&gt;=&lt;/span&gt;&lt;span style=&quot;color: #0000ff;&quot;&gt;&quot;cpuChart&quot;&lt;/span&gt;&lt;span style=&quot;color: #000000;&quot;&gt; &lt;/span&gt;&lt;span style=&quot;color: #e50000;&quot;&gt;width&lt;/span&gt;&lt;span style=&quot;color: #000000;&quot;&gt;=&lt;/span&gt;&lt;span style=&quot;color: #0000ff;&quot;&gt;&quot;500px&quot;&lt;/span&gt;&lt;span style=&quot;color: #800000;&quot;&gt;&amp;gt;&amp;lt;/canvas&amp;gt;&lt;/span&gt;&lt;/div&gt;&lt;/div&gt;" style="text;whiteSpace=wrap;html=1;" vertex="1" parent="v7H2bLbcUyuyKGjq6bcg-3">
                    <mxGeometry x="36" y="100" width="410" height="40" as="geometry"/>
                </mxCell>
                <mxCell id="v7H2bLbcUyuyKGjq6bcg-5" value="&lt;div style=&quot;color: rgb(0, 0, 0); background-color: rgb(255, 255, 255); font-family: &amp;quot;Droid Sans Mono&amp;quot;, &amp;quot;monospace&amp;quot;, monospace; font-weight: normal; font-size: 14px; line-height: 19px;&quot;&gt;&lt;div&gt;&lt;span style=&quot;color: #000000;&quot;&gt;    &lt;/span&gt;&lt;span style=&quot;color: #800000;&quot;&gt;&amp;lt;script&lt;/span&gt;&lt;span style=&quot;color: #000000;&quot;&gt; &lt;/span&gt;&lt;span style=&quot;color: #e50000;&quot;&gt;src&lt;/span&gt;&lt;span style=&quot;color: #000000;&quot;&gt;=&lt;/span&gt;&lt;span style=&quot;color: #0000ff;&quot;&gt;&quot;{{ url_for('static', filename='script.js') }}&quot;&lt;/span&gt;&lt;span style=&quot;color: #000000;&quot;&gt; &lt;/span&gt;&lt;span style=&quot;color: #e50000;&quot;&gt;defer&lt;/span&gt;&lt;span style=&quot;color: #800000;&quot;&gt;&amp;gt;&amp;lt;/script&amp;gt;&lt;/span&gt;&lt;/div&gt;&lt;div&gt;&lt;span style=&quot;color: #000000;&quot;&gt;&lt;/span&gt;&lt;/div&gt;&lt;/div&gt;" style="text;whiteSpace=wrap;html=1;" vertex="1" parent="v7H2bLbcUyuyKGjq6bcg-3">
                    <mxGeometry x="10" y="55" width="672" height="60" as="geometry"/>
                </mxCell>
                <mxCell id="v7H2bLbcUyuyKGjq6bcg-6" value="script.js" style="swimlane;whiteSpace=wrap;html=1;fillColor=#dae8fc;strokeColor=#6c8ebf;" vertex="1" parent="1">
                    <mxGeometry x="84" y="450" width="696" height="410" as="geometry"/>
                </mxCell>
                <mxCell id="v7H2bLbcUyuyKGjq6bcg-7" value="&lt;div style=&quot;color: rgb(0, 0, 0); background-color: rgb(255, 255, 255); font-family: &amp;quot;Droid Sans Mono&amp;quot;, &amp;quot;monospace&amp;quot;, monospace; font-weight: normal; font-size: 14px; line-height: 19px;&quot;&gt;&lt;div&gt;&lt;span style=&quot;color: #0000ff;&quot;&gt;const&lt;/span&gt;&lt;span style=&quot;color: #000000;&quot;&gt; cpuCtx = document.getElementById(&lt;/span&gt;&lt;span style=&quot;color: #a31515;&quot;&gt;&quot;cpuChart&quot;&lt;/span&gt;&lt;span style=&quot;color: #000000;&quot;&gt;).getContext(&lt;/span&gt;&lt;span style=&quot;color: #a31515;&quot;&gt;&quot;2d&quot;&lt;/span&gt;&lt;span style=&quot;color: #000000;&quot;&gt;);&lt;/span&gt;&lt;/div&gt;&lt;div&gt;&lt;span style=&quot;color: #0000ff;&quot;&gt;&lt;/span&gt;&lt;/div&gt;&lt;/div&gt;" style="text;whiteSpace=wrap;html=1;" vertex="1" parent="v7H2bLbcUyuyKGjq6bcg-6">
                    <mxGeometry x="8" y="30" width="701" height="30" as="geometry"/>
                </mxCell>
                <mxCell id="v7H2bLbcUyuyKGjq6bcg-9" value="&lt;div style=&quot;color: rgb(0, 0, 0); background-color: rgb(255, 255, 255); font-family: &amp;quot;Droid Sans Mono&amp;quot;, &amp;quot;monospace&amp;quot;, monospace; font-weight: normal; font-size: 14px; line-height: 19px;&quot;&gt;&lt;div&gt;&lt;span style=&quot;color: #0000ff;&quot;&gt;const&lt;/span&gt;&lt;span style=&quot;color: #000000;&quot;&gt; cpuChart = &lt;/span&gt;&lt;span style=&quot;color: #0000ff;&quot;&gt;new&lt;/span&gt;&lt;span style=&quot;color: #000000;&quot;&gt; Chart(cpuCtx, {&lt;/span&gt;&lt;/div&gt;&lt;div&gt;&lt;span style=&quot;color: #000000;&quot;&gt;  type: &lt;/span&gt;&lt;span style=&quot;color: #a31515;&quot;&gt;&quot;line&quot;&lt;/span&gt;&lt;span style=&quot;color: #000000;&quot;&gt;,&lt;/span&gt;&lt;/div&gt;&lt;div&gt;&lt;span style=&quot;color: #000000;&quot;&gt;  data: {&lt;/span&gt;&lt;/div&gt;&lt;div&gt;&lt;span style=&quot;color: #000000;&quot;&gt;    labels: [],&lt;/span&gt;&lt;/div&gt;&lt;div&gt;&lt;span style=&quot;color: #000000;&quot;&gt;    datasets: [&lt;/span&gt;&lt;/div&gt;&lt;/div&gt;" style="text;whiteSpace=wrap;html=1;" vertex="1" parent="v7H2bLbcUyuyKGjq6bcg-6">
                    <mxGeometry x="8" y="60" width="341" height="120" as="geometry"/>
                </mxCell>
                <mxCell id="v7H2bLbcUyuyKGjq6bcg-10" value="&lt;div style=&quot;color: rgb(0, 0, 0); background-color: rgb(255, 255, 255); font-family: &amp;quot;Droid Sans Mono&amp;quot;, &amp;quot;monospace&amp;quot;, monospace; font-weight: normal; font-size: 14px; line-height: 19px;&quot;&gt;&lt;div&gt;&lt;span style=&quot;color: #0000ff;&quot;&gt;function&lt;/span&gt;&lt;span style=&quot;color: #000000;&quot;&gt; updateCharts() {&lt;/span&gt;&lt;/div&gt;&lt;div&gt;&lt;span style=&quot;color: #000000;&quot;&gt;  fetch(&lt;/span&gt;&lt;span style=&quot;color: #a31515;&quot;&gt;&quot;/data&quot;&lt;/span&gt;&lt;span style=&quot;color: #000000;&quot;&gt;)&lt;/span&gt;&lt;/div&gt;&lt;div&gt;&lt;span style=&quot;color: #000000;&quot;&gt;    .then((response) &lt;/span&gt;&lt;span style=&quot;color: #0000ff;&quot;&gt;=&amp;gt;&lt;/span&gt;&lt;span style=&quot;color: #000000;&quot;&gt; response.json())&lt;/span&gt;&lt;/div&gt;&lt;div&gt;&lt;span style=&quot;color: #000000;&quot;&gt;    .then((data) &lt;/span&gt;&lt;span style=&quot;color: #0000ff;&quot;&gt;=&amp;gt;&lt;/span&gt;&lt;span style=&quot;color: #000000;&quot;&gt; {&lt;/span&gt;&lt;/div&gt;&lt;div&gt;&lt;span style=&quot;color: #000000;&quot;&gt;      &lt;/span&gt;&lt;span style=&quot;color: #008000;&quot;&gt;// CPU Chart: Update last 30 values&lt;/span&gt;&lt;/div&gt;&lt;div&gt;&lt;span style=&quot;color: #000000;&quot;&gt;      cpuChart.data.labels = data.cpu.map((d) &lt;/span&gt;&lt;span style=&quot;color: #0000ff;&quot;&gt;=&amp;gt;&lt;/span&gt;&lt;span style=&quot;color: #000000;&quot;&gt; d.time);&lt;/span&gt;&lt;/div&gt;&lt;div&gt;&lt;span style=&quot;color: #000000;&quot;&gt;      cpuChart.data.datasets[&lt;/span&gt;&lt;span style=&quot;color: #098658;&quot;&gt;0&lt;/span&gt;&lt;span style=&quot;color: #000000;&quot;&gt;].data = data.cpu.map((d) &lt;/span&gt;&lt;span style=&quot;color: #0000ff;&quot;&gt;=&amp;gt;&lt;/span&gt;&lt;span style=&quot;color: #000000;&quot;&gt; d.cpu);&lt;/span&gt;&lt;/div&gt;&lt;div&gt;&lt;span style=&quot;color: #000000;&quot;&gt;      cpuChart.update(&lt;/span&gt;&lt;span style=&quot;color: #a31515;&quot;&gt;'none'&lt;/span&gt;&lt;span style=&quot;color: #000000;&quot;&gt;);&lt;/span&gt;&lt;/div&gt;&lt;/div&gt;" style="text;whiteSpace=wrap;html=1;" vertex="1" parent="v7H2bLbcUyuyKGjq6bcg-6">
                    <mxGeometry x="8" y="170" width="561" height="180" as="geometry"/>
                </mxCell>
                <mxCell id="v7H2bLbcUyuyKGjq6bcg-11" value="&lt;div style=&quot;color: rgb(0, 0, 0); background-color: rgb(255, 255, 255); font-family: &amp;quot;Droid Sans Mono&amp;quot;, &amp;quot;monospace&amp;quot;, monospace; font-weight: normal; font-size: 14px; line-height: 19px;&quot;&gt;&lt;div&gt;&lt;span style=&quot;color: #000000;&quot;&gt;setInterval(updateCharts, &lt;/span&gt;&lt;span style=&quot;color: #098658;&quot;&gt;1000&lt;/span&gt;&lt;span style=&quot;color: #000000;&quot;&gt;);&lt;/span&gt;&lt;/div&gt;&lt;br&gt;&lt;/div&gt;" style="text;whiteSpace=wrap;html=1;" vertex="1" parent="v7H2bLbcUyuyKGjq6bcg-6">
                    <mxGeometry x="8" y="360" width="301" height="30" as="geometry"/>
                </mxCell>
                <mxCell id="v7H2bLbcUyuyKGjq6bcg-12" value=".py&amp;nbsp; (backend)" style="swimlane;whiteSpace=wrap;html=1;fillColor=#e1d5e7;strokeColor=#9673a6;" vertex="1" parent="1">
                    <mxGeometry x="84" y="900" width="696" height="280" as="geometry"/>
                </mxCell>
                <mxCell id="v7H2bLbcUyuyKGjq6bcg-13" value="&lt;div style=&quot;color: rgb(0, 0, 0); background-color: rgb(255, 255, 255); font-family: &amp;quot;Droid Sans Mono&amp;quot;, &amp;quot;monospace&amp;quot;, monospace; font-weight: normal; font-size: 14px; line-height: 19px;&quot;&gt;&lt;div&gt;&lt;span style=&quot;color: #000000;&quot;&gt;@app.route(&lt;/span&gt;&lt;span style=&quot;color: #a31515;&quot;&gt;'/data'&lt;/span&gt;&lt;span style=&quot;color: #000000;&quot;&gt;)&lt;/span&gt;&lt;/div&gt;&lt;div&gt;&lt;span style=&quot;color: #0000ff;&quot;&gt;def&lt;/span&gt;&lt;span style=&quot;color: #000000;&quot;&gt; data():&lt;/span&gt;&lt;/div&gt;&lt;div&gt;&lt;span style=&quot;color: #0000ff;&quot;&gt;&amp;nbsp; &amp;nbsp; return&lt;/span&gt;&lt;span style=&quot;color: #000000;&quot;&gt; jsonify(cpu=list(cpu_list), memory=list(memory_list))&lt;/span&gt;&lt;/div&gt;&lt;/div&gt;" style="text;whiteSpace=wrap;html=1;" vertex="1" parent="v7H2bLbcUyuyKGjq6bcg-12">
                    <mxGeometry x="10" y="30" width="560" height="70" as="geometry"/>
                </mxCell>
                <mxCell id="v7H2bLbcUyuyKGjq6bcg-14" value="&lt;div style=&quot;color: rgb(0, 0, 0); background-color: rgb(255, 255, 255); font-family: &amp;quot;Droid Sans Mono&amp;quot;, &amp;quot;monospace&amp;quot;, monospace; font-weight: normal; font-size: 14px; line-height: 19px;&quot;&gt;&lt;div&gt;&lt;span style=&quot;color: #0000ff;&quot;&gt;def&lt;/span&gt;&lt;span style=&quot;color: #000000;&quot;&gt; collect_data():&lt;/span&gt;&lt;/div&gt;&lt;div&gt;&lt;span style=&quot;color: #000000;&quot;&gt;&amp;nbsp; &amp;nbsp; memory_update_counter = &lt;/span&gt;&lt;span style=&quot;color: #098658;&quot;&gt;0&lt;/span&gt;&lt;span style=&quot;color: #000000;&quot;&gt;  &lt;/span&gt;&lt;span style=&quot;color: #008000;&quot;&gt;# Track when to update memory&lt;/span&gt;&lt;/div&gt;&lt;div&gt;&lt;span style=&quot;color: #000000;&quot;&gt;&lt;/span&gt;&lt;span style=&quot;color: #0000ff;&quot;&gt;&amp;nbsp; &amp;nbsp; while&lt;/span&gt;&lt;span style=&quot;color: #000000;&quot;&gt; &lt;/span&gt;&lt;span style=&quot;color: #0000ff;&quot;&gt;True&lt;/span&gt;&lt;span style=&quot;color: #000000;&quot;&gt;:&lt;/span&gt;&lt;/div&gt;&lt;div&gt;&lt;span style=&quot;color: #000000;&quot;&gt;&amp;nbsp; &amp;nbsp; &amp;nbsp; &amp;nbsp; timestamp = time.strftime(&lt;/span&gt;&lt;span style=&quot;color: #a31515;&quot;&gt;&quot;%H:%M:%S&quot;&lt;/span&gt;&lt;span style=&quot;color: #000000;&quot;&gt;)  &lt;/span&gt;&lt;span style=&quot;color: #008000;&quot;&gt;# Generate timestamp&lt;/span&gt;&lt;/div&gt;&lt;div&gt;&lt;span style=&quot;color: #000000;&quot;&gt;        &lt;span style=&quot;white-space: pre;&quot;&gt;&#9;&lt;/span&gt;cpu_usage = psutil.cpu_percent(interval=&lt;/span&gt;&lt;span style=&quot;color: #098658;&quot;&gt;0.5&lt;/span&gt;&lt;span style=&quot;color: #000000;&quot;&gt;) &lt;/span&gt;&lt;span style=&quot;color: #008000;&quot;&gt;# Store CPU usage (2Hz)&lt;/span&gt;&lt;/div&gt;&lt;div&gt;&lt;span style=&quot;color: #000000;&quot;&gt;        &lt;span style=&quot;white-space: pre;&quot;&gt;&#9;&lt;/span&gt;cpu_list.append({&lt;/span&gt;&lt;span style=&quot;color: #a31515;&quot;&gt;&quot;time&quot;&lt;/span&gt;&lt;span style=&quot;color: #000000;&quot;&gt;: timestamp, &lt;/span&gt;&lt;span style=&quot;color: #a31515;&quot;&gt;&quot;cpu&quot;&lt;/span&gt;&lt;span style=&quot;color: #000000;&quot;&gt;: cpu_usage})&lt;/span&gt;&lt;/div&gt;&lt;div&gt;&lt;span style=&quot;color: #000000;&quot;&gt;        &lt;span style=&quot;white-space: pre;&quot;&gt;&#9;&lt;/span&gt;memory_usage = psutil.virtual_memory().percent &lt;/span&gt;&lt;/div&gt;&lt;div&gt;&lt;span style=&quot;color: #000000;&quot;&gt;        &lt;span style=&quot;white-space: pre;&quot;&gt;&#9;&lt;/span&gt;memory_list.append({&lt;/span&gt;&lt;span style=&quot;color: #a31515;&quot;&gt;&quot;time&quot;&lt;/span&gt;&lt;span style=&quot;color: #000000;&quot;&gt;: timestamp, &lt;/span&gt;&lt;span style=&quot;color: #a31515;&quot;&gt;&quot;memory&quot;&lt;/span&gt;&lt;span style=&quot;color: #000000;&quot;&gt;: memory_usage})&lt;/span&gt;&lt;/div&gt;&lt;/div&gt;" style="text;whiteSpace=wrap;html=1;" vertex="1" parent="v7H2bLbcUyuyKGjq6bcg-12">
                    <mxGeometry x="6" y="110" width="648" height="170" as="geometry"/>
                </mxCell>
                <mxCell id="v7H2bLbcUyuyKGjq6bcg-15" value="" style="shape=stencil(lVfLchpBDPyavao0mvfZcf7DVcaBCjEuTF5/H022FiOFbcJtWdSrkdRqaab48L59ettMwu+n4+Hr5ufu+bSd4qdJZPe63Rx3J32a4uMUH14Ox82X4+H76/P8++1pWI6nb4cf4wu/ZlwgKQMk/Ht+kSM1/vvm82y/371e2Gcq0dinRCGt24dE2QJipw4AeqJSLaBRqOuAyMTBAgoxCEG/152HREnWAamRZAvQJBWQpErVAYRaXweUTN1liamHdUCNJGwA0igBD7URJwvIlEAdWqBumSFMrQFAptAMIGRY6aZ1tR5CWD5xFdD1ADZLhXIG9pV6N/YMidGbJ3egDJjXuy9CoQh4pPbF0iLEhShrgC62BpEYVDnwOcILqkZAVXXRbDOkSAkVoVO2RMpCEZxJAewkpi+FXytDsoCCo9Y6N/GAijxUCpYYJWAPhYqLIVNEWSpeV1MlAQ2tAHaSUSkhbpR/Glqjwh7EAoIeCdG7+HZQ4UQxV9/PN8tWrWAwCWqftqj0h33BTGVrrzKPEqTMtvaqR4z7ubl+7otC/W97irY4kqTuB0PihburGuP6Wd/gIMR60OklN1TSeihCAUStAHayHeFwux+gdaoe0EDQOnqik5iEAdruttQ6sguoQ5OF+2dAgUKsAzq4oCtFMD7HCuCO1GE/jCXDZqmqcoO0jjXGARIciGNRcoDzYnN9Fet+d6sVttxY9mzhaqcIPOgIr07EhDIIWhdWr3p5Ef/rafUhKBvRNqn7rZXh0eNA6HVDt0S6UJGrAF4+d3bQqEJ7f6AC+5kp2iJ3gZOKl/X9nNAKt2f2g00rVuB5nKYODt3z/Rrg6sx+rGknC86Ps9c1EvQlL/p8IcBoirBfCnOGa/O9V7zb9vrwcZ982e3383X08n9//9RX8901Pv4B);lineShape=1;" vertex="1" parent="1">
                    <mxGeometry x="437.4779730024077" y="308.6204715570875" width="98.67520018703817" height="6.146782315153814" as="geometry"/>
                </mxCell>
                <mxCell id="v7H2bLbcUyuyKGjq6bcg-17" value="" style="shape=stencil(nVbLbhsxDPyavRLUWzyn6X8EiFMv6tqB47TN34fqQm6oxY7T3uT1jERxhhSncPeyf3jeTZ5fLufT992v+fGyn8KXyfv5uN+d54uupnA/hbun03n37Xx6PT4uv58fGrKtfpx+th1+LzxHMTaS57flAxPznw9fF/hhPn6EZwrZ4D1x2MaHSIUNPlBy2/iYKYrBR0plG58qSTH4Qgz2L4l8MPhKFcQvTOIM3jHVCgiVig3I6ZEgIhFyA6FQRiEJJW8liOQjJNRBg0gBE8SKrLKgSzu+uqYzMlO6cYQllEBVICFbY9R064RQDUE0TRkShjs0aRKUOslIyNgb3ppJElXkjULVeqMWEnTpq3Wuac04raWX41U41cFjgnVfYnKgY7SQknVf6Y7fIgzW8LlLuZlW28OcFjUWbsiS1ig8Qa0xnJBvVVC0adVGm3EXKDatgXveNgvIEqLvyny2RlPqdb55hFUuC2zG7RKDXR22q4zdXhwVfGtnlWtuQf7WdjxIzfiF+w8Gj4aVTB7YqT1CVjvtAwzy1F4525AFd/D1MyqBIkjs+p3WE6CdVoOAXhpODuOgoYlGk4MjlnH/DPZnKkM8vtfgBj7a50HfkwL397YYWmcF1aOesftnzRhw6ro6Y6/wz+FjgH14FU9wcMxY3VcVQW17lU/nKcD4B70SbJArO6ifkD3/cay9BdfF3wn6aT4clgH84//jxK2flmk93L8D);lineShape=1;" vertex="1" parent="1">
                    <mxGeometry x="461.75271810053096" y="342.42954774938266" width="101.70000766916542" height="3.00306231577747" as="geometry"/>
                </mxCell>
                <mxCell id="v7H2bLbcUyuyKGjq6bcg-18" value="" style="shape=stencil(lVjbUhxBCP2afaW6oenLs0n+wyo1bsWopeb292Gy1ePA7B4rb3uBmaY5HA4c5Or1/vr59sDp9e3l6dvtr+PN2/1BPh2Yj4/3ty/HN/t0kM8Hubp7ern9+vL04/Hm9P35erFcPn1/+rk84ffJrwolXrw4/Tn9kij1fz98Odk/HB+39p24OftMXS/bN6Hmn18oFWDfiNXZK5Vx2b5nytnZNxJwnq6Ui7MfVBqwH/H5OVMFFzQ4viALVXCiUUj9DWUlRQ6VJHkHixnEMBq1EMMgEeDQqXsHyzKMYZB272BpzpcdcjKY+SC4Uk3wFd0DwzLXKgxieKSKECOHRml4h0b5g8z5ayorGs87ZCriHZQSQl+L1VYsKlQOTOrRp0wVBG31Jh59WieAzztYDD7VahUE3lCV2AddmRqoILUQfQz2iAFuyUIMHFMHjKFYBflMNyYGRyqJamAZiwqgVTQmrnXIe5JI/LX2RA1k2sqFg4NM6jzvwDR8DMaFBcRgJDHCGxosIKMhDm+wVAKeyYV6IONEhRFt0KjeQSiDGBqpT8NQquBEJXafhUUAMIS6ZzGjqQLtc4/2HcCCY7FtiPP8DVHT+IKBcjb5Z2PfAIWl2KzMngFM02TQzYU2EPCuLZg9otQUOdtYHPVzw5eHqHXTDs8/ONoXBOkd4DCd8ry9jX0CVSyzrW6fD/K7ao/t+cH9lF2+6mTjC/ZF4/0rqOCd2FnyC85fpprb4gfkS2LTH1jqyKTALf5hvkKrWeoL3Gee7XprD86fI6svBAHxX3f2BeAnnSM4cD8pjgdmLyC/Zu+bveEByeW0i7fB+eN/7YUkdBiB+DERGvK1VvSljhQclokBEQRHRrGu2hFD65RXq0OduvO8Q98pA1OZ4A0GOvFJMykh4FKtKnuIIWOHHsvA5NBA+kkmKleHCvuAWJkHhWZyCBGXTuGwOiTYyTRH0VjxeKBtDjSrg0UFHOzvMHbVBEecOqIcsncWJN41zmlqhI8GkDRH0dUhQX7sZYa4TiwNErxJxBpmIoESygoytEzLfUVTl0Rpbeoc7Sxsrgt5EIZN00SlhmF24BFe5/M28zKiYTsS+0wvyg058JQRmyUBHJd3SsqIB6HVaCsMsybnE2gNRiq6W6Ug7dXsEkMzoQ7SYOgOarxD3mscs1Bh1t7r/X2XhYBX8w5HcFgx+yBOGYLC7FPYusBea2wSaJvh3sjsg3hkuNQxew0QgsPW8vyAIEjZCxv6eC0gFG/e7zYV0WmOYjPNTdsl+ybBHvWoypMJN7tWbB8aCJ79ll1uPA/c5X64+7UP74vju+PDw2nvvP0/Lprtp9OSWj7/BQ==);lineShape=1;" vertex="1" parent="1">
                    <mxGeometry x="455.4666182286164" y="342.8139258080389" width="98.08319484147887" height="111.99030188050324" as="geometry"/>
                </mxCell>
                <mxCell id="v7H2bLbcUyuyKGjq6bcg-21" value="" style="shape=stencil(lVfZctswDPwavWIIguLxnKb/kZk4taeunXGcHn9fqBoqBiztNG+yzBWwOBbgIA9v+6fX3RDD2/Vy/r77dXi+7gf5MsR4OO13l8NVnwZ5HOTh5XzZfbuc30/P8+/Xp+nk9PTj/HP6wu8ZlwJlmVAx/JnfcKAQ/r35OgOOh9MNQHL/ewE0agUAmDgbgAhx3AbETNkCUqWGAJHEAvJIDDhE9qRLogo4aJSEDaBq3AAgVyrRAhKlvA1oTLFYwAhJt9SDuAAySQKAu7DWQkkAoFK2ma6NQgWARiUZgLJihoBmSTfpgd4CRMuhjZRGACiUmwUUbEG/Z8M6haEBQKRcLaBBlzSIpXjACFzSvLbmXarIQvLlraRHUHw1UhMf1oIBwZEWysilSOxIMyVQrVU1wlrQuAnoOG2X4Fq0YJe0+l3HZdyigaLNw9SiqOOEYvAWkPJp1GvxHJAYayEEm7haKeEWTa6BAiVggUPweq8VP4JEqAknGypVqJiUhDhA7kKypWTR6czyia1E+IZoXW63Uu2VrGHSnwVkTexoADeRXp9B2pLNm0CsJVJqPq4V5VpddiSEAtC+cjezVKqAkt2VUil9TK471K0vc52pgu9r+9g0a8xGUEjMvkGjij1ySIeHnQ6c4PKjFNyEW2Rq/bz4htaBCPo5pl5lCwNYRLpbjZZxgBKm8SjszkfQy7rsheLOw21S+hT4OM+Ar4x+nmvjofPFT2fu03f9fPOLnsBNUhdDp6epG1w/f1/ScAfT82zjU7v2bfnzuXX+PwD68HF7eDkcj/Pl4/Z/f9vQV/NNRR7/Ag==);lineShape=1;" vertex="1" parent="1">
                    <mxGeometry x="452.11282223355533" y="428.5160561280388" width="22.156050215769028" height="29.200012917287495" as="geometry"/>
                </mxCell>
                <mxCell id="v7H2bLbcUyuyKGjq6bcg-22" value="" style="shape=stencil(lVbLctswDPwaXTEEwec5Tf8jM3FqT1074zht8/eBqmFiwPJ2cpMorMTF7kKc5O5l+/C8mWJ4OZ+OPzd/do/n7STfphh3h+3mtDvr1ST3k9w9HU+bH6fj6+FxuX9+mCvnq1/H3/Mb/i64lijXGRXD27JSqZV/C9+X+v3ucFnfKYqpj41auA3oQqEZQCpUECBTZwMousd8G8AhUAgG0ZlSBZ+o/hM9ETcAYCoOUMbKepuYarKARhkASifJFtCpgC3lTNUKcdGHVUSKJOw/kdJtgATKwZMIQInIlKMFqJiABBcSBxBKSOs8Hn8AAtUIAI16N4DWhiHXORTK1q8tQ4NLpWTbqpliAcoFEhu5JiNU695IPkIzAGypVuLot4SE054we9LIfdchbZopwEGtVp351F1g0CiAnfmUdAcA7bqLnAoH7K0UpViAcgBdqjJ6chEgAV0qYSVxHXCYR2P1AGRvUdIO0OB0jclbQydZBcJxpWwDpI0WBMgUnQ46Pb8MAMIpoFsOJUN7s3jSqVIEAG265awrDeh2/QOiAFRT59vRXaArdCTa3Shb5GuqdjOaGzSDNSXWQkwNyBWvTgw6gUGQ1aISXD2D7afk6eLfWk5jjnzWC9C2iB9dPDK0nvpIwdbHMfDX69uYCR9mGy9YlytSsb+0jE9gXz2x/bdeLz6Ph0+7/X45XV4+98dJXVqOonL/Dg==);lineShape=1;" vertex="1" parent="1">
                    <mxGeometry x="558.5671836090653" y="394.11391769677493" width="4.419806808971089" height="22.159911966799655" as="geometry"/>
                </mxCell>
                <mxCell id="v7H2bLbcUyuyKGjq6bcg-24" value="" style="shape=stencil(lVjZctswDPwav2JIkODxnLb/kZk4jadpnHHS6+8L1YUsQtYmeXMUroRjsQC4SzcvD7fP+x2Hl9fT8dv+1+Hu9WGXPu2YD08P+9PhVX/t0uddurk/nvZfT8cfT3fnv59vp5PTr+/Hn9Mbfp9xIsRhQnH4c34SG0n79+TLGfB4eFoAcqGeRkCnWLcBqRH3AcCRqgBAIBlNYqGStwGcKJUBkJgC8EEtzqMPqVAJACBU8wDIkUoCgEQhjgCNG4hSjBTHKAlTA04rYPrfEtCoF2jS/zQZoAjMQ6zURh8qU0Z5yJamGaBcAgBNUx9NahlyKTPF0aSmTvdtgETKY1i7voK3ASVQdYBEDXyhNCrsAQWQr2aj2gyIMNMtUBlNakIZ+NDYLJ4BgRqgt0a9jXmo+oUIAIWyjFzq9orrgGqiMgMyZWSSqsb4BenEKErNuDkDMglI3PSFUQS0RAWZVIxqs2p0SigPmXh0WgmfgWrUlS4xzoMWpAurqncGIqBRd2IcGeZBCsWRrcp3IBoa9DxqcaUKYiSq3WNFK7UAkSZVHO0RCuj9KjEjjxIJSIHaU8dSUL1A/opX1UgBvX9FomAZuX6+UxB3PoB8Fe0j2Z2PSL6SmXs534C/SiBh529H9oil8xJ/VMZTTxr5kyF/9HxywoL9zZTGeFbrENfPr/jWoEho/3BS2q2Arue3UW3uPGP+1OTsQcKr9diLOx/Q+WRzzSWeHSiQrHqNkLxx3qkurt+0kkSo6upvGfMbKSF/i+dDgHzQfK3OB8Tn4PUwwNG0sPc3wHH8o+dr8vYLNXS+2bi04CdoMDp7OD5rg+moSVbT1xlQISN68BXJ8yh8HZC8SVNXBTXZV5xQpxsgde8+SKnBKTOGWcUXwwe0qfvZeqpskLjeV+N+sFZyHdAssYv9AJWahqmPPtQI94MuJj0zoJp6XwewTdKzeCl90UzXfbfRJwEB8kp+8QaiFruVpVe4geh+4AaKRfK3JEZG+mku0aKWq0+E2iSAfqn6ZXNacsAXtEkGl4hmG/HW7uh8mIQB8ZuiGxsFzpls5J/JWuFoHXw1TIMVoN6qPnWTRH05+jabM5xDVqWgOamo2KzLLK84wHnd9t1cxG9cQDSvwxpjtN3w6l4nFps933kRFBmu1llWvSTaTc9W83fLSgz2iq3p3XXPiDflafyK3iTU/6Vae10A0ACp1d/ERwmFVYnsd0C2K7qtkcSN/EqWBjKtAFecMduUvmWSE8npAg05vdJt5ZKgsa3Z+xZTQ8J5cK1EAR0tdsXfHGmFwEnyozep7wDoj8vF7f3h8fF877v8v7/o1UfnS+L0+S8=);lineShape=1;" vertex="1" parent="1">
                    <mxGeometry x="538.6796173456651" y="374.83717468073587" width="38.541115011379134" height="54.18847028552932" as="geometry"/>
                </mxCell>
                <mxCell id="v7H2bLbcUyuyKGjq6bcg-26" value="" style="shape=stencil(lVjLctswDPwaXzEECL7OafofmYlTe+rGGcd9/X2haqiaULQd32QZKxKLBbjSLj68H57e9jsJ79fL+ev+5/H5etjFTzuR4+thfzle7WoXH3fx4eV82X+5nL+/Ps+/356myOnq2/nH9IRfMy5QKRNIwu/5RhTK7e+dz3P86fh6E59IxnhR0rQdz/Y4HQCsNP3cAohQkgGQKZTt+JiJ0xAfKPN2vFoG2cWHABJW4jFjJgEJZ6FSh3h7QN2OL4HqmG+jCJ5fiq8AZyog4dL8AlKooBVqL9CiiUoFUFSUyghQywHknBtxHABp2eQWqTKSao+IQBVWtTxuybJiANBMNQyAmqhEsKVA0kZApJZhoZN6QACFq+sVhBis0Jh0pLUyVZB0Uwr1rhUyafU5MBgXrVJ0OShVIL7WevcugEwN5MBh6d8FYdoAlbMl0kiTEZcRTbV3/AKIsIOMJifXligiXmMnZQFknAN32m8ACWypVkorAFTfsoEFoDBpK2x2AKEGmtqkkx1LAZ49Bkjj6LOsIlpBfQ6WVQC0Ws/X8XCwRwS0pboSn2AtracAU0NaiiS8AoDhalJz09i2VNCWij8gLGlR2EB+MJngccc1R2vtPbgFKCtpNKBWa9EyrmC8MTizLGlXOJN3RZNMuzZvGwgBxA/XqUVRHe4FWF3DKI0pK0BrES8+AyDxZV6ZkwalkaS7wcWdBOyvYun9crNEBrPS3Iu6JLhboo8BzY++6ZQDNMVEOmqjZOg2VPw0NnuCWk5r9xYLwJhGvKp3fSn2cfsxoPpCKD6CJos1ikkaNNKTZXMAhiYuWQuPtE7OFQCUV2KyHMCW7N0luRUqrLS9zrjCSYTunptvuRjw+496x2RmGh0QHEnHSqs1EJAGizfTxhsycRy8/zEAslir2Wp6V9DSuR/7t/GAIyvCKh7N7jVDDF83bExmzygyV6GzsZSsQasUfG/aTFNwMqwMqw0cZNODfwON+Hy+953+//F28e8DwsvxdJq/P9z+7z842K35Y0V8/AM=);lineShape=1;" vertex="1" parent="1">
                    <mxGeometry x="47.108729689098936" y="813.5228717575819" width="29.06940558848646" height="32.59406403059097" as="geometry"/>
                </mxCell>
                <mxCell id="v7H2bLbcUyuyKGjq6bcg-27" value="" style="shape=stencil(lVjbUhsxDP2avGpsyxf5mdL/YIZQMqWECdDL31fbjDeRdvdQ3sIi2dLR0c07vnl9vHvZ71J4fTsdv+9/He7fHnf8ZZfS4flxfzq86a8d3+745uF42n87Hd+f789/v9xNktOvH8ef0wm/z3oslNOklcKf8xf9UP99+HqWfzo8X8snCtHL87Z8YpJg5Dv1vC0fK4kY+cgUG1BIJM0qdArohjAMHgrqQi/bCp1yN/JcKIVteaFmEc2JIoBIKDn5ThyRfLTypVIDDiscFtHKlBBAkZJT6BSBwzGTWE60TBGQSCNUslXQECTAokLVKoj6ADBSmooNmjQKgEY5UqiWp4EKcFqD5JzuiTpQKOJ51DMF4HStxDbQnWGgG1NgbxJiqqJeXTJrZEAqSKJmqSF11IN1herJKpEy8EHmXJypUUhQdkaKlhrKVgbpppg48lVFqQMFhdUGrmSqyCS9wZakXKmAfFCqdVdihARQQ1Eqlq0cqQhQKF5BUyqBfNBIBxu4iAt3a1TtDVrKAyKfcskpzOxaz4dG3SkEqgClMlehS69CIJU5gS/yCKMSF3VvBH5dfhHmOqi4JV9sPhdIVJX3nWogtiUvNtcSVXS+csyeH6miiqfHWfvDAGxdXmeF6uQzOr9QLF4eZL72SfbnC4pXIxbvL8JHfKdN2F/tCJY/GfZZlXcNoWB/2ygiF76huqX4dFu3GpYvnj+zgVv56Pgj48MWH3gxa6Lzk+eDAoDySwcddvh0FK/gp5AyRr3NfLT25BHwzfMtfxjzIXp8InXEB+1zroCOgWEL/2z9nQvMVnzd5BuIUX59Ur6WsZpc7EcNo8Uxd1/wRHxu1Xck3La1R3p7ArxAZ9BmCRHLaAlbw021CGlJScBlHSmbTTEd/xmNHs3HmOeqt67QPYl0uEEsiiGMOWBOmwIXIr3C4aobS8NOiNsnMDO6GmAzrSlMeMp0rVgnqo7mp+pr43QE4saCrH1eetbZmim5GwS2S90n/ALS4ZQ59Q9r0lUs15ci8R1TbUIjiM65zbacrkmI3hP6AleGDxZTz3aR61BBt9nkupT2LQCTrCyzaE3Trc91qQR3qDjWmTkb1B4gH/zUO70PgCKzSE+NogCAwqIARDiWBj+FMOMnIKqWEtrGA4qw3xjTB2uB35I14oxWUs+HDs2ZHqT8lIbW/Nh8fNNIu3V3q0+ZADfq5YtdgPYsXwRxznMfVeciH8H5OfgpVu0HtTovCmOE+Kt881sKwjMnX0cTrEAqn/2UhqbApXzG5SGN17mrKRPZs/C3jor3n3gqAUH6LuPVYOdb8kHge8ynX6A/lNcfl+fuh8PT0/m1/Pr//nlcP52f1vn2Lw==);lineShape=1;" vertex="1" parent="1">
                    <mxGeometry x="39.68659708375367" y="802.8752411901276" width="52.20380559543537" height="50.55365292964757" as="geometry"/>
                </mxCell>
                <mxCell id="v7H2bLbcUyuyKGjq6bcg-28" value="" style="shape=stencil(rVjbbhoxEP2afR3ZHl+f0/Q/IoUUVBoiQm9/37GICR4vZ1mpb4s5x577jD3xw/v26W0zOfN+Oh6+b37vnk/bib9Mzu1et5vj7iRfEz9O/PByOG6+HQ8/X5/Pv9+eKrJ+/Tj8qjv8OfMMBa4kZ/6eF1xb+HqG73evV3BPxnVwWQi34ZlSDw9k4224tVSswheED+RLh48UPMAXilHh0f6inc8dPpFD+ELBKPyHgLN49pS8wkdgTi6UWOETkMeH5p1PfAb7B0vGKvyHQ+bxIq6Wp4D9oyd2Gp9v45Oh1Ps3NwHn8ZGi1XgHwtPO7A/iJ0fyXuOBvsUQhzV4Ju80Hvi3hBl9EV7Cd8hHYP9StL6GjIH42O/v2sItfOrzyxpy+IDSJ5iTkgE8Vgn9CRxbzM6XCHNR8WIjRwkEXT1CFZVMARNy6r3miBM2U59mxVHGWodepJIpA62FwL2Z6plYB9dbSWKRcSipUiTJxMjVuTn2UiskO5BIomKvQ5BsQCINBG9beN0pUu032HFKacsUQUMYzeqXEkj5TfIH768Cw5JdFXkJNvAxtK20iIX87AVi23rovfnpE/FCfvY2ikyMjaSKTJJAWrBSf0IWO2CRVJ2UyrwgkirEV3b4X4yhORRPGQXf0H3KQjEe2tsSYeiflYDmzaFBLxGGCaASQISPI0YlrJphKgH4ehySpNqjKWacwiph1ZhXCUCkcY4Ugl01qArBAU+Pk7AQGJwwjtpCQF13nOWFkFZdFiR+0XQ43kZqwK+67kjGwflTX6dqhgL8cFuTlEXZMFwGpSZ4UPgMeeWDCONImtPgAgPGEtOm00tdDfB2atrpl8KN73emnX7pDBGOSeNoGJpH7sN73yxwnzzMsN0O+jpeZ0/rF/zr9PW3rAkHhrfHlU8Pi3D5+HzleNnt9+dHkuv/9auILJ1fVPjxHw==);lineShape=1;" vertex="1" parent="1">
                    <mxGeometry x="102.78136502313941" y="839.6331297445317" width="265.34992675649005" height="2.981070222850576" as="geometry"/>
                </mxCell>
                <mxCell id="v7H2bLbcUyuyKGjq6bcg-29" value="" style="shape=stencil(lVfLctswDPwaXTEkwRfOafofmYlTe+raGcd9/X2hqnIMslzHN1nGigR2uQAnfnjbPr1upuDezqfj183P3fN5O/GnKYTdYbs57c76NPHjxA8vx9Pmy+n4/fC8/H59miPnp2/HH/MXfi04TxxnUHC/lxchks9/33xe4ve7w1V8ocg2PhGHcbyPVJMFZLiAF5LQAkoZA/Rv1wAKBT8GcKCcW0DiMSA68rEFFJBD1A10KwhYIWnRxQIquTQGZLdW/Qrwb5P/B2SKrgUEB4gOxL4DgC0VLWLsAHUMqIEC35N0VaY78QUBAKHQbMlBLUkgVwzAJypgBYmrci4AD3mQ2qrVweOg8Uma+AJqJELebkiPGyBB41OXsQBdKKBagLJWwQreOXJWepExC2oB1jOSrJ8YAYotqqpXcNZsq1QjFLfSUC1APGVwohUQbJlUKoyEoZZiq6Ri9Cjp0npGTeRRDnmV8qVKERqlApLlQW0noqTVZKplOuGy5lbd7FbrHAGqXcGX1RRGVWpsLK/iGsU3RPvVEkY8N77qsFQriW0NTBUlLG3D9QGXVFqWtaMjG55Pmy0p11WKQ4BdIfH6ZmgZDQfqajeStoenOugxCnB2BbX+jG01WhqEsWPcDYiU7ZaujHDUfLw9bu/mP2xvljlVbwAe0zdQSatNfbBF6yYTsIx+CFAAWqEfM+Ty5oODzAy4a1RSQAQjaz+M3Ui6H/cUgJpDP1AqoAJp9COrqg/ZXj8UKwBVqR+7FYAmn36wV8VHNFC2RjZrD4i1u5lIht/3XcYJZqxzVCc81Hq09dn91AKF6tqjM3sY2L+agz3MRSkGBHRTVY5QdF18SivlH9uPyjyCk9zlywIvSV09maEeOr507uR79DBfFgBf996Eb8frw/u1+2W33y+39uv/22u6vlqu+Pz4Bw==);lineShape=1;" vertex="1" parent="1">
                    <mxGeometry x="191.67022000360816" y="845.0120463430837" width="104.9593120776633" height="3.9178115214147056" as="geometry"/>
                </mxCell>
                <mxCell id="v7H2bLbcUyuyKGjq6bcg-30" value="" style="shape=stencil(rVnbbhw3DP0avxK6i3pO0/8IEKc26tqB4/Ty9+V0wfHqaOZsAvRtd4ZHQ1K88y5/+Pbw6ev9XQrf3l5ffr//6/Hz28Nd/uUupcfnh/vXxzf7dZc/3uUPX15e7397ffn+/Pny/+unjXL79cfLn9sJf19wY0jMGyqFfy5PYggSwn+Pfr0gnh6frxFdkk4IO6MrATQJEQEtE0CRWhBQIgEkGQkBkQGiv94BKr2cA3RI6AhIjQCajDoDuvROACZ0REAiWtIofcyAJo18oau0hIDAAEUG3EOVQrTUgzOwA4o0YhqtLfeQRQlLLUpOCAiEpdokA0tJEjHvGqWCWu2b5B5KEwVAkEpMoyTJswMpd6Cs6HGqMgYBmC1VBDChcxANM4AbX7LX8AW7SsJSyjLmmzaDH0ToZLYELGWX6hAQu8eIHRBpmIlF8ixDH9SnY0QX7c1v5thFRWf/6Ukqcwfn1+mburkfW5LHrJ2eqyhLnAWu6hIdC4yWXbMUcskBY16xqEr4D+5YO71dCeFnT0w7fZBC9LnQZzNbyn+a5d0ciZ4/4HweWyLqJw1R5vh+2k7fPYSf2APYT6qSiUGb9c72nHgw7Sjv5qREn5bm20QfVQrTT5QCxQh3sJg9Su0AsyAigb0eczqISTpzAYvu853FSH3SRFT4QpBIhN6sCFKaBOLEaSl2lF6a2QB4QZfAQ3uc6RutB41doLcPEqOzXANXUCQS/s2n2nwDdunkAsxngZ/kJcAxfcVEE2mQs2wMFbOFGU6fB9KzXKxYRBk9k1fRHgLX51LxBxok8p4U3+kbPz8jP+PG+QP0z4L0xr8CfeX6H3i+Evs3+g4eTwsVoy8zP4n611bNxZ85vy8hS5TZQ/di8ko//PyG57OYu9HPVcee9k/5CUDPyjKjVzw/s/PVw+UP2r/5I/Jzw7+qIj3334V/Gh+Gh8t3eqr/gTkveLt86o8R6JXpc6GP7nCn/CSgp/FzkTe6w53qE3K8t6X/D33D+HYzv/RZ3kLzdc7o70WUVBzZ1Df7Y6VtveXfOtM32n5afocG1xonRl/9Ot/rDXa/pr6C9Uwl+tzMBewn8K5k+BDiqiRjHFlnCH1b3GuKY0CVDiaUvfQ9KysDAKqXsseAhC29MUnLyn2msAP4TGyJQqZnOh3y9n2nLz62O56TYNYws2O9W8GoYhxWlgZwMmR1IxslJaxqrG7stBer0LsVn4Gc0MdZ3hu95EJfAh0jRfQy64XZcC55UrnqtTMLuziEtV6enV9wwFP1hj3ABKlZn0Lk7TiMbJ2GrYEu2SP34cXDevVAfNoaQlxUqiHz2DGzpLyStjuGTkwTZWm9BM3SGKC7T11N2W4kmzCHCa0eOE6z3xyHtPkc+rQ8BkD3hHU2Hl2Hl6wALB0LQN1bnLMRb+8IUCJDbctCItCapS3ePCIVujVsgkai7twDziVG9ohzDKhHo3b2BfU2YwcUr0yOM05a9jyFjqnNNqHT2vYLRK3bUDohgNWydq95Nr7R3KWOo0zEZn1bqhB/GMuMzgCsnTOd4Nqme0NyDGgYBAzQ+IIO6iN7oiy0Lh34UDqy2tZxugCYWgfOcG6sz7aV4sISXQEOnE0agI0FNsCy0WOh8movuiMG7fS3Tyyb0htSr3tMNuC217quVomPvr++ArBpiL3GteSg7dRYxj83F8o/v4L+AYT9eN95f3l8erqszK/f447cHl326/njvw==);lineShape=1;" vertex="1" parent="1">
                    <mxGeometry x="15.260609690000365" y="641.9107283249075" width="212.82367624785275" height="175.8806161425939" as="geometry"/>
                </mxCell>
                <mxCell id="v7H2bLbcUyuyKGjq6bcg-31" value="" style="shape=stencil(lVfZchoxEPyafZ2SZnQ+O85/uMo4UCHgwjjH30fKRms0Yhv8tizdqzl6WtIkD2/bp9fNxObtfDp+3/zaPZ+3k3yZmHeH7ea0O5enSR4neXg5njbfTsf3w/P8+/WpIuvTj+PP+oXfMy9SzpXE5s/8wpKYfy++zvD97nABZ0/Rd3gmZ9fxUvBB4Y2s471Qsp+IJyQKscMbCgCfmFjjDcBbs/y/BGQogoxzqWhPkEApAILVBJcogxolR1E6QjCQEDJx34SYWtuvd8GS6VVRsoqA4DIZ7gmZHAjJhVbEj7LiTjhHkoclPCAwidVJJAcIRTpqBU8CCJIp9p3LRV4gB1mK0ggptXlaI2RFKCFFkIMlqwjc6rZWpdxXKZn2iesEr7VRxATLGnXShRAQYShrzORBlYpc/39vycGSQ/oWMr0LlJliEFK1JVXWSJ4xoQ8plxlNkGCVllyzqtWkk5a3uVHW3rozdoHauGHikM8UaVivCRFYXxVf0CGhxlV5943LgfjGAKmQhBisUEdUaSm3CVkjqD6kQA4lXWymTzpJc6q1Kqk9q4wodOPPEnxqm+zFjpKA+KLRM13WREmP+y4H6Evjxl6PHnim1cmBF6e692hSthiQw5Wzj8CZHs5WNSKAD2SGgCKa6Cb9i3giMCWmoPAMK2TbVrPs0cs0XcWbJoEFH+HhcDxaOQrAX0a8hfYyxJNgu4Z0Q7OC+6rpoLGMzWoCX9OCqn1b7j6p4WPzTXh5+LgxvOz2+/nCcfm/vmGUV/PtRB7/Ag==);lineShape=1;" vertex="1" parent="1">
                    <mxGeometry x="69.41658640468609" y="639.4362932976383" width="26.661589065951375" height="18.05136663506346" as="geometry"/>
                </mxCell>
                <mxCell id="v7H2bLbcUyuyKGjq6bcg-33" value="" style="shape=stencil(7VrLbhw5DPyauRKSqAd1zuM/DMSJB3HswHGyu3+/7AzUbpHdNfEtQHIbj6kXWVWkqDnxm293N19vTyl8e356/Hz7z/nD892J355SOj/c3T6dn/XTid+d+M3Hx6fbT0+P3x8+XP7+erNYLp++PP5YZvj3Mi4Ql2VQCv9dvmBq7ecX7y/m9+eHjXmkbs0LH5uX8d9hnqj3Y/NuZ0+UI9iMzmanDxXYV6p5so9U07G9OqdHYx+Bc/S4NUz2gRrYDweKydhnZJ+tOwMl4B8WEmuP/JOZst1PCMBeKLv5M0ADD3e/2DNCj1Drxl4AfCqTiI0vsu/jeC/4aWA/jT36O/B/E4uHQgzwJmlwb9jXseC+fbXzC3Uwf9fwzP6MCmgQsM4UzQDlOyJwsYxUziFId6FkBvQxxf6APkK6xiwPlOyTPgQbZeVdBbDWJXiGEVe4RG8U5rgtTEKnZuJ5QFEmo0jLAM46oEGqiQr1fAYlRwErNPXirI3KjgLAVBul+Qw6BVKj0q2atgbhXRKVOsM7DrTs61GlMINJVBGAl/KqV+uAOiT5SIHrrAAaGZgS3KE71sglh8z47pGagAFrzlsHKPgAvKOKxHzonqmjAZV4JlCvEK0xWz4oQxAfNJGz8ZICHpE6Upj5oKQNwEtxzZSbAVDJKBnlCzgZugG6QAfI6BTF2cMN2TD3QfF9BbC5qmNh1VrBzS8gZjJQubFHxY6M1Lqxr0jBqAVrj/Roz56hf5pDUHrleVHuVH86/0PFdvGSK/ixeLiS/MfpNvYJ4s2kKLWPKKeN6GzsESM1+uLsgaj0oeS/PH938yOljq44WjQIyWIY/tgMyHiF6FxakY6GgbDNAAEcXs7gQYQvXI6UEYqcKVAXewjS6lQ3wqBlJ0IRVYO2LFpIhknAzqFwP1akV5n5ZXskWnv7YUgCdvYJ7id7EkN7c0G7SkorigJvmB5vAuMbw47KwdJjjzKwh7BHSlQYLAMcx2DLJAyd2pISZIJXD/hbevyGpQfw559Xetj9XGVM89cBxPpkr/h64ajowsEDMJsrDWr96B0omC0ViAm9ZVWzQh7CsX+PiyTmDAlWB3pTzEbqIkx+i7rPUieKO8Bjve2afqA0KKaskZ69JIUYdRyLPbTe2FFVV5K9i0qgjAa4lNYaJeClWgeW1wFMBXX5sr28ViUggLdEKvMZaqKO+N9s2VUqLitcIzF3WDgq+vN8hsy4sBOLJa6w19pdklq6cKi06JZxCnikYgvlzetBgI2Q7ggUG652nFtjxm27bptqMQ4tPOro2kYIdJIk+yLQRm456kibOFdYDyr0DT8zrH+r2A484yYi29SWKAMUFZc6cYe/6PL2RQBlzuVFY54/wHgtfV77AiJXXmSKtQc0W158qtl/ADxmV83G0aU97Dba+QtqNgZ7q46wctS0aTJ5Gpw7ysuW9PDFJ7oGLkNC6nHZmKPwutZqhoIS7O01jx7HgTm/ztz02zOUhmCL/AwfPdTcJAD4sOsaDRnGNdiwas7E5lZ1UN9/Z3bUxHeYybBsCkMhXzCDLjOOgRhi67vPxhyG6VXP9VfN9cPLLwM+nu/vLz8s2P7f/pJAv7r8CoHf/Q8=);lineShape=1;" vertex="1" parent="1">
                    <mxGeometry x="219.43805475030877" y="644.0093678614282" width="349.8118276537266" height="309.8654269325541" as="geometry"/>
                </mxCell>
                <mxCell id="v7H2bLbcUyuyKGjq6bcg-34" value="" style="shape=stencil(lVfLctswDPwaXTEkwRfOafofmYlTa+raGcdpm78PVJWqCCnbyY0WuQQBLBbwwHcvx4fnwxDcy+16+X74NT7ejgN/GUIYz8fDdbzpauD7ge+eLtfDt+vl9fw4/35+mE5Oqx+Xn9MNv2ccV/J5QgX3Nn/xjlz88+XrDDiN5x5QagcIgaQAQKbKHSBGigEAHCXfAXIkDwDTA3ofilDxwIJQTT0gEwMLKVIIG4B8DKiFxFiIVIAF8RTFAgQB9L5in/Q3lfuAQtE8qRI7ABAKfVirJ88fA7xT6rgeEYkTNJENoFAGJqSS68MkjjJItSTKvdeibAGZ023DPo10AhaqkOu5oTYd8KEmSmwtxAoAgaLf+AC4ofSXTZQSAtS2vcrDfwBGNjTTAciGAiRaMsEoOaszekUAT6q8qSAtCMDvmqlsSw4VhGsisS5q4LRwq/kFoHREgNy2F4DmAT2pWhXQuKEa1YqrfVg1bgHJhgJMpjMlVNO1ae8C0CoHDUKW+1b0DqAeNKx5U6IeiYCj4CxAkIXPArRBmBJdieF+02Lbg1SgBSWCqnGaoZBpeZk0RMrg/Ea7szRu7Vd0U/Z2PmlLBOc92/4THSSSz+TMpKH1hPpPag6uZpkKcqAAMbJHAYV0oxgJCobX63qXuYnaPieUdn3OApzFdDv1tenw/Yl8Mecd8FdzXDfngb/T5MbmPGqdvEyOS8LaPLB/XhtrNvEM6H6V055BiQIgEJfGr0V+IUP3h+dPA7oM6+LfrP40nk7zqL/et7O9fpr/F/D9Ow==);lineShape=1;" vertex="1" parent="1">
                    <mxGeometry x="256.5034854948367" y="932.6602416218025" width="19.76358186603943" height="21.232472619081364" as="geometry"/>
                </mxCell>
                <mxCell id="v7H2bLbcUyuyKGjq6bcg-35" value="" style="shape=stencil(lVdLblsxDDyNt4RE6kOt0/QeAeI0RtM4cJJ+bl++GkpNvudBu7NljakhOUNpJzevj3cv+x2n17fT8ev+x+H+7XEnn3bMh+fH/enwZp92cruTm4fjaf/ldHx/vj9/f7lbdi6fvh2/L//w84zLSqUuKE6/ziucSPjPyucz4OnwfAHgQq07QBZqch1QmEQdwPbr9f2tUi5uf6KUru9XpZrd/kIJEBiDcvIEFBIYhar4FDWSAU4kxJ6BtJm0TUCvNHyEIlRAhMGkPkLNM+YmIKePJE6E5bmCMow+22ACutFCdajU/ZlsRQDr1qn4wlmmewWdZD8HwKCOezU090UetisRe3U5EuCQSIdPUiEFJ7KyevF0Jga9ZykKRUi4ziY2n6I2KCFAp+ar1hQyZmu9GiMUULV1TnuGApVEPQBkstoG8DSUD0CjBDgYQANg4CNlkuZ7O5M2QFqJfQQtc2UbIDR8Z6hxAJ1hpqUrwAAczKYrR4CCLNlkCBTqTNu2PIl7pJxAY1hOS8wpcqSVg3WF6k+rvqu4s6n481jbIemYaYf/T1D7OVFbaVOQNutKagoN0lKaW4yQkUFucShAajxIQxF4tsk1qbHEKmQkZtkoMyqDRUg+S5pogCz9P6BFU1WmCsZzLZQlckA3htYoryqtCGBjyUeoA15iapon/gDwLOW2mlssnIwpkO0IEv3CXLOC5murSbLcDEEEA4T5bwpB09w4qNeDmQID2y7mGb757KqHPEM0ptVsEylu6SXvMiYpxnoIw80AA3BYxqf3YVsRPKD7WAFAL5nTh1vPciQE4Jn1C0BGR0pT8hdphdcYjQPaCodeGXl1vTUvzGje2nQNpPEdfYng62D2rGgebj7FQGv8w9vNPvx9+T0cnp7OD8fL3+NL0ZbOr0y5/Q0=);lineShape=1;" vertex="1" parent="1">
                    <mxGeometry x="31.621645825903048" y="617.7142267356742" width="17.980413716886346" height="32.54160558821104" as="geometry"/>
                </mxCell>
                <mxCell id="v7H2bLbcUyuyKGjq6bcg-36" value="" style="shape=stencil(lVjbTltBDPyavFp78d6eKf0PJKBEpYCA3v6+cxQ5OevkTOEtEDu7tmfG9u7y1dvDzcvdLoW399fn73e/97fvD7v8ZZfS/unh7nX/jk+7fL3LV/fPr3ffXp9/Pt0e/n65WSyXTz+efy2/8OfgV6rEvnil8Pfwn5glH/7z9eDwuH9aOWi54BDStkMeEot3KOSEjK/T7KD0SqlLcCcU7pCkuROq1LztgK9HmxxSkFCJQ5JRZ4cquRCHIClODrlICdsOQ/IcgkapkdmnMdt3acQeF8o6OQAqjeUoic5VqCqVAANFamFyaAhhkLIh53MMrUknV0pF0ly2DnA3Ar3okdRxAgN3s98zhxFkkLJplj4HPZIkAowSjF1rB5KlhdHuSlGUxFCjB3cfFEq1SZyx2sEPEkNLhv1VHQqJAXWNc9BtiJLC9SjZQUOlkCv1ImGOoUKnlDg0C/HokO0nLhMuiJ4RKJAYUKY2nwCKDiIyAILLEjSgsytFk8WjyKgMIpQAQne616WytDapTveyJHaCSnfa3S0NW9BIeXaA1jJ4d0P/0QFaSyhakdb5hC6dIKMGaY4/ps2XCToshUesGngv2+P4GdvVOuqWfZnvo9LI/WHvuiFEkuSnnLUeCAi5P/Lj7CGRRLWhRzU4+8TyDx5mZx9YfdWkZPX7DEDoU9XZdxZv9XhAftj9m9euTDsC7Mt8H/RZQjHYJ6dcEll+qpRZGpuNAlv5UdcOaINC/kN19qyLg4/V/z4lfDR6n+wLw/8w+J7ipXwZlr5TPlkzA7/qjM9C8bbYez42Ul/cJziRFuX8dZ0scrxFP8Cjs/F6FW8fmL0aXU/2FJ+ftG/B6HGKV9nwUUVdl7R5Z2v2GLN9oXxEj9QZ/4PeB23e6Vvks80AvlwTDnTsHc13JECaSdwYvgljkIjEIYbgi6aJdmEcUVxWEQSbhrqnwUIkFkTx09CifCyvKLQTxmytc3Macp1+2Kx92QHUcaNH4dNQNWlY7R9M7ECGNp8w1NCyxTbXPYCWRGIozcvFghaSJR1+JVqh5bJH8osgjmCrJtDpl6hGVxzg3w3vI/Ptd/jhvXfK6pj9VIfiJ3JC9yqGDYeNXeovBHR3AqXkCQr6sCeOYHP9alvpBBfnAsBFKViTP0pMphKT/KsR2jhrO+qnOrSFyphjS8D6zYjcP0b7erWoNILqdHw5+NgeAYy6ub3Z5n+ZBGd9uVJBzd3P4cUG282XQW+vbI6qnsVKAVrOnh2UiumC3+HuQ/eybmP6yZ41wWWPU5fPypQ0+L3yOMhv7k0zw/r/7NU9LdF31uU+MwOwGDOHJeA5ocA4e6NcJtO5YqAAew1ACeIZZ5ioABNu1oeusmXx0+/dH3DAh9Pz+v3+8fHwOr/+3j/H41+Hp/x8/Q8=);lineShape=1;" vertex="1" parent="1">
                    <mxGeometry x="20.634649570146454" y="608.4017106924546" width="48.7783565704716" height="49.087444905308075" as="geometry"/>
                </mxCell>
                <mxCell id="v7H2bLbcUyuyKGjq6bcg-37" value="" style="shape=stencil(lVfLbhsxDPyavRKSSL3OafIfBuLUi7p24Dht8vehs1jXlKAxelvvckwNOUNJEz+87Tav2ym4t/Pp+Gv7d34+7yb+MYUwH3bb03zWp4kfJ354OZ62P0/H98Pz8vt1c4m8PP0+/rn8w8eC81TDBRTc5/KCI0X5fvO0xO/nw218IEkWkKjEMSAkitkCMhU3BnAPKCR1DJBM1bccMsgQK8ViAZ44jwHZk7dVUlYMSBcmsRy00A4sqQZKNoMWOoA+1ELOknbkGMbH2sRHD+IreTbxQg6tp7Zd844CKJECSgPAbfbOrSW8FlU7j4paqUorPZRCAdlmkEQBCEMBbAGR1zejNmTbhqhuSBAQrDBUvYIAmVJsM1TUuUxeWg6CSCfK0lYJlvX6+aYPGXFQgBVfKOTxkqIlrWLKiLQOLctB5SpIrpmCnRlCvsD4YvvmVoOM+iyuiYcDo1C1czjAua1KFUs4r5N/aAXbMx8xATWbLZBWCE3hHsBCjCmUxp1MEWeQxgqewp2i2pkU0+qmYdfsFFZ3woGhgM7OEBBaHaWrskZbT7TCyAn6Xze3YDkU3YyAO3XFyWYoZf2L4QZty1oZku6PAGonB5bUHzIUkEHj+mOMdiah3ac9J91sRwNAm6BCCno+sAl0RDEoqqNk/Vw9FUDAEduRWhI5MMAceauKXKF3us1ZdYVU1MUnvrP+Zj1qTTQtOr6C982unjpckPW7fnGFB7ZODypyAfX/74P53Xh9+HcLeJn3++UScfu9vTXoq+XGwY9f);lineShape=1;" vertex="1" parent="1">
                    <mxGeometry x="121.48070790931365" y="972.068283755334" width="75.77515987921629" height="4.549267633351064" as="geometry"/>
                </mxCell>
                <mxCell id="v7H2bLbcUyuyKGjq6bcg-38" value="" style="shape=stencil(nVfZctswDPwavWJIgudzmv5HZuLUnrpxxnF6/H3BaqgapLVW+2ZTWArHYgFN/PC+f3rbTc68X86nr7sfh+fLfuJPk3OH1/3ufLjIr4kfJ354OZ13X86nj9fn+f/bU7Wsv76dvtcbfs44R+wqyJlf84EhY/4cfJ7Nj4fXK3PryBRlbymVdXt5nL2y53bBbftMwfT2vG7PgUpU9oF8XLf3nkxW9pkiiDc4iqzjtRTcOiAaClYDPDngUUxUkgZEcnYdkDxx6QHs1wHZtPuuAKgIOZAr/xJDMUMMTBZkqSRyQQOWvN0GZLJdHRzlDAFFE9sWighQKOg3sIF1EEDRVPVMDLJkzdJbC1kTJZTXQllXLkk/gcoJgHW7ZakcTlPU/VOYIiCTVC7rNNVMJwCIVLRL4mQCLS2ArkVLaO+8DQhD0AmX2lPWdUiRLArat55vgOjII24MAC9tjmIYXGIpHOogCVp3kEh5Qi7FQbk9RQwoQ49CtqZe66tWImoI+QbpK7gf+qBjO9nYQJwpAZdu9ahrSrJRBkTRGetGxw0RaI/YJw2mg6h6i8iUm/guAGkIJBsix13lDN4D/gNhBh2IMLF1CnVK46mgsWXI6koUCyshk7SbcznCHpLK5g4gOgBckm3Aa8JWJ8EbhGxB63GSjQgwvC403YhIcFbXjWkQPwZqKRtSF0MKrfgbd77kWqNvXCoTw5kyLK3iEVIm254u9r6NvRX7jnkydj2gqmmaskhAhBkSVnQaU9rJin23/ARM7EHDvGs13GbPfOf+zh/n79zfxVs3VpD/IZ8F7txDuTzchwc22KYb28iGde6uufz4+zH2cjge52+56+f9x5sczR9+/Pgb);lineShape=1;" vertex="1" parent="1">
                    <mxGeometry x="331.85401100016907" y="992.3916794816337" width="64.57400187930648" height="3.985421925551236" as="geometry"/>
                </mxCell>
                <mxCell id="v7H2bLbcUyuyKGjq6bcg-39" value="" style="shape=stencil(lVhJcttADHyNrqjBrMDZSf7hKsuxKo7lkp3t9wGjDKUByVb5pqVBYmk0MLNLd29P96/7XQxv76fjt/2vw8P70y592sV4eHnanw7v9mmXPu/S3ePxtP96Ov54eTh/f72fkNOn78ef0xN+n+0ChTQZxfDn/IMKZf33y5cz/vnwcoVnimXER1KAjzT9dYUXpRi28Ymqw2eSso0vlGTEW0RtG9+ojP43e34F8c6P6wZVqTIwSMTjG2ruOVg3qKRjCEV7UdZTajUYXSqZAshprBR0MMhKOYMiMOWxCrlQRVVrxM4gUgJvyIkCDwYJpzWLz5K9MwOXLCdtdClZDCCtddEKKRMDKtXS/54NIjXAJWOOuKAZZqkl0vENUamBbmut/z0bCDHIkhiXxrQaWSLIkrXj/6zPBkZvUDgxauTRIBKDLJlA5DFo1l77VQO1JDqD1mu/bmDkG1uUTUZAWjV71bMuR1nSQmEMmi3RoNJmUMcYFL+geu41/PxKdXSodE1Yx7fe73MAvcO38DLiQ3/hOl68JIVOxC18Lg4fwFgwvCzwoA9Ue/oueEb5Vyri8Bl0geElObzg57vOx0ox4dXhBdXX/HF9f8v/WhwejU3DJyemxLi+Whw+4fqWBR7zzWs1FKGJz9XHi/nv+it2UdrCFycQJMh/wy/4gPjc/PQLcHAYXj2fE65X8nxmxB9Z+nOjH5k9HuVzMTQCzo/2SX2lVyhe6y9fL7QbcJjjuxg03GA6JjRiQf8oXroezGvprYKl0X+5Reg6+mObc0EVqH5V4YhLUDyFOHcR25zaI6e54SFmGuhiMFohlQhddOYiWJWBbNkyJG6hS/D4JMWvKpdlfmuhc4MmCmRqE4pjJySjLkirHZjcumVbrIBKt+A3wJQgl2yxds1sm7gAstrq7qdNhWeuYml1Qbe+gK0fP9SfM+28ksEb7IBTxv7JTAUUzhxoo+Ll3CuzbhD7hjIbtL4kbR0DdQy6YBGbJMUdNAuMgWVxWDYRAGuOdbBLq9UeGrA3MHY1wFbxMtkKKahb7WN+lj2Gi2bxB1/r2AYCSH5PtuOOgipHv8fa4QWdYk1/xudPkxT4z/6+ZZqk6Hqj3w5d4dGiz74zp80T5J+9Vlwm7yo++PpeTd4Ng7YIGCmwEXiJBwlajITLqrGB50VCC2jKWZyv8Akk1PAL/xGhF3vLtLphfz50gXgbbx8ut5WPh+fn82Xn9f/+dtN+Ot+Mps9/AQ==);lineShape=1;" vertex="1" parent="1">
                    <mxGeometry x="198.5986367478431" y="1000.935326872685" width="163.93233711580046" height="120.07848300367004" as="geometry"/>
                </mxCell>
                <mxCell id="v7H2bLbcUyuyKGjq6bcg-40" value="" style="shape=stencil(hVbZchpBDPyafVXNaO5nx/kPVxkHKgRcmFx/nyabxUhmO2/LoJ6R1K1jSg9v26fXzaTh7Xw6ft383D2ft1P6NKnuDtvNaXfG15Qep/TwcjxtvpyO3w/P8+/Xp4vl5evb8cflhl8zLkuOF5CG3/NBDZL635PPs/1+d7ixj1nKMIBcZcR1gA6p3QA0SSeAXCQ2A0gS0rp9KTKKsQ8Swrp9raL2foTU1u17lWTvxwOZBDC6JJfTKJoJYEixKapNshISwjXEBdHy8ujqE8kAepRIeEYQ6gBNEvFpIK1qAEMlkLyOJM0B8sLkfUCQYdM0ilQC6CAi+BcikUaHlKoFgOpKALjPVgOuiISHnjygdakkrQAEq9YWedCoLpvWytMKj5NNaxmiLIbm5YoSZBWKJKrloah0xrTKyB7AmgyEULJ36V+i7wOaFx+CzsylsZTwNa1FlAOclkDcYBU3pH2QxmBto0uzjQlUZiJvlKjrlGCmMpc+NHucKGMaIbqKQ4my5jp8s8cLnVVc9eMEb3YSA0q0WZeg38Dq4S6AuNRUkmUaamXSKHXJyc0MjSRLGImO6RJpiSbwatUKJwchTtXLG2lIREtRl5K/8tCWN1dmlkTXWwcdcn2ZT4v9zdS7P9h9l8EDifCGALOPoBDa1OsCUmWdOEpyxRNo18Oosap43zxW7N0OgJGeCQOwt2tJq3TVC1LcjhEXD1fizVYR2GIYX8inFURNtLncXVVZ1fx3tcXH+178stvv57X69n+/R+No3sHT4x8=);lineShape=1;" vertex="1" parent="1">
                    <mxGeometry x="345.7629431386349" y="998.1660509269727" width="26.439183874835862" height="10.423209268511528" as="geometry"/>
                </mxCell>
                <mxCell id="v7H2bLbcUyuyKGjq6bcg-41" value="" style="shape=stencil(rVfbbtswDP0avxISdeVz1/1HgaaLsSwp0nSXvx89Q14oT2cYsDfH4RF5eHiRp/Dwdnx6PUzs3m7Xy+fDt/n5dpzCh4l5Ph8P1/mmT1N4nMLDy+V6+HS9vJ+f19+vT4vl8vTl8nU54fuK8xTLAmL3Y33hyLlfLz6u5qf5fG9eyCVj7ynw2D4wBW/smbiM7SOTs/aRoh/bJ6bMxj6T1LF9DpTt+UI5j+1LJO8sX2UEAJXJWwc+kYsAIOSsAr5STmOAREo2JM2pByFJpVQtwBEHAJAW8Z2HCLKqgGirgpUDkFkBJRtAqOQRaSGxHqK+AWn1bivkrTKYCiZRxQBKooBjyjammingvLL1sGiJlavWgx7hEYdKQXpAAf0jpWVxA+RW8SNA6khXKmACKIBt9RUNEiinAB+scJkcypICLIcUcDGVXofoSFC5lr6DgqOKsyS2qTlQQYBK0c4x7VE0+JbSsBx0EqPJqoUQOg+ZGIUkrYU30pGy4B7tZneiCvrhDz2aattHQxdW6uKblsNBYwE6oAX3aCeEMG456TmoNA73aLIh3eXhfyF0a3ZtnSCLZQt1tD1VBOBG8m4OJNB0ukm7PafTkkFb66pOtsKrHgG0Xu4CVollGQOtoyfpPDhKoPz2t5miSwMMv/11ST0U4GF3HVvyDDh78tyfL6AwXFuBG4HSNsbAPnY70cP49WJh+eYIr0uusdsGQGoijuytxDpiBMbf2YcM87mLR4dkhPYdX1W8gJLb5dM7eH/e6RXhGtmVg76A1fNvl/+/mevD7++Ml/l0Wj9T7v/vv0v01fpNEx5/Ag==);lineShape=1;" vertex="1" parent="1">
                    <mxGeometry x="163.19802151728027" y="1169.5697232268958" width="95.38393869192555" height="3.4477340173730227" as="geometry"/>
                </mxCell>
                <mxCell id="v7H2bLbcUyuyKGjq6bcg-42" value="" style="shape=stencil(lVjLctswDPwaXzF8kzin6X9kJk7jaRpnHPf19wXrkSKurPXkJlsLUgQWC4C7ePf+/PC23wX3fj4dv+9/Hx7Pz7v4ZRfC4fV5fzqc7WkX73fx7ul42n87HX++Pl5+vz10ZH/6cfzVV/hzsXPiXDcK7u/lD1Xx8f8/Xy/4l8PrgO+vlvgkjeJLHvFect3Ge0nj+q2Klm18WOGTeIKPUuOId+LdNj7j+rWIz9v4KllHfJBI8N4cNAagWACYg5JEMCgSGzFo0sYQFHOREpfa6zYaBMlkh+gkptHASySkiFUcfJKT5LcNUpRWB4OsUlnYzK0NDQLZIVc8dG6iadugREkFDQrxksXVJTQIJA7VDj1G2j6yBGJQVwZFAuFS8xPVZoOZXdcNEkbaHK3kDJa9ccyfVCQRtzaVNro1OSowpic6GsQkheygJgGjQWhU8jTjGUylMvGSFhQBb0sQUVILnB9VSSoJtLbphPOZuY8UVdvxA+hEmw88o4XhI+KpR1VSA7zj+OIRz7+nJsQzSihKpKNFxPCK6zO963hF/5Pv8W5Vlp1Uksh9AwwAS8uOH9f3k/xtOgjxkRHUAlYBn3jAckY8UetOoIDfwwMcEc+qQU+ABHjHzxswXu1GgiGhWYXteCQoFRSd+LggNF8/rRKGr5+Rb7cSEv1zw58N/eN5vBTx4UYCowAlgr+akOVGguEGyg/8WXwaD5wmxm5VDAiYcoWrWOithDW2QZkIMxfJwDU3YQ3oRY90yhpWRS9PZee6gcV0VN3kaVm1ZgXKQLJ2ntDO2iGoMzlQXWmr8SZn2qxYS6fjJ/UekASuN43Qliqtrb0tXbfW5Ay98YXx4MYIVVEczYDNRNZTVo8GrPG18UBHt9oA4omBDSDeo0FjBsalUVBtJmJstXyEimN+YyXZKyZQyXxSTpNPZoNKZyI/17B5NuVTV5skYsZHOmkWZJKxl6m8KcDIbZvFaRBwWun5RzwUsMi2NlF36+5hJHafLYh/zJ+jvpimsbsKh01XL+sU3xriE+GcmxR6gS/0bqZWxFfin9VM3cs0ofTc0yzwSuJlbISm0fG2Ym6ClhvQA4Q1nhDOYQL0A1M8EkLplcA89SzwrN5cu6xjc8fnL/du4e3h4ybx6fDycrmIXL7Hm0f763JrGe//AQ==);lineShape=1;" vertex="1" parent="1">
                    <mxGeometry x="222.9147258139153" y="994.5629350533268" width="311.7467234955013" height="176.44700971634074" as="geometry"/>
                </mxCell>
                <mxCell id="v7H2bLbcUyuyKGjq6bcg-43" value="" style="shape=stencil(lVbZctswDPwavWJ4k3hO0//ITJxaU9fOOE6Pvy9UlYoBSdvpm0xjiWux4BAf3o5Pr4chuLfb9fL18GN8vh2H+GkIYTwfD9fxJl9DfBziw8vlevhyvbyfn+ffr0+T5fT17fJ9uuHnjIsU2wQK7td8UAKV/Ofk82x/Gs939t5RzQqQHeW6DwiOvFOAGKkGAKgUggJ4pgQ8xETZ6xyo8b59auSqsnfk3L69VMQVHZDrJ5uAmnqCHSAR/S3zJoAFoLuQK2XQBZYaRZ2ypwJyZu4pLgDxALogANY5SFbJQ0DTOTQPmcRtBWiUUJUquaQAUjePy5oNoJEHjeMl4o9OY25IyEVzQ+qQQZlaJtaN4EI1AkC0MUmUDMahBfI6a/FZUUjelqlKVoAbAmA9cNVTwjkEw77Uy7BXpcB6IBiKRqvERpYKJcRvZ3PImSKia6S28oCqJH1NRloXKdwbiGyqlGFZma3O1NBHZEe8nZWByhRQ1kxRu2giZSiJStXMXKCEPCw5LoAK1VXuK8YD95NtbvBqgkTcEF2LlWMJCW2UTQDitzTWdE4GooGQhJzB0NV15dlecpmKDil5igAQayfC4sH3rLb3tGxlLX2SlQfCJGvcCpOHa9Gv5FiG0IEqTXvZcEl0BnhoFIx6izwDKpVO5Tv7Bsgte93ZeJAUR/K6y0L2DIjnLe8mroP75fGmZbXhfF3fr3cda/B+Ky8VDr+z9a9LBXbsWTOoMBS8sHr1ZPjE+N/X8L/t5ePj6f0ynk7zy/3+f/tUl6P5mR8ffwM=);lineShape=1;" vertex="1" parent="1">
                    <mxGeometry x="515.8559297237148" y="995.5164854841742" width="29.53662293547427" height="12.199772873434995" as="geometry"/>
                </mxCell>
                <mxCell id="v7H2bLbcUyuyKGjq6bcg-44" value="" style="shape=stencil(lVfLbhsxDPyavRKSqOc5Tf8jQJzaqGsHjtM2fx+qruIlvTtBbmtZI75mSGniu5ftw/NmCu7lfDr+3PzZPZ63E3+bQtgdtpvT7ixfE99PfPd0PG1+nI6vh8fL7+eHvrN//Tr+7if8veB8otQ6Kri3/yuOUv238v0C2O8Oc0Ak9grAmTxDQMgKkNxYWQYUSlEBiiMPXAqNWFsohSIAxEjJaUCiDGJIkWrRAKaY1gE5jvNmMVS/DiiNkgZkqQwA1EouaQuNPHCppuHxLEsBZKlKiCYGqX0DgEDB2aALsuCpavLlTDVCC4YaOVArABDJ6cKlBuldM3HQgEIOUKO2GwsJWmiBXLAARgAhnxFQpggE1KSuOq2pUgaFazcxZD9sLkvUOXK61ELXHKCJZkqNC9F9MuxjYsCNHrVpGxl2Aclr0S6VT9LkqRkLjQqia7NZ6jJHos62V4pLDqS181uTqSTYmLqCdPsuwkcUw61GK3kkOekC2iVphgEpSPqMYZ+jjFxKNgbRaEEuicc3kmvAJam0IV/XqAMAttToFpBGvwoQLhl6C1kKmiiFvC5ccyPRyzOrUKsawKMZLk9FGdSarS2TAwKK2d4dWh1HLAI42ck+6zzLd4E45sGHCUkcEIQXl03UCY9Fq+kqaQBZCoOa87sGOF9GppEPj0Ku7Df+xDZOWNlviiZJxvuNdvzHysp+1vksUMzepj8Njqxk0+tsMiwWU9bJ8ZQB36Ty+nRJFuBOGWy/bkfcrEPgs+1wyFKx+5HgfRi3s2uwDRTKsz2f4SXY38xLTBx5WkSt9jpqvbb/i0+RzwHycX35PO32+8vDaf6/fSnJ0uWVxffv);lineShape=1;" vertex="1" parent="1">
                    <mxGeometry x="56.21122467244129" y="959.1622337050985" width="27.26423098754333" height="20.29599269008986" as="geometry"/>
                </mxCell>
                <mxCell id="v7H2bLbcUyuyKGjq6bcg-45" value="" style="shape=stencil(lVbLbhsxDPyavRKUKInSOU3/I0CcelHXDhz39ffldqHaorNT5CbLnBU5miE1ycPb/ul1N0V+u5xPX3c/5+fLfpJPU4zzcb87zxdbTfI4ycPL6bz7cj59Pz6vv1+flshl9e30Y/nCrxXXGmlbUJF/rztKKf7d+LzGH+bjTXwVKmWIF9tJ2wBNlHQApEoq24BiABkAtpPbNiAHYh4ANVIBJyQmGQEtU9ZtgCjlPAKUBBRtnHAcAVZ03gYY62FkyS6mgJQi9xI7IDB3Ht5FhER8d4QCQKVQfQ0VxAvl6klKIJ5Ji78FpCT219yENICCSUZlt0AVxCdSxw9TAPm0/rV/sjN+KsgnUyseEJAoYtf9DYCBsC0l74RKGenUnOVqMNkB+0vtRrkhNRToNXVOiNSAmxeAOyFRA0VbSsXprpCCe7Ci1QmpkmBa4+g1c05CgEg1eUADLIVCMXhABfYPfNdgGr4Hai4jpQbNk+5IjUCrlo8rIJGAfKx9OXNGSOlH44NQcFZgONiMoTCeUOwE7B1Xcip9TLx/BeKFKgEOhWzfGxtGJgHCztWLQqiBBlzYz/LYD9yazDJWHCBDpXorM2wuKvfxAdyxtt4Nr/FoAtbUJXyNR5q2Xug0xFRBvM0jcTMZNiKzVFHHfwOmtzblTIw9dvMiuAoITaiPPgb/H2+L68vzZT4c1ofr7f/+pWpb6ytXHv8A);lineShape=1;" vertex="1" parent="1">
                    <mxGeometry x="60.53765507700302" y="959.5418152932948" width="7.864771841682682" height="26.895665164357524" as="geometry"/>
                </mxCell>
                <mxCell id="v7H2bLbcUyuyKGjq6bcg-47" value="" style="shape=stencil(rVfZbttADPwavxK7y734nKb/ESBObdS1A8e9/r5UVakiFY1RoG+yzNHymCG5O354Ozy97ncpvN2ul8/778fn22HHH3YpHc+H/fV406cdP+744eVy3X+6Xr6en8ffr0+D5fD05fJt+MKPERepygBK4ef4IlAIv198HM1Px/PCvJMUYx6JZds8ZgrevoHPR6GcjH2iytv2qRCzsc8kddueI5Vs7DvVBuz1b2uvEXUQQK4ULUAjlrgNKJohW4AkMKU1UqwGwBUDGnWXI6bYtwEtU+oWINRBVnugZKtWCvUCAIWapUUREpBWCcQ2rTVQBsQQpp79CRm4JN3XoXTKyKU+MXlxwh9yvQ8QSjbomqihGISqrYOWsoI6KEBs0I2pIXmGWe2zHjSvgBsyM2EGtEniW4Bi2ScJ+qQA1zKkUcSFyM0C9EzkUpvIuQAgfivAVW5gCxC11KmwMyBTREGrhF1aO+wzCnBdoCfK2KVos9QKbH2DSxZQtTHdCdrxm0lQ0JpWd0KYEr1ZOCsI1WjB1CjBAyRh8jnJRcpYcsUFXTCXlGquDjqCQdDvaLR1SrhviGVfz/eirpZMEjG/ZXJgBtyJeh6zCwWhQT0IzLq0yMP/QmhzdGE3TFilZ/RhI9HpnFs3P9QHmvj9SttrBqXTWe0buK44AKAjxBFWPyGg46smux2MtcN9o6xGr2oIja1cVrLOcJLqVpZtHXKb8ra19rGNIScqwCXdK13HZ9UtSKsurq5bMm7gcVU4bhMdtzZvu2MNax+oW/SaHuxBUiMlZ69LGpgPwReNM9wqg+cdY1YEv4RqBhjUOKz26Aw796qr6hskzZV9VNoC7YdpaZntVZgwn+y6PDX4+WL5di9asYpJsDUqGfytMKM98t8ukXfN9eHvffXleDqN193l//5+q6/GuzE//gI=);lineShape=1;" vertex="1" parent="1">
                    <mxGeometry x="213.8614146476607" y="386.2066958775872" width="85.65128270228456" height="7.951435541617002" as="geometry"/>
                </mxCell>
                <mxCell id="v7H2bLbcUyuyKGjq6bcg-46" value="" style="shape=stencil(lVjZUhtBDPwav6pmpDmfCfkPqjDBFYIpQ66/jyZm1pbsbYo3H9LuSGq1WrORm9fHu5fthsPr22H/fft7d//2uJEvG+bd8+P2sHvTTxu53cjNw/6w/XbY/3y+P35/uRuW49OP/a/xhD9HPxGqfXhx+Hv8pVPN/3/4erR/2j2f2XOlHox9jJQrcAiUo3XI1Nu6Q0zE1oGFpACHSFysQyNJ6w6dRIy9JqFD+2ifnwIFBgcKxNU6VAoBODBJMw45UQVJjYWirUJhiqhskYotc+mUQBVG0DaGWijFdQdpFO0bGlMFb9CcNBt000eAtObiodcjVVC3kmdOFgeZh7zqUIVC9Q6MHDpl8UfKIOiW/Bs0aAYxNEWOS6tAcDetqw1aC9dBDHri9wOcQQPVofPE5oLWTg31j/gYcpgtu/YGuei4Avqh698WS8Kw4zTrruM4UQFBt0yZLY11CI2m2LTQUN57B8t1LDGxLZwSWwQORcFsYxjEA2JIfbbLGdeDMiSFZnP2iIgHy9kcNcqgCKl4XFQIi5Rnby04giw57G1G08zY6nkswTBEndo7BoskABKaz2gnW4AcrPVy58dzJ0cKxduD52em5O0LAFyW+fcpXmifKInLZwf5HEPP5jNN7bBmX2x+FkCt2QdHjZQBb2m8wfZLo4rOoy1v8a9cjM4TPPN2jOc22/Vkn8HQ135M0Z0f8bTi2dFuhfFqf1WnQiZhrPajtU8fPb9Ze5lKbO38rl/iRwqk2EEWJmev9eNFf0HBotL3oh8BH37avlEJzr6AfJYLIRtnAa9PpDzp45R/OFSjr2+G+ky1jdPJHetw9vysI7UgaaMBOALiSUnXHeqc6UvEOKW9+zeM3QDEEEPwQWjZkbDWV3TbxSXCMdDbZLWljQPcuHrxPN3C3C9WBZ0jxoaRcbE19gSlgULJUbVGlQDXqXpyWTrL9PVuSL6bO6ZTHR/N0XuF80/5K7rtQKgBApOFD8/yiibIIFAbgy5dAYBp7N42hqpDFPXoRM4CPh0SSGP65T1XWLc441v6R9ELIr7oHunw+iH4kTAaGpxHPCUNzgO9oxLQ2scKRbtK9G4DVpWPSG9sDV4kN/CCEbGtcIIiny9EMkN7iVOznoYIEl26iGU/pDoAkIhfqTHbSfLPVxEOACF5/n2y7yje4jd2hhdkap/90EQzSu2b23WhCBn2bpmetLRm71bjZWtZs2eb/4o5K8/+O4lMGG+6XELRfcZnLyg/ttcPp9vQh93T0/Ey9fx/f3uqPx1vXuX2Hw==);lineShape=1;" vertex="1" parent="1">
                    <mxGeometry x="41.95712841029183" y="953.2319551543428" width="48.1087656755077" height="45.66656773083287" as="geometry"/>
                </mxCell>
                <mxCell id="v7H2bLbcUyuyKGjq6bcg-48" value="" style="shape=stencil(lVbLUsMwDPyaXDWWbPlxhvIfzNDSDKVl2vL6e2QySSq3EcPNcbKxV7sru/N3p+3j27ojdzofDy/rz/7pvO38fUfU77frY3+WUedXnb/bHI7r5+Phff80PL891i/r6PXwUf/wNeByASwVRe57mPERAv3OPAyAXb+/AJQIFBQgyIw3AAVSVgBOkJIJCKwAsUAOBoCBNIeMgMYKWTZAClAccF4GpASsSZcEriwDIkPWK6Bz4Nwygn1bJqmDM4QIBLEBBCBeBngPsSlTBDRYk5RJs04M0agrMYSklfOQ0VwBnfYGQrY4ULtCQHCGN+pr1P4mYEsHHL02AuomjRVmihOAgQ3ScxEvVkiGmapMTUbFLFbkJiNMVaLR8UuRc9qubAt34eZJajaVq4HRdq2higZAIqnLVGNrsK6hjzoQDN6QurYVrVxtPcaW+CoQc3O77b4r5YrdLKX5el2luUEvAsp/ABTBaW9kEc4gjbGtUnaAltJA2hlJQmvI4Ns+Jolyxv/FF5oASyc0CFw5VXqC2ZTAaRt5NPlGiDo7hKbt0I/lmM4GGk+L2xuiNp1iIoOA7Lfo5NhN9fok+fOoYmy+T0oAGcwXjk2/2w33lcv37QVFpobLjV/9AA==);lineShape=1;" vertex="1" parent="1">
                    <mxGeometry x="266.6262604746703" y="388.9787575505186" width="3.2230755116520413" height="3.2248481794399595" as="geometry"/>
                </mxCell>
                <mxCell id="v7H2bLbcUyuyKGjq6bcg-55" value="" style="shape=stencil(rVhbbhsxDDyNfwlRb32n7T0CxGmMpnHgpK/bl6oheUVZ4xbo33qXY4pPDblzd29P96/7nTVv76fjl/2Pw8P708592Fl7eHnanw7v8rRzH3fu7vF42n8+Hb+9PJx/v95Xyfr09fi9/sPPM85QzBVkza/2Itg/Lz6dxZ8PLxtxJuZBPFBOa3FLJgzibKlA+VRG+Uw2r+UdxfE41pPltbwnP1rrDDm3lg/k7SgfyQN5+Tra65mKWcsn8qO9PlIG58+Uxv8PEi4PwmWIFcBBA5gp+xEgPgAWsNchDpEK0hApxREgMUaAQkUBCgyy7SZuACgKEgZOAyBKWgSQdqaZuAFEoMF5KkEDEgIUMqwBoYDMltKZjuRA6Uim8QRgEAcvXk/arTmC4rHkigYEcKSaaqwBHkS6Zo7VAAe8FJmMn2wA/S5O6S1eKsCGmHTyRQs1JG6p1gGhdZHrgEBBpYa0BaRBvD5qSJY86BrZ6TaZIjkESO1zA2RJPtDnS8/+DvDEIHDFaaNFZwKpUYJuM6Izg/QuYsOoQXQ6kN4lk1caQmvn1wFFNwF5w8CtFVA0wKFmbAwZoxEepGtVkTQgIqsFYDUAXVn1s9cAdEHI5zQDsF/jCNj4YYUIswocCR3rbtYSMAUiYiPcFIiA/ToDEJcpRXfXmn441H7SYECjqSdWXsotW5aRmwAZp6uuagFgt+YwHelGfrvJ6BtVnTXAQk52tUixm+Y+gOjGJZs3gIT6cWk0fpvf2Oo0WY3uxXriEfA3RTqrwEb4yU03sknR+0vv+U+A3AqmAyJMDvlcVG54XKRBk6zCzdOrm5THEsoZMsvSeWQHBGIQOLmZzVhCmeG1JXyDRxtSgmNfmqhocnBKEc5kR6NjgfRBWBmPFRRjuwJWvM8qGuda67kOcPoiFaJo0GxpdBeQN6hGZ3YsAA8KqPLvaSRAjEYYvp80IPbgO3/Z0mlQD3VKUYFjsiDSdQ4KGoAC54ouUQFE4KU6y3kNSGhJISbypAEA6jzqJhtAatjOVLduBTbwdC0KAFWcTO1xDFwdwhHAtamnAxKMNLNm+CE2Rn69LzU+1eU9ZNN9y9DlGbaxqKPmE8y80IbhLm9bS1jsopSDXIRjnNNXtLuxc9As47L9Wuze1BKEc5sbF6tAVfsScnS1Gb0bi20WX4ir4+OFyRVxdHiji97ARYPRWwBcLUZvSQ28w+Wr3sEa+O9WHwax8r7h3IhDR3rtGQM9oziXiENT1YRgYM1KhuvDoJIyepzAK7B/3H3fFJeHy5r98fD8fN7Sb7/rtby8Oq/03cff);lineShape=1;fillColor=#dae8fc;strokeColor=#6c8ebf;" vertex="1" parent="1">
                    <mxGeometry x="264.73388032005073" y="393.33555445318166" width="164.93401952193926" height="92.65107234302423" as="geometry"/>
                </mxCell>
                <mxCell id="v7H2bLbcUyuyKGjq6bcg-56" value="" style="shape=stencil(lVdJctswEHyNrlPYl7Pj/MNVliNVFMsly1l+n0FYoDUDsRneKKobnKVnwc4/vB+e3vY7Z96vl/P3/a/j8/Ww8192zh1fD/vL8cpPO/+48w8v58v+2+X88fo8/X57asj29OP8s53we+IZSqaRnPkzvciRbP335uuEPx1fb/CJvMQnTyUu420g6wUhJHKA4CyFKgjekyuAkClGQWAjDXDBRwrSB8tHAELwlLIg1B61u/hoKSfpMxkH8IWKdNn2D97PATtQBJ6zCCKUHTmj8A6cn0s/7hNvgb+FJZAU3gSALz0/N3i7jK8cT6fxwJ5aKdht+KTjE0E8GZ+lHhyUNOOrPD9QAfFpeBl/Dhiwx5rZv1lArCCPvyAzZrnsgUSZoFJsC9mVGMkccFADKDImRNkouAoKNskHSXBYRpVs0l8wOG86rBUTuJBl4iw3O2RS6S7OBIedHggVS2+wKFIBpT+67GHrGmNq1/AqaSzdtEUV3LowXsnOrpWy0rXvvfg/CydRRePvTmlyHWwqfuuprpg0jDOHi1+1L5b1SqWp/tiiuqkBt9LEsttIGEZCI4AojTOHCRaU5jjUGgGkepyabSyATI9jmQlIGm3uDz4gtfJiUVVYWUvgC7y5FEXghQ/UG69GWdazd3D2+2F3CQYOEl7vklogSxf80gKZpA8x9aaztKI6aVJiwQOnU8/SPJ5z18pdvKEsF9SbrrBAiDLPrcZBNXBH8RrvQEFzD1XnZ8pAR0Y3+Ropg5yZXrszHq/wps+MGc8ewYCqnsoJCDA+6vwSugqX8Gr/snDB5vhIf/Na/NUlKmc4xY0WHF/SCrRn26VuHc8PnzfIl+PpNF1Ab//XN05+Nd1W/eNf);lineShape=1;fillColor=#dae8fc;strokeColor=#6c8ebf;" vertex="1" parent="1">
                    <mxGeometry x="422.3701369045111" y="503.1232195031314" width="84.08919850824373" height="4.535246939384024" as="geometry"/>
                </mxCell>
                <mxCell id="v7H2bLbcUyuyKGjq6bcg-57" value="" style="shape=stencil(rVfZbttADPwavxJc7v2cpv8RIE5t1I0Dx+nx96WqbixS9gQF+ibLQy05HB67iXevu4eX7Ub49Xw6ft3+2D+ed5v4aSOyf95tT/uzPm3i/SbePR1P2y+n49vz4/z75WFCTk/fjt+nL/yc7UqmWicr4V/zG6Za/rz4POMP++cFvmYq3eAL1X4b3yLVbPChUs7AoJEEYyCZAjihCyUbQVSDCgwKSTEGqRILMGjUrUuFifm2QeD3/4dFDYO360d0apamJjjqRLUZg84UI+A1U7eJm3gANFXNnI1Bnfx75lWD3KlYXhc8XLVIicQdUUlAEJGCY0nFBNQaqLPHB5BpXuELRZAFJkkWnyklhHeyaIkiyAF7frScIiCUqUWvogj8CdSssFugDFIciZPHIz4TJee/MowkRHX1fQHxFuri8RU0l0pNPD9IP41i9vxnkK82sr/Ib0HNjtjWZMuwTdSRzYU+C+THdTrVv4B4E/Xq8QXkN47Tl3igNxnqXeCRnsNK/2X0mBv6T8HzWWF9sasXbaug//AqXxHml0c1LfSG+AmUnN7eK/QGn2VVvwK+H6k7/fCYCjfqMa6+z/8RnwqxFegHU2yaMbaCp/EPIq7s95vJAC0s6oB4l9BMmkaKKxpclD34waosFdAV1cCN7iqwLarH1cZQtE/jGJoVRmpjlNxc62wMEU/i2inbUtPmh1yqKg1bC1odAdRC0RXKuhQEbprTEmdPKDANqj2JDs/g+7lRsfhMgopHN1/bLXR8olpovjvqcAKloPhoZSSweSne7aQBakL5ycnhYcK0W1uVMs7Xqjsy3POLjFl9waNttKw0zWPduY5P4+ZzwaNh9q9XrY/x+nC51z3tD4f5Wrj8398D9dV8h4z3vwE=);lineShape=1;fillColor=#dae8fc;strokeColor=#6c8ebf;" vertex="1" parent="1">
                    <mxGeometry x="421.19687437901007" y="472.41948908359586" width="13.803920815109677" height="17.442639850878777" as="geometry"/>
                </mxCell>
                <mxCell id="v7H2bLbcUyuyKGjq6bcg-58" value="" style="shape=stencil(lVfLbttADPwaXQly33tO0/8IEKcW6tqB47bJ35eqIEdcWaP4JsmcJbmcIenOP7ztn153neO3y/n0c/e3f77sO/+tc64/7nfn/qJPnX/s/MPL6bz7cT79Pj6P769Pg+Xw9Ov0ZzjhfcQJSR5Ajj/GD9kR1/9fvo/2h/44tw/kuAUkXgd4pigGkBJxXgcEIV8NIFYKYR0QPXlvAUwJeEiRYjCAwFTTOqBw68FVGl7XAFVzsEmLpxIBoFBxBsAkyEElia09yEDtQ7IBUUDxVMo2Y42/QPtqE84kwF6YiS2PRIgFeygWEGDRFFDsFUmh5CEgNVWWLYC3HvSWEmCqAthW2QVcBo24th4qkKcCGvE4Rw4DGiJJndRxG5CnAK6ANGW1CrBqE0eCKl1aapSp56ymYLkdKKOACgV7vsMJFMqW2zxd8mqVQ2PPKH6lUWrsCz4/NbTbFII9P92pNG0GIP5bWlYd4IiabiGZAujYQztqhMO4xnXS1Uw4aK4NDbURfyC/0YHvAwhFWwavvAZJ69QJdjbrpKugcDrXki2cfkFTR89rPGQM0NkcG2lGYtAih+lvu0XVfgRyWO4XQynRQtIuMDM63gRcxTVzEIED3SUs9T77x4p904FrggnwImGtMqAFT9vT1Z7hSFiIs2QonaV9mPrT1+IpApW2yDcXOA4W96kcRQvnol7ZT7L4Gh90ob2LcFsb86a9Pnyu5y/94TBu9/Pf23VeP41/BfzjPw==);lineShape=1;" vertex="1" parent="1">
                    <mxGeometry x="149.4471241282879" y="500.7636131113734" width="49.03721134303464" height="4.131071676381225" as="geometry"/>
                </mxCell>
                <mxCell id="v7H2bLbcUyuyKGjq6bcg-59" value="" style="shape=stencil(lVjLbhsxDPwaXwlJ1IvntP2PAHEao2kcOOnr70vV0NaidmeRm7PhSCI5JEc68N3b0/3r8RDc2/vl/O346/Tw/nTgT4cQTi9Px8vpXX8d+POB7x7Pl+PXy/nHy8P179f7Ztl+fT//bCv8vuIcldJAwf25fgiekvz78uVq/3x6ubH3FMNgz4mEt+0D+dE+VgoR2dc62KdEOW3bR3J+sM+Ritu219XyYF8Yrl+ojuevnkIB8XE9fAtAl8gAwCRjBiRQBh74SsmNgEiMUsA2psIUPQAISRx9qFRBkDgTJxslB5yOi4tLGnxfYh1QKY47ZA00cDqp02NYdQkBiUvVOq1eBeBDZvKjD0ouBxKXM0UeAD7C2sl6pJFLhRLiqhanKWbKwOWixTPau15N6/bZxtRBh4t01iwh7SFbta+BypgCoRCAfaI0nseXTpN1gLJorASNaAQnEi32EcCVGJBCK8sQOwrkqSSbs0Zs4LTkiRQORknEln8V8sgHLf9sAYJmglt4sCTOwWITsU5o00NUaoBkATs7GK5qakqFADMJW1sFk0oBOVoAGp0KSH4C4MzFqdN7DGBnnY7YhxBtWFGLaQDjg+qFnR3Gpic7/BZbcso+NA+b02Pi2rTC/I5iAbAL6AG8BQQcpTIN0Ii6wNQpFYBGg8wjWg+JyWcrzlEGO6wVte/iaXOLWcnsACa6wmapYZoLAhd1rhawQ9eUJwDewQx1BQScCGbr9E7mPgjI1gcd9LCCUhdrywzSLygP3Om/qHQsQds4GPMQmRj40ApsLDnGjUm1gImSip+CxEOwUVI1hgpC1UwxYxHfHCa1lOB40CT5bO1B9ajay2zOg9RVnjqx18sWkp+5q8clpI48mLmqiE0O2BEDQZlUiIw8ir632nWAKtaZeKA8VfQbPaZeIaERJw3a8gjSoLcEczOpGfKI574aKYIdVDXbNinwdqU3xGio7bBS10uomT9SoajUay6bccJ9DG/coxPbKKFqSP3utaShwsbNdqa3yxMgRrAqQ7kYgb23WU6uvwys2rv+CnFzcXDAX81PGGtNUwL8nUik9jvrG/tADM9vz+P7ZWvLfuoVFZ7Hs7XH5zHzwC/Xmg17o4S9wM7irNRWeyRTneVbWx/apzqdH8bHvFM1j0BXcX3Y3dgL9Pdj73779vrj/yPj4+n5+fpGeft/+yipn64Pmvz5Lw==);lineShape=1;fillColor=#dae8fc;strokeColor=#6c8ebf;" vertex="1" parent="1">
                    <mxGeometry x="183.48000216534456" y="496.7852491259789" width="143.96298937906909" height="17.876467963892537" as="geometry"/>
                </mxCell>
                <mxCell id="v7H2bLbcUyuyKGjq6bcg-60" value="" style="shape=stencil(lVfZbttADPwavRLUci8+p+l/BIhTG3XjwHF6/H25ENY1V9YUeZPlmT3ImdnVJA/v+6e33RT4/XI+fd/9Ojxf9pN8mUI4vO5358PFniZ5nOTh5XTefTufPl6fl99vTw3Znn6cfrYRfi88jaTcWIH/LG8y8fLi64I/Hl5v8YmkOHwjREDIpLMjSKFQAaFSTo4QK8W8TZiZ+5I7IylVwLAptDpCmSmlbUJVUnGEGqiGbUK5FqUTlCmAMuVIHDwhUQGNiLYAv6S2qwJmoOxXdFO3+zNQ9lVVpaLb+EAljnieQd8oZI8vVEATmGSoUKYZlHSlCtO6QLx43WmAophJhgYwKcCvGmaqKqA+sff/ircGA1Xnsf6GL8BotVf7Zj0zwM9MiccNzwIIM1VvfTWbIYIVfJCEUAA2M8KQFeYalEZGYB1FhERtm9ZBdRXHFwWfj+YCAbYsK1Vb1oAdpDvjKyiRrFSq/c2GqgfVtf2C8XnVsgxzy1w5rCdC15jEVpJAouNevRvNRejK4I8CEzWDfllOr10DxreDwK+/uRLG9Ofwkfv0V0LGAird5VeCUEQrsuPXe6bYGzBD+9trtAhVYLKaKHtRZIZRVy0bPSFiF7QteoJUuGk738VXqR2gQNeVxygyPEh3wxdfpNSj6T7ejhtvTOkH+tYGgg/f0M+3zQoN9wOYc9aCIRgtCdB+M6Uy4JHPTPZBRzyqv453Ou4D3M9pO4rigFeQK3YZqHWoD9K0xdRwZbTcQhfr2OVylXS33Rb+cxf3/+Lt4d9XwsvheFw+Mm7/H78q7NXyRSKPfwE=);lineShape=1;fillColor=#dae8fc;strokeColor=#6c8ebf;" vertex="1" parent="1">
                    <mxGeometry x="320.7998399796322" y="503.5815527389161" width="10.345512289011822" height="11.685508529539675" as="geometry"/>
                </mxCell>
                <mxCell id="v7H2bLbcUyuyKGjq6bcg-61" value="" style="shape=stencil(lVfLctswDPwaXTEk+D6n6X9kJk7tqWtnHKdt/j5QVbkmUK3sm8Ls0sQCWJBDeHjbPr1uBnZv59Px++bX7vm8HcKXgXl32G5Ou7N8DeFxCA8vx9Pm2+n4fnie/n59GpHj14/jz3GH3xPPUa0jid3HvODcn4WvE3y/O1zBC/ncwT1lAPeZ2HV4plKW8RyJ+/0DZb+MD4FSf3zZgJfxUbbLCv934b/4FCk4hW9tGZ8jlR6f4HlKpBQVPoD9q+zvFT4BfZqnpvEoX60RGzzQR/Cx17NQqxCfW18/F8WWCLX0BZTIA0WF0HpCqOQjKFF3qfhLzEwRn6mljpAzRZQFCaJXtdQ5j4sycUeoBdadEELfBy3MlbtE8KEnRHIoc1UbRXPEQFch5D4RlcnjX0hKJUcFFV+l2MeQxJ6Au1hCZKqomMyRWBok3BO0L3Pub5UVx2zylqjhdlCFkdf6TVWeZ3J31baMhJXKU90jJg5niG3QWOBUsB6Q/WwjN7qMGHPF/aZ8rKa1qJVRNtEVJ045sTRoQP12N8HMBiEg37PDZyQAlex0EwJKnB2fQijAM+x8bgmWq70ACAGpZG8YQkBHsleYluFMt3ekVqDJmDvY6Gsgb+aKd9VRCwRlYqMPJoSPCi8agHaTwaGap1AEveDI945R1gJ2aj4XKkBQewHIsDetH4XZcG47T+AVfVS8YqkJVJDRUzw7wf1VvtKKPHqmUYTVcNeLYhUuH/8eLy+7/X56+1z/Xz92ZGl6KIXHTw==);lineShape=1;fillColor=#dae8fc;strokeColor=#6c8ebf;" vertex="1" parent="1">
                    <mxGeometry x="314.735315174295" y="536.3909737023794" width="63.60454001897597" height="1.1320693188740734" as="geometry"/>
                </mxCell>
                <mxCell id="v7H2bLbcUyuyKGjq6bcg-62" value="" style="shape=stencil(lVfLctswDPwaXTF8Ezyn6X9kJk7tqRtnHKePvy9Yj1IRGK3sm2ztiiCwXIBTfHjfP73tpuDeL+fT992vw/NlP8UvUwiH1/3ufLjI0xQfp/jwcjrvvp1PH6/P199vTx3Zn36cfvYv/L7yHLHvpOD+zH849++Pr1f48fC6gHtHNQx4TwXg5XWuAz5QrQDPlHnARyp+HR8LeTfgE4Wwjk+RGit8Kev4HMgXhW8N4Jl4jCfDeEqi7BU+gu+XRiEpfAb5qZESKzyqV60Uq8aD/LCnUBS+gng4k88anwCe59cLPNBPC5RMPCCfTfKp88MgP4JX9WLyYL+C1+clzSdujcBjQF1BOKI2VixKSIyO8OcR/9yzZG1jibFopVAEquibiAOhMhVwDIRQxhW4znlYI6RxhRbJI2G0OYsLQgPKa6ydojlcapHqSOBADmlPcjJqu4q7ojqwNtNcyeM9KEIKxJigQgqSN7wHtWlfqeEs6bRuFVrVrZDD0lPCKLMWb1SeF8vHBKVt6XHIsu3piXFe89YDmurW8VEeUDyus3GZumlLysd405aUUTYJ6S4nbmlrhTsJpjd0AmpWpvl0AtCG7W6dcFf77ASQJdufhRBBpe0AIARk9nbC6AQ0kpgRRghoZrMzkhAq8AA7hLVMDqxgpzwhoCzZMVIIKCQ7p7YCXcAOwq1CLdlJW6wTFc5M8gsfWSEUs0AGvuRMyxWtgpbr5reLnp6Ai7m5ly2GBrxhp6aSShVk1I490kpgPNqF42yzt8UTw0Z+1H67RoCETD6lU2X4fVWvvJEeJQdPCarhrovjJlwe/t9RXw7H4/WKu3yv77Ty1/U+HB//Ag==);lineShape=1;fillColor=#dae8fc;strokeColor=#6c8ebf;" vertex="1" parent="1">
                    <mxGeometry x="148.06865868015439" y="535.6965156945669" width="69.27858594556301" height="1.1320693188740734" as="geometry"/>
                </mxCell>
                <mxCell id="v7H2bLbcUyuyKGjq6bcg-63" value="" style="shape=stencil(lVrZbhw3EPwavRI8m+Sz4/yHAcuREMUyZDnH36eIBVfD4k4JelutqmebfVY35y59+vnw5cf9XfQ/X1+e/7z/5/Hr68Nd+u0uxsfvD/cvj6/4dJc+36VP355f7v94ef71/evl7x9fBnJ8+uv57/GEfy9yllxsQyr6/y7fdJcuX/x+wT89fj/ivet+wbf5xU18qa50wpsJfHZWCV+ywAfnWZ8cz/HZXDbCJ6FPDi5nxgt9ku36JKFP8s6zfRQ+ZucL48M5PuDf6SP4NH/+gBfx0F1Y4QifLtzl+goP8F8V5nF5tQ70M6W+62HFmwzP4OLqLXyjwiG4sD4/Vql/mMEy8Qn6J4Wv6/Ozl/pH51fv5upaUXjKduRbEe6N05sTj/xX6RvZX2YuivNGrg7VuybPa6v+Nbsk7B9dW+1Tq8QnzsbaXVPp6zJlY3BN2DNN71zxiAfhrzyj8YovLoryk10nvLkq85H1QboL+1eXV/u3Lp8fEL6rQTtSTiWwubRq1BEjKiIip0xPrqgQ7bOCXAXy9OJZSa90BjhB9YzMPQYCKopKZLN2m4l61oVDYgETfhhpSIdG4RK/gDysiQWyOPRbIh4EmghVZCLlcm8yNNq1NBwEihJAdtZNQGQ/kovK0VBJnKHVLVq1lZBe1ACHp4Xjut/MmmdNuy0Qtl+IriuBNAnBVcDLHggFChWNOtvibYEye8yh6imSBptQWUUZ9sIPsHoggTwz5EyAwtuabIQIhECdLcqqAQE6QzEXRPBBgOpS8TJFIVBXcoHCI2OpcbVPbfbrU4H10KAv0tMQWCsf6GPUh6baihYWtFltPUMEI1Gh0bjyBYwkOjSotoYsORvCm0kqSICyElgGZZx0w+ixxHpcEemDnk8sVbefFl1Yn58lia/IhbUQY4gUzx+5uJakKEmY9Y3FS1JoqIiV8Fl1zzx75QEvHAx8oYiQMxTwmfVXxQh4mtH8NMApPhLelD231uznUHuqP+NVFxz2ZH28IiOZk97PhDjD9/YRfOFuoAsp8MnzeUU8A0/+9bKdDbwRXpH+gWf9m7Jn4SktyCoNfOR8UX1j2JPjWZ43T8JxwOv4rIXxyj6Z+YQe2kc8Z7aPjs/E9u+6nmz5WLX+2/MVjx36c31QQ9qwD8fbO/Wn8vO9xneOf6/1+RAes4dne6od1Bg9OH+7GlUab2WCpNRt22qkqeBZ/83cT1U/At+Oq7/00gT8wbYdpqJAxvV/jOWaZFHDBgVSFbd39gBIlhqRIVA3GqdGMwi0nSgKJ0Cg71RUrfa859XtYLvv/MTGpxUxG4dYBfK19Z+aaXVE0akMAUp9TB1Rubrz9GfXndwpxV+TB5NT1RSfohv5mkX6g4CXbfqTArblQ5pD8BljN1rS10mxz0beuK+xlB/itMlhbPcqIcKNjY7yNIaCsm10TJxhHJEEmqQVrXDwIVjU8rdt29BDTp2tdFgn5JReGvGGpsvxD7FGG28IqIm0eg6mrm+4DH7aBNSAaduVz6i3IkfHenDbxSmCka8JdhBQE0synogQfSqp3ybWw4qzi2Aam/7CAkE4Lth2s6RXOuhpHBpxzoW3/bDtH4Msxpn3MyMFBT5xKUYGqlCNPOUgAVV+xtlrrvgsx5zIi5Ax96vdPbN4lGHl4sAssupdaGAWP/qCqNqBWdW4K1IRNEnjtVGZJgBcKZCoVd4dhu0uTY11nu2Zq6x1nptUDrKY+tmRDvRF3QlsdGfcZYp49tsWR9/d4rzEOvUCNPJWIEQ5Fm1rty6L4rZ5rzqaE1Nak5x5v2g3eRO4X+Rr/P6iwDv47UUEjc+Bm/c7eOMlkb5pHy9qsH1U9COZiBrUabDb+Mp9u8r+YmEWyze8XCIkXuJUefNpiduFvg4Dnrb5VV7b2H6VLAkm8FR+mmSwA0/taG69zob87cUX9abGrefLJW/i/G16KZP46r/rJUjaqKjsFsBT++pzq3MaP6yPWrJ/+MWsd/H48PYW2LfHp6fLS2TH//NbY/jq8sZZ+vw/);lineShape=1;fillColor=#dae8fc;strokeColor=#6c8ebf;" vertex="1" parent="1">
                    <mxGeometry x="81.623699502607" y="717.0491628060142" width="90.39391484863518" height="70.11967407568909" as="geometry"/>
                </mxCell>
                <mxCell id="v7H2bLbcUyuyKGjq6bcg-64" value="" style="shape=stencil(lVjbctpADP0aXjW7q70+p+l/ZCakMKWQIfT295XrurUkODRvxhx5paOji73hh7fd0+t2k8Lb5Xz6vP2+f77sNvxhk9L+uNue9xe52vDjhh9eTuftp/Pp6/F5/v36NCGnqy+nb9MTfsx2oxL3ySqFn/OdQBx+3/g44w/7o8bXqPCRSgX4RiUrPFNNAN+pJIVvFBjgB0WNH9QaxNem/WeKIIAYAoWgLYSDAY9gHbJw+oe0Wxxx1QYZB8HUdRJSpwGy1js1HQMnbJAombRJHsptg8bL8xaDLMIALNVMUQsvC60g00VO0EGXRAUYZKamTyiDAsgDZ0r6hFqo99sGqVDWYmpCK2ApNhrapTZgHmKgruXdG2VwQllI/1sOmTJIQ7QODVw/kXq1+I7Kh6rDD5C0SDwcHqQgUtD+r+r1qkGg5h0CBAXKHg8CDpSSw0N/gicUNEjXjaaEAUIFny2+ZoSPLgGowQs/Lt6C+Xf+I0FLgt3zM/A/2uY74bFA3+W/FIB7foEFM1x+K4x3OP4bjNd0xUk/sMCa83+AphiX9vGf+o+2rd8vSNNR7huU4jwCGZCK9BHACotOoR1kLCxDZZ0xWDFe0RX6/z48L/W9GgEMWminrvmREcNIEZWCmXpYouJRMVMvwSEjywnrFMsgriAE2TWGNiiy8YCuLqtDdMtEAifURJmVgawrDGKQEM1iKk4yKMwundTsaBVWcq92CxTeGtoz3fCW3MM9s1xbTNHbgShHBz1VK6BVDIZZxyuOoS1L4np/R9t4cwOWOn7Bybp82rJi3OLIDEDGFGUrJJlAGB81PkAZTfhs8Am9oGW7sATMZ7aaCIvQb+GLxQekubwU7gqP4i3Le8kKj/gsVqJ38cX5gwRa7IIQ4IuT6M37j/ivV/KFn89WPwnl6/0fBO7g5eLf14eX/eEwf7xY/2+/Vsit+UsHP/4C);lineShape=1;fillColor=#dae8fc;strokeColor=#6c8ebf;" vertex="1" parent="1">
                    <mxGeometry x="144.61104077115328" y="539.8642644143963" width="50.15070378802284" height="179.13653557765406" as="geometry"/>
                </mxCell>
                <mxCell id="v7H2bLbcUyuyKGjq6bcg-65" value="" style="shape=stencil(lZfbctpADIafxrca7WqP12n6HpkJKUwpZAhpm7ePXHeNV5ifyZ0x+mytfp08yMPb9ul1M3h+O5+OPzd/ds/n7SDfBu93h+3mtDvr1SCPgzy8HE+bH6fj++F5+v36NFqOV7+Ov8cn/J24QBxGyPPHdIMpp383vk/m+91hYe6EonT2zlEQAFQq3AG+0PjzFuA9ldwBUilHACRyvgOiJ18AUKi6DkiRAnBJXHteA3KhHAAglPo3FAUYAJmkj1KdhVkFgkYp9kAkdreByCS9S1Va3NaBSuztGf4rswqkalOjzE6uAiWQ78+QFQBnqKklwiycKl0BoGHtszs5qsAlBWq1QAE61ELp+g0gSrW27F+cQUABKZCyBQo6dKXa65C0aEE9OGbiPvtSuOeTyT6tIAZtQ4HIFkAFoXG1QmiZg0MoINkCAUud3RWA3pCJiwU8kjpRDPbQBYVVj3gVVo+ASNW8IVBEFRRb+i9yA/X70aVsAUZhTS3XFul6RwcnFkCtbxTOuORgn9HUCGKBipKv2qGoLjlcclZpTwkD5SqsAg69XqOM0lXbgLdAAQ1/bDQmTLFV7S3A5kbCyn0VKMkWdU6wHWddRszg1fQCZ0jcdFqMRUFjUXcBM6l1ZgAdgmt/zxvTRcv1ZSBQCPYVArLJ17aNzAC34b0O5Na45rjOU2YdCG3kLJSLQAjd4lwfpqg7EShSpwtSHyYNHKo5F+2hhcmh1ZXtFqePYNBddRPuCyhQAkLrgpWMuQMhVWf7TNUhDc1N+fs25W+ZizFHo4pbqOfQtLXmhnkwkYStiKn05tzW43WhbCBVOKSr3eYZDihvfb9TjO1hF3MHfBc7/bh1sPXm8LWvr7vmenH50HvZ7ffTd+Lyf/thqLemj0p5/AQ=);lineShape=1;fillColor=#dae8fc;strokeColor=#6c8ebf;" vertex="1" parent="1">
                    <mxGeometry x="139.0046006412747" y="704.4130973378221" width="25.147327769272806" height="22.037213359606767" as="geometry"/>
                </mxCell>
                <mxCell id="v7H2bLbcUyuyKGjq6bcg-67" style="edgeStyle=none;html=1;fillColor=#dae8fc;strokeColor=#6c8ebf;" edge="1" parent="1" source="v7H2bLbcUyuyKGjq6bcg-66" target="v7H2bLbcUyuyKGjq6bcg-14">
                    <mxGeometry relative="1" as="geometry"/>
                </mxCell>
                <mxCell id="v7H2bLbcUyuyKGjq6bcg-66" value="This 'collect_data()' is running in a thread, generating data in the backend consistently.&amp;nbsp;" style="rounded=1;whiteSpace=wrap;html=1;strokeWidth=2;fillWeight=4;hachureGap=8;hachureAngle=45;fillColor=#dae8fc;sketch=1;strokeColor=#6c8ebf;" vertex="1" parent="1">
                    <mxGeometry x="820" y="1030.97" width="200" height="60" as="geometry"/>
                </mxCell>
                <mxCell id="v7H2bLbcUyuyKGjq6bcg-71" value="" style="group" vertex="1" connectable="0" parent="1">
                    <mxGeometry x="810" y="584" width="220" height="60" as="geometry"/>
                </mxCell>
                <mxCell id="v7H2bLbcUyuyKGjq6bcg-68" value="&lt;span style=&quot;white-space: pre;&quot;&gt;&#9;&lt;span style=&quot;white-space: pre;&quot;&gt;&#9;&lt;/span&gt;&lt;/span&gt;: the data flow in frontend.&lt;br&gt;&lt;span style=&quot;white-space: pre;&quot;&gt;&#9;&lt;span style=&quot;white-space: pre;&quot;&gt;&#9;&lt;/span&gt;&lt;/span&gt;: the control flow across backend and front end." style="rounded=1;whiteSpace=wrap;html=1;strokeWidth=2;fillWeight=4;hachureGap=8;hachureAngle=45;fillColor=#dae8fc;sketch=1;strokeColor=#6c8ebf;align=left;" vertex="1" parent="v7H2bLbcUyuyKGjq6bcg-71">
                    <mxGeometry width="220" height="60" as="geometry"/>
                </mxCell>
                <mxCell id="v7H2bLbcUyuyKGjq6bcg-69" value="" style="shape=stencil(lVfLctswDPwaXTEk+D6n6X9kJk7tqWtnHKdt/j5QVbkmUK3sm8Ls0sQCWJBDeHjbPr1uBnZv59Px++bX7vm8HcKXgXl32G5Ou7N8DeFxCA8vx9Pm2+n4fnie/n59GpHj14/jz3GH3xPPUa0jid3HvODcn4WvE3y/O1zBC/ncwT1lAPeZ2HV4plKW8RyJ+/0DZb+MD4FSf3zZgJfxUbbLCv934b/4FCk4hW9tGZ8jlR6f4HlKpBQVPoD9q+zvFT4BfZqnpvEoX60RGzzQR/Cx17NQqxCfW18/F8WWCLX0BZTIA0WF0HpCqOQjKFF3qfhLzEwRn6mljpAzRZQFCaJXtdQ5j4sycUeoBdadEELfBy3MlbtE8KEnRHIoc1UbRXPEQFch5D4RlcnjX0hKJUcFFV+l2MeQxJ6Au1hCZKqomMyRWBok3BO0L3Pub5UVx2zylqjhdlCFkdf6TVWeZ3J31baMhJXKU90jJg5niG3QWOBUsB6Q/WwjN7qMGHPF/aZ8rKa1qJVRNtEVJ045sTRoQP12N8HMBiEg37PDZyQAlex0EwJKnB2fQijAM+x8bgmWq70ACAGpZG8YQkBHsleYluFMt3ekVqDJmDvY6Gsgb+aKd9VRCwRlYqMPJoSPCi8agHaTwaGap1AEveDI945R1gJ2aj4XKkBQewHIsDetH4XZcG47T+AVfVS8YqkJVJDRUzw7wf1VvtKKPHqmUYTVcNeLYhUuH/8eLy+7/X56+1z/Xz92ZGl6KIXHTw==);lineShape=1;fillColor=#dae8fc;strokeColor=#6c8ebf;" vertex="1" parent="v7H2bLbcUyuyKGjq6bcg-71">
                    <mxGeometry x="10" y="14.759999999999991" width="36.6" height="1.13" as="geometry"/>
                </mxCell>
                <mxCell id="v7H2bLbcUyuyKGjq6bcg-70" value="" style="shape=stencil(lVfLbhsxDPyavRKSSL3OafIfBuLUi7p24Dht8vehs1jXlKAxelvvckwNOUNJEz+87Tav2ym4t/Pp+Gv7d34+7yb+MYUwH3bb03zWp4kfJ354OZ62P0/H98Pz8vt1c4m8PP0+/rn8w8eC81TDBRTc5/KCI0X5fvO0xO/nw218IEkWkKjEMSAkitkCMhU3BnAPKCR1DJBM1bccMsgQK8ViAZ44jwHZk7dVUlYMSBcmsRy00A4sqQZKNoMWOoA+1ELOknbkGMbH2sRHD+IreTbxQg6tp7Zd844CKJECSgPAbfbOrSW8FlU7j4paqUorPZRCAdlmkEQBCEMBbAGR1zejNmTbhqhuSBAQrDBUvYIAmVJsM1TUuUxeWg6CSCfK0lYJlvX6+aYPGXFQgBVfKOTxkqIlrWLKiLQOLctB5SpIrpmCnRlCvsD4YvvmVoOM+iyuiYcDo1C1czjAua1KFUs4r5N/aAXbMx8xATWbLZBWCE3hHsBCjCmUxp1MEWeQxgqewp2i2pkU0+qmYdfsFFZ3woGhgM7OEBBaHaWrskZbT7TCyAn6Xze3YDkU3YyAO3XFyWYoZf2L4QZty1oZku6PAGonB5bUHzIUkEHj+mOMdiah3ac9J91sRwNAm6BCCno+sAl0RDEoqqNk/Vw9FUDAEduRWhI5MMAceauKXKF3us1ZdYVU1MUnvrP+Zj1qTTQtOr6C982unjpckPW7fnGFB7ZODypyAfX/74P53Xh9+HcLeJn3++UScfu9vTXoq+XGwY9f);lineShape=1;" vertex="1" parent="v7H2bLbcUyuyKGjq6bcg-71">
                    <mxGeometry x="10" y="28.75999999999999" width="33.4" height="4.55" as="geometry"/>
                </mxCell>
                <mxCell id="v7H2bLbcUyuyKGjq6bcg-78" value="" style="shape=stencil(lZvZkhw3DkW/pl8Z3Jdnj/0fjrA86hiN5JDl7e8HnA6mKi8rT0pvrRJuFUmAwMXCl/TD7+9//u3dS/S/f/n86T/v/nr95cv7l/SvlxhfP75/9/n1i/31kn58ST/8+unzu39//vTHx1/e/v3bz1Ny/vXfT3/Ob/j7DZeDy36iov/n7RPvcvj/Bz+9yX94/fgon1zIKu9BvrjUVT6BfHMhfM96hgvb98N6iu23iHxqIJ9cqyofQb64MUQ+dpBvbuj3R/r+4bruN9Rr+Rpc0/36AfLJVV2PB33V4qraj4fzr80V1S/KD5f1PH25lm/BFV0/nU97st9E8sW1JPI1g3xT+eA82HOz/VaRp/vSvRtd5AecZ4/L3Je8fQD20O18isgPWk92/azf5DLYfy+uJ5EfJF/1PLPLcH97d/G8fnNIYD996H2vLoK+hndliHwjeVPn2X+25cCey5t6ksg30O9ILp6/v7tE8tmFKPID7N/kx/k8h6u036L+J/i1o+eA6srZoYSwlvgcYAfYFDBAxQYQFYfoOtzh0fVMg0UFWlJfPuEAZFdIy8NF2UNlsxjqRkNDv2KAftZzsEXSHoYb5z3MyASeYgLOnshcUbgBnK+O+RbSdPBHrDgQCaPTcwT5r2eIw6VdbuNsTvGIEVeAJvu+8RljubgD0O4AXlRhyqYldY3idq0LuFW7Q/28pHQ4wiuAHGsKfCXqsucDEF2hPWQ12JQW17tyleN8JVJmXxnVwlNBMmLOXizcAI28a1jmfACqy3RL/bpiD4BB8XyscH8AGh6rBdAim+7Luq4idD/fhzSQgk0KUBTQKEZvHCMz6Z8k5mytlvYQCzaWVKICGgGCpjk5rjh2xdvSedMzs4JjNWKYggI6AboyjZxxSUZVq1CrgppudQWEA1AZsCvuSPeu2PlICqhE/6M6gXwE76t8QazVAB08X/NKaCwFpQtkGUw5L6lYICXATlk9cuJaF+U/AAEvkCVtkmSUuALAVVbY5RfSIiDPAXE5xgPAPL16ZUCWSZP3LhspK8YcCVA0ZFnuTadkWwxn47Pkm3JVU5MwUdtVAuOb1n8+JUvXK2jabnA8+yU76AHHam5LvEbNeB/MuYsezFjIvC2iZfkFZjMWxkUPtSFfMmYhKV/tmHMb2ZGcclYRQHHGv6SoYrecmKhRQrlx0y2A4uKRYRyAgIHdyLb4JXNtHqKo0fnWFEBcwzIMSSHM2xai33m5rQOQl3U9B4RlmwegIBMY6u0twhC97+tEHuQHeSWt/c3qDBX/nD/fNouplHynTWdjVZcu5IXtGSsg+bhKj4d8wNQkLJs85G/SpWWSh3zGYmfQ+G9Ujs4naC2jc/HjcIaHfMecYT+fI4m9OH9Zj/HvCBEha+i3jIBi1FbKsJSDsqqu9mk5DckHr9x8FPQqIapFDK4zhKImaoBOv9A0QlnmRwXVMNSrzNwSjNo8o+Tblr0G0IKZhfBaAxAXMT1LHDcA1XvMUZRtSWR4cauKDaYWBpCAYwBiznFLn2eNiXxLVWc6yw7gLGLdTINLgXMP26YpQhmgb3vokIUZoEYFED2KRT3eQ/3nCqH2ffsT+zHhJvL67289pqzk/E4RefMCN6rOSqjujClrJJ/myjfIb5u+04Ps4fbKSSNpAmjTZkw7gDXdtxvkGTA2PVCzYV657QYlCojPAJQkPV0Ssfmnm+78C3qsA8v1u+K+5Y5um6Ci2PcD0uKZj8dES9rabmNg382iXNsuNXK3rmR7cJZk/F/vaMd6vfF/XVLjX4haaxxcnDQ+Eza2QaWStkXFggn3VmkcnMGkLWIdNYErAiryYfnmC4KrRIOnC7wSRCPEVJb0y/88EO6I3y9F+l6wSXT01h8SBkpSt2Zpj2xBGmx7QH3Fbb88LZC0T9LYxWet8loCSZW5om7C5OkSN+WRltAGasOs3vpDgh0pYdimI2YKTzcy6Y25KxJUnQ+aZQhScdcBpBY4zHrNqgxAmzarkADSPFq1qVmq//UmHFRt0BmA/NBsysvUADfoktcIVRuWqVNcjO6hLEeN/ZQ1ftTCyXNTdl4z8tTst7Jcwjwsp2U5D9VOilC56jBP9ci181BAYX406+TnTc86NNWEN2pRKh5radqKLdxOnis+21LJXMzfasKFyxKzxiy/EFdP4zkgr0M8AAGPtW6pYfF4H8z6o7RtBlYN7H5JtdMAHpyA3WApPs1OEjW3vBZgc0M9zNaT9KoqZiTmSSXRMwANM+3DbfkYt3oOKBoQc8YL1LYicub5CguAUnMzAA1gtq3PkyO2bdrYupJGC8Ban7RiA3pvIyHi7jMHlB71TqeBvdt+zBc9ALCHnnWmJPXbuTtZEgcUY47CPVNlQFfPZwCa/OpDawCpYK2xb/2CxPTH2LVOrWTkn1/p+wHg8cQRNUcyAC5pG02YkZuWlLWamdi3ji1/Ttxl+JpzLYDxTGqTzJLw2QnMIUKaT2or3hyAhr51tG22rKxzew7o2rq5m+LaAQnj9AQEBeAwUN8Gy+Liyt+66YBVtwnYRvbIt85Ku8wpdrxxM+Hfxg4pf3gynFlwPnmOf571EDhDmQ0MmRdNdxOp4ozn+CcNlm0VXANQ7X1saaLlXfSIYToBAXieE4vasP5aOrkCaH2Vh+mC8itOjIfXKYCOnTFz3aLmxmPl2zMJZtG9aqJbeCyuaPejIDu0eCtWlzncpkVBDieMHrJvY0mJKYlXxh3R3RlJCipPo49te7ZxLPCKSIqHDzx7lnRIKtyNbWlRGJ1v3UZoPWbD85mKPmsh+5zPYPRZywD7scy3bd9P6w/K7wKPIg2dbeXzKVtwCujiLIn1+v3ET+czKl0/FXbnMy191kL2aclc1PVT13l/ZsYeen/GFvjZ2/ZMjsd99md4N+vZ/PPNeoI+87g5n6DsJuDwvyVAY5On9fiNeeBA7pTf7heVjp7IU1dqX4/HquW+X65X7OfpsYKy68tzqWyzh5tnlt/77PNW3v74+sb019cPH96eqD7+v75JtY/e3rOmH/8H);lineShape=1;" vertex="1" parent="1">
                    <mxGeometry x="308.60516433652447" y="671.7647944172522" width="248.3173296182922" height="294.69334561292135" as="geometry"/>
                </mxCell>
                <mxCell id="v7H2bLbcUyuyKGjq6bcg-79" value="" style="shape=stencil(lVfZctswDPwavWJIgOdzmv5HZuLUnrp2xnF6/H2haqiIkLVu3mzZK+LYXYCDPLztn153A7u36+X8fffr8HzdD/JlYD6c9rvL4aqfBnkc5OHlfNl9u5zfT8/T99en8Z/jpx/nn+Mbfk+4GijwiGL3Z3riM2X59+TrBDgeTgtAYYq5BxQKcRuQmdh3AHYQEDP51AM0yLINCIW4z4H1FWEbIIV87ADiyPttAFeSPmkRiiAHZnJ9SJLJ5W2Al/ZzA4RADvRBT8i1A0RP4kDScQWoFEGVQqUkHSAlciDpJCQ9IDuqIOlcWoozIFIBORTta1/WrJ0BOZRqyVccpbQNqBqx6wFMlQGAbQ5Fc0AnMIWe3hqkrxDge2roE0S+6leASAmVtVpNV+0M0IP2IfYCqvoK5BqxcXN2DefIoZhWgtAjBLhA0az7I6o6GeicUicWWyYGISld06oRDnROAaE/oZR7ITlD19j8+XbSjtiwD3NDq1R7F9BXwBNCc8aF5BhJLrU2LQAecaNYMhXsxqpRqTZpB6ihgsi9bWhWBYs6GBdQQWBRixGEh0NOf7aSC5RAWTVpMxWV3gzIpxGzAdzpQ2opLgAVJK0SLc4CMtb05wA6Dpwpa4LbiU6oGm1ZGS0bvNJDbb2/PRVjM7oZkJqPbC0bpqxaBhSSrOitAkJcYmkutBijaHfwq1Ug31GcnXFJq4pytlYctUaAq/MomJefBBe4ZKmtC58Apo4rqllaayvy7ZKuTMzj3WfcrvqQvBoxsBjlUe19FW8yMVr9JzxKXBPKvIG2dW5zMJgJ3Xbe25QQ+348z+sqfgfdSIUe2fw/o3h02AcTf0EzQSexuQNA3atTBbM+wzE4eqdZVaFkFvvQByHQYB6t0yTsIeNG++8z1ksHuldpidioZm7iVg+8CSnhE3RV7kmkt09BY/Oz19X/AOiHj9vxy+F4nC7Xy9/tbVofTTdxefwL);lineShape=1;" vertex="1" parent="1">
                    <mxGeometry x="400.5682778813882" y="664.7793480797054" width="34.40616159910451" height="22.991729126346172" as="geometry"/>
                </mxCell>
                <mxCell id="v7H2bLbcUyuyKGjq6bcg-80" value="" style="shape=stencil(lVdJcttADHwNr6jBbJg5O84/XGU5YkWRXLKy/T5gWJQF0GpZN1pGk1i6ezBDenjbPr1uhhjeTsfD983v8fm0HdKXIcZxv90cx5M+DelxSA8vh+Pm2/Hwc/88//36NEVOTz8Ov6Y3/JlxSajJhIrh7/yLUI7/f/g6x+/G/WV8Iw4mniuFDgCVajSA2CkHACgUmwHoNysAlOBTUkACKdVO3A0gM0W+DmiNxDYpdyr1OoBDoGBzqpFSuY7onWKxc6iUUE6dui1CsyygaokkdhBdYNXa15rtqN/L+hARGwWL6IWyAIAnXwvUwQcCFUdWoZ5QfLAlSyYB71ca2J4KUwHvz35o9cyUj4fm86+qDjAzTtRsAbVQAfJk1Vb2AKQFLaFln1JEAP1C9TUzYHbSIbNtaiBBgEzFSUHbgAHZOobSgpHFRO9JyjsGetai2RFV1QSIEVcptXxrcE46rUDDUGrk5AGcEfeii09Qa2nlLwy5zQsLzkNo1EH8yiGlkADiqRs57UfowWk5ls487VTByISCpWkVKASOK0ChhsxFlnwvtQkMWEtwB9v0hXaP/2oNGdScmFr1TWro+L8XkDVjZ6kN0rQyZV4BQFu1xBJWKYGi9SR2TK0BbiRaQ7LSKXo2ozkIiVV/ycQAwEpu29Ys0JCqt0hds5CYdbuwPdIU0RSYF4v+5JqngO48GO6Rqp5kKy5QnZPd2Xj1J2SPukVaKcTlBVfFae1FdwG0uQTPiQCVpum6em+sUtUfIDfidSHlO/LRI9Bt2bhePWMr+36i+LNCPjcvvYdk6xNl2T6vxa/vLajem/ccfXi/JL2Mu918x7r8v79U6U/zhSw9/gM=);lineShape=1;" vertex="1" parent="1">
                    <mxGeometry x="446.7600923334105" y="785.4700188272504" width="16.97809288231315" height="29.380193068322342" as="geometry"/>
                </mxCell>
                <mxCell id="v7H2bLbcUyuyKGjq6bcg-81" value="" style="shape=stencil(lVbLctswDPwaXXdIgs9zmv5HZuLUnrp2xnHb5O8LjUaqIVbr9CbTWBILLJYc5OFt//S6G4J7u17O33e/D8/X/SBfhhAOp/3ucrjq1yCPgzy8nC+7b5fzz9Pz9Pv1aYwcv36cf407vE84HyF5RAX3Ma1EtGnh6xR/PJxu4iVB2ipe6nZ8dojRxHtI2o6vglZMvINzJL7BOxMfkMN2fBNkm793COSAVhBsgZRBiwTQ1owlI8s2wLuF4oxIAcWTIypqNYBckRggzxxnQA2QQgABwZLQlUpY14IYLECTJKw1gSAW0CjpUjpAotIrAc0CaoaQVmdNwJa1CCJJSavu7QmpwrFp6ABRxXQnJSvXkJFI43rSflH8J8sa6QDVThk6P2T/Xhge/o7ykm0CPDGkUdre7l+Q2Xx2wyMeifTgH/MZC4SNW2cBWWbb3DSZFWkVEquSNtWSUCOsJCX921kh6ZkspdGIre/d1OGT1n0P0V8O2pxMbof+9lEPYGrtrzcFOKIOvQ3q6gRBIT62iO22EcQCIootkpaN2V5AXCkjIZH93ey6i/TS3JaN+PXdkxAJ334WIjWkLh+JcGR/5bu6biP14K6ePlM/6vqlHfdMQW426KWgCITv/z6o7sfrx9/X28vheJwef7f/r197ujS9FOXxDw==);lineShape=1;" vertex="1" parent="1">
                    <mxGeometry x="448.92878343854613" y="787.4277277527167" width="14.369973654141859" height="4.613920104918179" as="geometry"/>
                </mxCell>
                <mxCell id="v7H2bLbcUyuyKGjq6bcg-82" value="" style="shape=stencil(rVjZUhtBDPwav6rmPp5J8h9UAcEVAhSQ6+/TE2eNp9fbzkPe7F1pR1KrdcwuXr3eXz/f7oJ7fXt5+nL7Y3/zdr+LH3Yh7B/vb1/2b/i1ix938eru6eX288vTt8ebw//n6yE5fn19+j6+8POgV6O5PrSC+3V44p2l9OfJp4PCw/7xRKFkq3VS6Fb9tnzO1jLJx7Itn4pVli/CnthtvJsd6E0owGNSSObFCWHlQXDmhcshWGizQrIYthV8s1ZmhW6uCoVs3U0KMS1hOK8QLcwwI25/vTqv4FkhIQwiSoi6n53OwaLTCmlWaJa1SW4+oSRLXSgEK3OqVpwpcg+JUOYTapZkANJ5xqFF88Lp6MzNudSKReF0bOxDQ7KI9E51genIHyeBy8XazIcelkBvVQBmdLAqkq8mq4UVsiBQCyuTvFZYOY0nXpjUkP0zcLVKpxHEMiuULpMPFhMfCigVtUKc+YBcEqkBk/IcVlA0iPSG08XPRaDK1ECqpdmk6GUhG1GfcQhlqYXnFVAYZ5NQW4NC+vj6pHorHypgmqOEWphFlKDAJwTZH8YJM9IobYoPwwfiw2LjeXlviYrGcuIWffoMW5UlAyDkTPJVpUXhTG3mlP3VciD5pjBunNjdupLvC0+OAIBqgjlQCLMDo1UIMsOiShAn2aBHQaKsu8DNwj77oitYNudZISuTosW2UlBR8lxUoaBqZFsVpOG06IZgTsmrsAqk61ngVOvBsEkKx7q8pdB5/FRzEoJEMLSl2W1xM7G8E10B3HTUqKwq+bzE412+CwiQqDT/N91p27p2/U/5HpesP0k6Vex6YQBCkgj0yvM/hjI1O/cjQidt04mY9s6YpSRB68cV6qT1Kx545/gITBeK/eMIqvFO1pe+Kqq1LVzaiiuNhcjFqJDLvCZhBFJ9c8xgc672i9MFQQ0sqypIq6I64iZMwiwcqEa+Q7O1D5fVEUlgjaGuV3YiqI0YjEgcpiSQC4UXK7BQDQygZKClBGVTTQw8YAAZtSZlLkrIPdXQMfBQ0QuLhecd4AFm3GoIDBzn0VhVhb8rdmYvO6df7hOOBSNKrkXOOmCu5Avbf2GiQtekMT7q5T9yQH1bPnFeoXIbHJ8QiAFiP/eRJomJtkchzdIgBJAnPLmtpcLF6wLtC/dBp5dsbOWV5BUlsWN7tl9uOQhHJXk1k9fCO4i+3cE6TdNmlPEBwR3LS39BwDnj0iV56h15GfQ2v887kVODZuPNV891iE/ifO7q+4XtOc7OW/iul1J194UEio4VVNcYN8erE9Rl2T9cNePH+0X13f7h4XDPffqeL7bx6HApHj/+Bg==);lineShape=1;" vertex="1" parent="1">
                    <mxGeometry x="436.8846750338869" y="774.2689654667154" width="43.67867550105325" height="49.41920925579575" as="geometry"/>
                </mxCell>
            </root>
        </mxGraphModel>
    </diagram>
</mxfile>